<?xml version="1.0" encoding="utf-8"?>
<!-- Generator: Adobe Illustrator 26.0.3, SVG Export Plug-In . SVG Version: 6.00 Build 0)  -->
<svg version="1.1" id="svg9325" xmlns:svg="http://www.w3.org/2000/svg"
	 xmlns="http://www.w3.org/2000/svg" xmlns:xlink="http://www.w3.org/1999/xlink" x="0px" y="0px" viewBox="0 0 119.7 107"
	 style="enable-background:new 0 0 119.7 107;" xml:space="preserve">
<style type="text/css">
	.st0{stroke:#000000;}
	.st1{stroke:#000000;stroke-width:0.8881;}
	.st2{stroke:#000000;stroke-width:0.4987;}
</style>
<g id="layer1">
	<g id="g4270" transform="matrix(1.08356,1.3267914,-1.2370763,1.0102917,551.99461,-569.21642)">
		<path id="rect4206" class="st0" d="M100.1,441.6L100.1,441.6c6.6,0,12,5.4,12,12l0,64c0,6.6-5.4,12-12,12l0,0c-6.6,0-12-5.4-12-12
			l0-64C88.1,446.9,93.5,441.6,100.1,441.6z"/>
		
			<ellipse id="path4211-5" transform="matrix(2.381001e-06 1 -1 2.381001e-06 617.7084 417.8181)" class="st1" cx="99.9" cy="517.8" rx="1.9" ry="15.1"/>
		
			<ellipse id="path4211-5-9" transform="matrix(2.381001e-06 1 -1 2.381001e-06 557.4227 357.5325)" class="st1" cx="99.9" cy="457.5" rx="1.9" ry="15.1"/>
		<path id="rect4206-5" class="st2" d="M96.9,443h6c5.6,0,10.1,4.5,10.1,10.1l0,0c0,5.6-4.5,10.1-10.1,10.1h-6
			c-5.6,0-10.1-4.5-10.1-10.1l0,0C86.8,447.5,91.3,443,96.9,443z"/>
	</g>
</g>
</svg>
