<svg xmlns="http://www.w3.org/2000/svg" width="2048" height="2048" viewBox="0 0 2048 2048" version="1.1">
	<path d="M 334 616.526 C 333.175 616.688, 329.125 617.360, 325 618.020 C 305.054 621.212, 267.161 631.089, 246.500 638.481 C 239.900 640.842, 232.700 643.335, 230.500 644.021 C 223.076 646.335, 201.573 655.142, 190.500 660.403 C 181.988 664.448, 176.334 668.148, 165.500 676.762 C 145.894 692.352, 143 695.124, 143 698.317 C 143 701.572, 148.861 706.155, 160 711.612 C 169.859 716.441, 187.441 727.652, 197.759 735.690 C 208.083 743.731, 219.871 755.401, 231.407 769 C 236.306 774.775, 242.674 781.975, 245.559 785 C 251.523 791.255, 266.444 812.936, 270.793 821.668 C 274.173 828.453, 277.572 837.485, 282.018 851.500 C 283.763 857, 286.695 864.650, 288.535 868.500 C 290.374 872.350, 292.303 876.627, 292.821 878.004 C 293.930 880.951, 305.636 896.978, 307.908 898.660 C 308.770 899.298, 311.137 900.086, 313.169 900.411 C 317.781 901.149, 360.338 915.842, 385 925.212 C 404.660 932.682, 437.140 948.518, 455.775 959.722 C 478.226 973.219, 497.049 988.156, 518.503 1009.500 C 538.778 1029.672, 551.586 1046.663, 574.340 1083.578 C 588.719 1106.905, 590.593 1108.962, 595.263 1106.539 C 596.645 1105.821, 598.894 1105.448, 600.260 1105.709 C 603.356 1106.301, 608.172 1103.872, 613.939 1098.811 C 621.912 1091.813, 629.183 1088.091, 639.178 1085.889 C 661.178 1081.043, 693.293 1079.527, 710.476 1082.524 C 736.417 1087.048, 768.137 1098.270, 796 1112.782 C 806.175 1118.081, 819.225 1124.779, 825 1127.667 C 836.025 1133.180, 872.082 1145.560, 891.672 1150.559 L 902.844 1153.410 900.258 1157.955 C 898.836 1160.455, 896.673 1163.625, 895.451 1165 C 890.458 1170.616, 889.489 1173.887, 889.673 1184.500 C 889.880 1196.453, 891.149 1202.715, 894.784 1209.731 C 897.786 1215.525, 901.104 1217.575, 905.808 1216.542 C 912.741 1215.019, 915.467 1207.144, 909.500 1205.875 C 907.850 1205.524, 907.001 1205.183, 907.614 1205.118 C 908.226 1205.053, 909.936 1203.792, 911.412 1202.315 C 913.845 1199.882, 914.038 1199.154, 913.466 1194.565 C 912.871 1189.796, 913.058 1189.208, 916.667 1184.500 C 920.344 1179.703, 920.512 1179.607, 920.805 1182.130 C 921.130 1184.939, 919.425 1195.295, 915.969 1211.500 C 911.603 1231.971, 911.617 1231.864, 912.825 1234.516 C 914.022 1237.143, 915.660 1238.036, 922.812 1239.958 C 930.264 1241.962, 947.592 1254.401, 965.993 1270.958 C 996.972 1298.833, 1015.956 1317.277, 1017.988 1321.476 C 1021.519 1328.769, 1026.481 1328.769, 1030.012 1321.476 C 1032.044 1317.277, 1051.028 1298.833, 1082.007 1270.958 C 1100.408 1254.401, 1117.736 1241.962, 1125.188 1239.958 C 1132.340 1238.036, 1133.978 1237.143, 1135.175 1234.516 C 1136.383 1231.864, 1136.397 1231.971, 1132.031 1211.500 C 1128.575 1195.295, 1126.870 1184.939, 1127.195 1182.130 C 1127.488 1179.607, 1127.656 1179.703, 1131.333 1184.500 C 1134.942 1189.208, 1135.129 1189.796, 1134.534 1194.565 C 1133.962 1199.154, 1134.155 1199.882, 1136.588 1202.315 C 1138.064 1203.792, 1139.774 1205.053, 1140.386 1205.118 C 1140.999 1205.183, 1140.150 1205.524, 1138.500 1205.875 C 1132.533 1207.144, 1135.259 1215.019, 1142.192 1216.542 C 1146.896 1217.575, 1150.214 1215.525, 1153.216 1209.731 C 1156.851 1202.715, 1158.120 1196.453, 1158.327 1184.500 C 1158.511 1173.887, 1157.542 1170.616, 1152.549 1165 C 1151.327 1163.625, 1149.164 1160.455, 1147.742 1157.955 L 1145.156 1153.410 1156.328 1150.559 C 1175.918 1145.560, 1211.975 1133.180, 1223 1127.667 C 1228.775 1124.779, 1241.825 1118.081, 1252 1112.782 C 1279.863 1098.270, 1311.583 1087.048, 1337.524 1082.524 C 1354.707 1079.527, 1386.822 1081.043, 1408.822 1085.889 C 1418.817 1088.091, 1426.088 1091.813, 1434.061 1098.811 C 1439.828 1103.872, 1444.644 1106.301, 1447.740 1105.709 C 1449.106 1105.448, 1451.355 1105.821, 1452.737 1106.539 C 1457.407 1108.962, 1459.281 1106.905, 1473.660 1083.578 C 1496.414 1046.663, 1509.222 1029.672, 1529.497 1009.500 C 1550.951 988.156, 1569.774 973.219, 1592.225 959.722 C 1610.860 948.518, 1643.340 932.682, 1663 925.212 C 1687.662 915.842, 1730.219 901.149, 1734.831 900.411 C 1736.863 900.086, 1739.230 899.298, 1740.092 898.660 C 1742.364 896.978, 1754.070 880.951, 1755.179 878.004 C 1755.697 876.627, 1757.626 872.350, 1759.465 868.500 C 1761.305 864.650, 1764.237 857, 1765.982 851.500 C 1770.428 837.485, 1773.827 828.453, 1777.207 821.668 C 1781.556 812.936, 1796.477 791.255, 1802.441 785 C 1805.326 781.975, 1811.694 774.775, 1816.593 769 C 1828.129 755.401, 1839.917 743.731, 1850.241 735.690 C 1860.559 727.652, 1878.141 716.441, 1888 711.612 C 1899.139 706.155, 1905 701.572, 1905 698.317 C 1905 695.124, 1902.106 692.352, 1882.500 676.762 C 1871.666 668.148, 1866.012 664.448, 1857.500 660.403 C 1846.427 655.142, 1824.924 646.335, 1817.500 644.021 C 1815.300 643.335, 1808.100 640.842, 1801.500 638.481 C 1785.751 632.846, 1772.361 629.004, 1751 623.989 C 1724.183 617.694, 1719.509 616.905, 1705.500 616.305 C 1689.954 615.640, 1636.592 617.436, 1608 619.588 C 1596.725 620.436, 1578.050 621.487, 1566.500 621.923 L 1545.500 622.716 1531.033 627.369 C 1523.076 629.928, 1513.054 633.376, 1508.762 635.032 C 1495.534 640.133, 1449.533 660.716, 1429 670.721 C 1418.275 675.947, 1405.122 682.165, 1399.772 684.539 C 1388.585 689.501, 1361.016 704.137, 1350 710.961 C 1345.875 713.516, 1340.394 716.821, 1337.819 718.305 L 1333.139 721.003 1334.069 717.758 C 1335.477 712.849, 1335.187 707.330, 1333.429 705.571 C 1331.394 703.537, 1326.588 703.555, 1324.539 705.604 C 1322.398 707.745, 1319.519 713.507, 1317.924 718.846 C 1316.531 723.511, 1315.413 724.256, 1307.119 726.049 C 1298.425 727.927, 1297.441 728.754, 1287.122 742.847 C 1267.896 769.102, 1264.443 773.777, 1256.646 784.101 C 1243.933 800.934, 1226.816 827.321, 1217.465 844.500 C 1212.675 853.300, 1205.284 866.575, 1201.041 874 C 1196.798 881.425, 1191.809 890.820, 1189.956 894.878 C 1185.842 903.886, 1185.607 903.442, 1184.101 883.811 C 1182.863 867.663, 1178.893 853.664, 1170.968 837.500 C 1168.272 832, 1165.398 825.810, 1164.581 823.744 C 1162.650 818.857, 1159.248 817.452, 1154.328 819.507 C 1152.207 820.394, 1144.371 827.408, 1135.066 836.751 C 1111.191 860.722, 1097.230 877.569, 1061.652 925.341 C 1048.088 943.554, 1040.449 953.003, 1039.563 952.663 C 1033.475 950.326, 1029.984 949.810, 1027.093 950.818 C 1024.881 951.589, 1023.119 951.589, 1020.907 950.818 C 1018.016 949.810, 1014.525 950.326, 1008.437 952.663 C 1007.551 953.003, 999.912 943.554, 986.348 925.341 C 950.770 877.569, 936.809 860.722, 912.934 836.751 C 903.629 827.408, 895.793 820.394, 893.672 819.507 C 888.752 817.452, 885.350 818.857, 883.419 823.744 C 882.602 825.810, 879.728 832, 877.032 837.500 C 869.107 853.664, 865.137 867.663, 863.899 883.811 C 862.393 903.442, 862.158 903.886, 858.044 894.878 C 856.191 890.820, 851.202 881.425, 846.959 874 C 842.716 866.575, 835.325 853.300, 830.535 844.500 C 821.184 827.321, 804.067 800.934, 791.354 784.101 C 783.557 773.777, 780.104 769.102, 760.878 742.847 C 750.559 728.754, 749.575 727.927, 740.881 726.049 C 732.587 724.256, 731.469 723.511, 730.076 718.846 C 728.481 713.507, 725.602 707.745, 723.461 705.604 C 721.412 703.555, 716.606 703.537, 714.571 705.571 C 712.813 707.330, 712.523 712.849, 713.931 717.758 L 714.861 721.003 710.181 718.305 C 707.606 716.821, 702.125 713.516, 698 710.961 C 686.984 704.137, 659.415 689.501, 648.228 684.539 C 642.878 682.165, 629.725 675.947, 619 670.721 C 598.467 660.716, 552.466 640.133, 539.238 635.032 C 534.946 633.376, 524.924 629.928, 516.967 627.369 L 502.500 622.716 481.500 621.922 C 469.950 621.485, 451.050 620.427, 439.500 619.571 C 404.903 617.005, 340.972 615.160, 334 616.526" stroke="none" fill="black" fill-rule="evenodd"/>
</svg>