<svg xmlns="http://www.w3.org/2000/svg" width="440" height="363" viewBox="0 0 440 363" version="1.1">
	<path d="M 307.500 0.981 C 297.857 2.471, 284.073 7.382, 261.051 17.529 L 252.602 21.253 241.051 20.074 C 213.731 17.285, 208.159 17.067, 187.568 17.978 C 159.801 19.206, 148.078 21.506, 115 32.213 C 99.364 37.274, 81.793 46.065, 72.500 53.476 C 70.300 55.231, 65.180 58.595, 61.123 60.951 C 43.160 71.386, 25.093 97.010, 23.274 114.631 L 22.722 119.986 13.282 126.195 C 3.072 132.911, 1.599 134.811, 0.542 142.618 C -0.109 147.420, 0.023 147.874, 2.674 149.974 C 6.676 153.145, 13.802 152.289, 26.854 147.072 C 41.679 141.146, 54.375 138.186, 70.500 136.895 C 79.727 136.157, 86.375 135.079, 90 133.734 C 93.709 132.358, 99.409 131.457, 107.500 130.969 C 114.100 130.570, 120.793 129.729, 122.373 129.100 C 125.524 127.846, 132 128.617, 132 130.246 C 132 130.809, 136.146 135.498, 141.214 140.665 C 147.644 147.222, 152.856 151.461, 158.464 154.694 C 162.884 157.242, 167.625 160.314, 169 161.521 C 178.537 169.887, 199.049 180.316, 212.266 183.518 C 229.447 187.681, 247 186.486, 247 181.155 C 247 178.695, 241.380 173.711, 235.787 171.209 C 233.429 170.155, 229.258 167.426, 226.518 165.146 C 223.778 162.866, 221.190 161, 220.766 161 C 219.484 161, 210.761 148.580, 211.800 148.233 C 212.331 148.056, 218.250 149.296, 224.953 150.988 C 231.655 152.680, 242.396 155.182, 248.820 156.548 C 255.244 157.914, 261.400 159.435, 262.500 159.927 C 263.600 160.419, 267.425 161.358, 271 162.012 C 288.960 165.299, 328.700 180.845, 335.751 187.341 C 342.341 193.413, 350.677 208.403, 359.473 230 C 362.049 236.325, 364.986 242.850, 365.999 244.500 C 368.277 248.211, 371.911 262.192, 372.249 268.548 L 372.500 273.273 361.500 276.986 C 347.030 281.871, 340.733 285.171, 335.077 290.833 C 329.667 296.248, 326.281 302.671, 325.383 309.220 C 324.567 315.175, 325.738 322.962, 327.555 323.660 C 328.334 323.958, 330.426 322.978, 332.206 321.480 C 335.388 318.803, 335.597 318.770, 344.970 319.455 C 350.212 319.838, 355.850 320.781, 357.500 321.551 C 359.150 322.321, 362.075 323.160, 364 323.415 C 365.925 323.670, 369.594 324.186, 372.154 324.562 C 376.526 325.204, 376.895 325.078, 378.255 322.483 L 379.702 319.721 381.601 323.611 C 383.094 326.668, 384.997 328.299, 390.500 331.236 C 394.350 333.291, 399.712 335.651, 402.416 336.481 C 405.120 337.312, 408.045 338.578, 408.916 339.294 C 409.787 340.011, 412.975 341.675, 416 342.992 C 422.637 345.881, 428.075 350.701, 432.652 357.750 C 434.527 360.638, 436.482 363, 436.996 363 C 440.201 363, 440.998 351.287, 438.461 341.460 C 434.574 326.402, 428.241 316.852, 408.133 295.726 C 399.876 287.050, 392.844 279.083, 392.507 278.021 C 392.170 276.959, 393.447 268.308, 395.345 258.795 C 401.159 229.657, 401.071 214.463, 394.947 190.500 C 393.260 183.900, 390.382 171.075, 388.550 162 C 386.719 152.925, 383.831 141.899, 382.133 137.498 C 379.272 130.082, 371.827 116.116, 366.683 108.517 C 365.482 106.743, 363.167 103.314, 361.539 100.896 C 356.021 92.706, 348.549 83.552, 333.311 66.316 C 324.956 56.865, 317.328 47.640, 316.359 45.816 C 314.098 41.557, 314.119 32.595, 316.405 26.609 C 318.109 22.148, 323.870 16, 326.346 16 C 328.528 16, 332 12.039, 332 9.550 C 332 6.713, 327.241 2.398, 323.274 1.638 C 317.062 0.449, 312.241 0.248, 307.500 0.981" stroke="none" fill="black" fill-rule="evenodd"/>
</svg>