<?xml version="1.0" encoding="UTF-8" standalone="no"?>
<!DOCTYPE svg PUBLIC "-//W3C//DTD SVG 20010904//EN" "http://www.w3.org/TR/2001/REC-SVG-20010904/DTD/svg10.dtd">
<svg version="1.0" xmlns="http://www.w3.org/2000/svg" width="2245.000000pt" height="2727.000000pt" viewBox="0 0 2245.000000 2727.000000" preserveAspectRatio="xMidYMid meet">
<metadata>
Created by potrace 1.16, written by Peter Selinger 2001-2019
</metadata>
<g transform="translate(0.000000,2727.000000) scale(0.100000,-0.100000)" fill="#000000" stroke="none">
<path d="M21040 27249 c-116 -52 -298 -91 -515 -109 -243 -21 -437 -63 -609 -134 -45 -18 -128 -48 -186 -66 -268 -82 -544 -273 -857 -593 -168 -172 -188 -208 -238 -423 -19 -84 -35 -165 -35 -181 0 -54 -30 -132 -64 -166 -18 -18 -63 -47 -99 -65 -37 -17 -136 -77 -219 -133 -255 -170 -523 -289 -652 -289 -23 0 -72 -7 -111 -16 -105 -22 -258 -29 -371 -15 -114 15 -326 67 -564 140 -227 69 -281 92 -354 151 -36 27 -97 66 -138 85 -40 19 -93 50 -118 69 -25 19 -97 62 -160 97 -63 34 -176 101 -250 148 -74 46 -173 102 -220 124 -47 21 -159 76 -250 122 -189 95 -324 154 -503 219 -157 57 -508 162 -590 176 -34 6 -109 22 -167 35 -200 45 -646 62 -950 36 -293 -26 -570 -98 -935 -243 -199 -80 -342 -149 -505 -247 -278 -167 -664 -482 -776 -633 -20 -26 -53 -58 -75 -70 -26 -14 -52 -42 -74 -78 -18 -30 -72 -98 -120 -150 -48 -52 -98 -115 -112 -140 -15 -25 -57 -95 -94 -156 -111 -183 -189 -351 -189 -409 0 -17 -13 -50 -31 -75 -71 -105 -120 -226 -139 -342 -5 -37 -23 -91 -39 -121 -17 -32 -34 -86 -40 -128 -7 -41 -17 -96 -24 -124 -6 -27 -10 -71 -8 -96 2 -32 -7 -75 -28 -135 -33 -98 -57 -278 -52 -400 1 -52 -3 -84 -19 -123 -24 -62 -25 -83 -4 -137 14 -37 14 -48 1 -100 -12 -47 -13 -93 -8 -224 4 -91 12 -174 18 -185 6 -11 13 -76 16 -145 6 -141 47 -335 138 -653 91 -322 129 -416 332 -827 121 -243 185 -350 341 -565 210 -289 235 -321 318 -402 46 -44 107 -109 137 -144 29 -35 101 -107 160 -159 58 -52 151 -138 206 -191 55 -52 129 -115 165 -139 36 -24 131 -97 212 -161 150 -120 238 -183 295 -213 18 -9 60 -40 93 -70 33 -30 96 -73 141 -96 44 -23 117 -67 162 -97 45 -31 107 -73 137 -93 30 -21 107 -64 170 -95 63 -32 132 -73 152 -91 43 -38 103 -70 214 -115 43 -16 94 -43 113 -58 51 -40 150 -100 266 -159 55 -28 151 -90 213 -137 62 -47 144 -106 182 -131 38 -24 82 -61 97 -81 15 -19 58 -60 95 -89 68 -55 190 -196 293 -339 121 -169 185 -348 185 -521 0 -81 -3 -97 -31 -152 -38 -76 -90 -122 -194 -172 -101 -48 -185 -69 -300 -76 -121 -7 -244 24 -412 105 -252 122 -436 247 -520 352 -84 107 -106 131 -145 155 -21 14 -58 55 -84 95 -26 39 -53 73 -61 76 -7 3 -23 -3 -33 -12 -11 -10 -22 -16 -24 -14 -2 2 -22 38 -45 79 -23 41 -75 108 -114 150 -40 41 -101 116 -136 165 -36 50 -92 126 -126 170 -34 44 -84 118 -112 165 -27 47 -84 138 -126 203 -43 64 -111 170 -153 235 -42 64 -92 135 -110 157 -18 22 -42 64 -53 93 -12 30 -52 102 -90 160 -37 59 -80 130 -95 157 -14 28 -51 81 -82 119 -30 38 -67 92 -81 120 -39 78 -109 183 -168 253 -29 34 -104 133 -166 220 -67 94 -158 205 -224 273 -61 63 -151 162 -201 220 -107 123 -162 176 -264 252 -41 30 -131 108 -200 173 -158 148 -234 206 -336 255 -52 25 -119 71 -190 130 -136 114 -229 177 -308 207 -81 31 -106 45 -229 129 -57 39 -171 104 -253 144 -82 39 -197 103 -255 140 -92 60 -227 120 -270 120 -7 0 -34 14 -60 30 -27 18 -70 34 -102 40 -31 5 -70 16 -88 26 -20 10 -53 16 -86 15 -50 -1 -54 1 -102 49 -58 58 -84 70 -150 70 -30 0 -53 6 -60 14 -23 27 -78 45 -206 66 -72 12 -178 37 -236 55 -173 54 -257 68 -429 69 -141 1 -162 3 -235 28 -150 51 -243 58 -428 31 -108 -16 -122 -16 -180 -1 -53 14 -94 15 -287 8 -124 -5 -236 -11 -250 -14 -14 -3 -108 -13 -209 -21 -190 -15 -423 -56 -476 -83 -16 -8 -68 -19 -115 -22 -63 -6 -103 -16 -154 -39 -38 -17 -85 -31 -105 -31 -82 0 -184 -39 -261 -100 -16 -12 -74 -30 -155 -46 -107 -22 -143 -35 -205 -70 -41 -24 -115 -60 -165 -80 -64 -26 -98 -46 -118 -70 -21 -25 -45 -38 -95 -53 -37 -11 -89 -35 -116 -53 -27 -18 -61 -41 -75 -50 -14 -10 -34 -18 -44 -18 -26 0 -73 -26 -149 -82 -48 -36 -68 -57 -70 -76 -3 -22 -13 -29 -71 -48 -86 -29 -180 -86 -195 -118 -8 -17 -34 -36 -78 -56 -85 -38 -142 -85 -188 -154 -26 -39 -47 -58 -76 -70 -23 -9 -105 -74 -193 -152 -183 -164 -187 -169 -187 -204 0 -23 -10 -33 -65 -66 -75 -43 -148 -117 -190 -189 -16 -27 -56 -79 -90 -115 -34 -36 -78 -92 -99 -124 -21 -33 -76 -106 -122 -163 -46 -57 -93 -120 -103 -141 -11 -20 -40 -61 -66 -91 -66 -77 -90 -127 -76 -158 11 -23 6 -31 -52 -92 -42 -45 -79 -99 -111 -162 -27 -51 -63 -110 -79 -129 -43 -49 -77 -129 -92 -215 -10 -57 -22 -88 -53 -135 -38 -57 -82 -155 -82 -183 0 -7 -16 -40 -36 -73 -50 -83 -74 -151 -74 -211 0 -44 -8 -68 -49 -145 -28 -51 -60 -129 -72 -173 -12 -44 -39 -127 -60 -185 -50 -138 -61 -186 -54 -219 4 -19 -2 -43 -20 -77 -18 -35 -29 -76 -35 -135 -4 -46 -18 -122 -31 -169 -17 -66 -22 -110 -21 -196 1 -73 -5 -149 -18 -220 -14 -77 -18 -130 -13 -180 6 -69 5 -72 -21 -89 -26 -17 -26 -19 -26 -134 l0 -116 30 -17 c38 -22 46 -42 32 -82 -6 -17 -16 -62 -21 -100 -6 -40 -17 -76 -28 -88 -17 -19 -17 -21 0 -50 13 -23 17 -54 17 -141 0 -121 21 -277 45 -334 19 -45 19 -62 -1 -101 -14 -29 -14 -38 10 -134 14 -57 37 -175 51 -263 30 -178 92 -408 153 -561 22 -55 56 -159 76 -230 43 -159 57 -197 141 -363 36 -72 83 -176 105 -232 51 -127 73 -170 159 -311 38 -63 99 -174 136 -248 37 -74 102 -189 144 -255 43 -66 108 -172 146 -235 263 -440 571 -812 1075 -1298 241 -233 334 -316 469 -415 53 -39 148 -109 211 -157 180 -136 273 -198 342 -229 35 -16 83 -45 108 -64 73 -56 175 -115 332 -193 81 -40 176 -93 210 -117 79 -56 134 -84 290 -146 68 -27 194 -82 279 -121 205 -96 347 -153 444 -180 44 -12 111 -38 148 -57 69 -34 228 -84 414 -129 56 -14 127 -36 158 -49 73 -33 179 -60 353 -91 78 -14 162 -33 186 -43 69 -30 201 -59 366 -81 85 -11 186 -29 224 -40 38 -11 148 -27 245 -36 97 -8 208 -22 246 -30 156 -33 228 -43 390 -54 94 -6 199 -17 235 -25 87 -19 263 -35 384 -35 68 0 125 -7 185 -22 69 -17 111 -21 218 -20 99 2 157 -3 235 -19 71 -14 168 -23 313 -29 116 -4 226 -13 245 -20 19 -7 112 -16 205 -20 110 -6 217 -18 304 -34 73 -14 161 -26 195 -26 35 0 87 -4 117 -10 30 -5 143 -19 252 -30 109 -11 243 -29 298 -40 70 -14 142 -20 235 -20 92 0 159 -6 212 -17 46 -11 109 -17 157 -16 44 1 139 -4 212 -12 73 -8 166 -15 207 -15 52 0 99 -8 153 -25 114 -35 202 -55 253 -55 31 0 68 -11 115 -34 102 -49 165 -66 228 -59 45 5 59 2 83 -16 37 -27 198 -81 241 -81 22 0 63 -16 115 -47 64 -37 92 -47 129 -48 38 -1 54 -7 85 -34 21 -19 72 -49 113 -68 42 -19 96 -44 121 -55 56 -25 264 -177 374 -274 316 -276 494 -643 556 -1147 19 -153 8 -417 -23 -547 -41 -172 -135 -434 -219 -609 -39 -83 -168 -252 -278 -366 -48 -50 -95 -110 -105 -133 -11 -25 -33 -51 -52 -63 -18 -11 -61 -57 -95 -102 -84 -108 -189 -197 -369 -312 -83 -52 -172 -113 -198 -135 -43 -36 -57 -42 -137 -55 -49 -8 -125 -17 -169 -20 -44 -4 -120 -16 -170 -28 -118 -28 -310 -27 -452 3 -114 23 -416 126 -518 177 -159 79 -361 201 -419 253 -33 31 -96 77 -138 103 -42 26 -116 85 -165 130 -48 45 -113 102 -143 126 -30 24 -86 74 -125 112 -260 254 -485 478 -506 504 -13 17 -57 57 -97 89 -41 32 -95 86 -120 119 -74 96 -113 137 -172 180 -30 22 -111 97 -180 167 -83 84 -154 145 -210 182 -47 30 -125 92 -174 137 -48 45 -138 115 -200 156 -61 41 -155 115 -208 163 -82 74 -107 91 -159 106 -42 13 -105 49 -200 112 -112 76 -150 96 -203 108 -36 9 -123 41 -193 72 -167 74 -227 94 -280 94 -24 0 -69 11 -101 24 -79 33 -169 55 -271 67 -47 5 -142 21 -211 36 -102 23 -148 28 -250 27 -208 -2 -368 -40 -580 -139 -64 -30 -143 -59 -177 -65 -82 -14 -118 -30 -238 -104 -55 -35 -116 -69 -135 -76 -58 -22 -189 -89 -300 -153 -58 -33 -164 -89 -237 -124 -76 -37 -155 -83 -185 -108 -28 -25 -57 -45 -62 -45 -6 0 -34 -11 -62 -24 -37 -17 -100 -71 -220 -188 -93 -90 -203 -187 -244 -215 -116 -78 -198 -151 -234 -208 -19 -28 -78 -91 -132 -138 -119 -104 -146 -134 -350 -397 -205 -263 -257 -332 -391 -520 -61 -85 -138 -185 -172 -221 -55 -61 -125 -170 -187 -292 -32 -62 -52 -141 -63 -254 -10 -98 -30 -149 -86 -218 -66 -82 -75 -117 -63 -249 3 -28 0 -31 -62 -52 -100 -35 -159 -115 -138 -189 13 -48 2 -62 -67 -85 -74 -25 -122 -70 -150 -143 -14 -38 -15 -51 -5 -81 16 -49 6 -61 -81 -104 -94 -47 -114 -77 -114 -177 0 -76 -7 -95 -33 -95 -43 0 -100 -25 -134 -60 -33 -33 -38 -44 -38 -84 0 -57 -26 -88 -91 -108 -27 -7 -61 -29 -86 -55 -40 -40 -43 -46 -43 -97 0 -58 -14 -76 -58 -76 -10 0 -39 -14 -64 -30 -57 -38 -83 -87 -74 -141 6 -36 4 -39 -21 -45 -115 -25 -186 -74 -212 -145 -15 -40 -24 -47 -104 -89 -78 -40 -91 -51 -120 -99 -26 -45 -44 -61 -101 -92 -37 -20 -96 -64 -130 -96 -74 -72 -127 -113 -182 -141 -22 -11 -53 -37 -68 -57 -16 -20 -74 -67 -129 -103 -74 -49 -124 -92 -185 -161 l-85 -93 6 -87 c14 -186 72 -288 188 -326 85 -29 134 -24 220 23 41 22 112 52 159 66 92 27 147 58 225 126 28 24 70 52 95 63 66 29 170 99 210 142 20 21 67 52 107 71 78 35 160 105 218 184 19 25 46 52 62 60 68 34 113 73 149 127 21 31 116 141 212 243 209 222 319 354 432 520 92 135 211 267 288 320 59 40 85 77 111 155 21 62 36 79 116 129 59 37 101 101 116 180 11 56 18 66 80 128 54 53 71 77 83 119 9 29 16 60 16 69 0 20 33 52 75 73 30 15 83 69 178 180 35 41 65 64 115 87 37 17 85 40 107 51 75 36 284 228 414 379 116 135 512 582 784 884 64 72 134 158 155 191 20 33 76 98 123 145 47 47 111 117 143 157 44 55 72 79 114 100 53 26 66 28 177 28 113 0 123 -2 175 -29 91 -48 259 -224 310 -326 14 -27 100 -123 221 -247 110 -111 199 -206 199 -211 0 -5 43 -55 96 -113 53 -57 120 -141 150 -187 30 -45 58 -82 63 -82 18 0 82 -74 112 -131 21 -38 55 -81 92 -113 38 -33 74 -79 104 -131 25 -44 76 -111 113 -150 40 -41 83 -100 106 -144 26 -50 64 -100 114 -150 51 -52 91 -104 124 -164 36 -66 66 -104 121 -154 54 -49 85 -87 120 -151 52 -93 115 -168 181 -213 24 -16 63 -60 90 -101 62 -95 120 -162 168 -195 21 -15 86 -90 143 -166 58 -76 126 -155 152 -175 25 -20 75 -68 111 -106 163 -173 239 -243 305 -281 39 -22 108 -76 155 -120 100 -95 146 -130 220 -173 30 -17 111 -72 180 -121 69 -50 168 -113 220 -142 52 -28 154 -87 226 -130 174 -103 256 -143 529 -261 489 -212 979 -345 1521 -413 105 -13 211 -29 235 -35 47 -12 255 -9 564 8 206 12 233 15 640 83 361 61 513 98 716 178 85 33 205 76 268 95 76 24 160 61 250 110 75 40 154 79 176 86 68 21 208 99 299 166 47 35 130 86 184 113 105 53 174 100 352 241 63 50 140 105 170 122 55 32 404 349 512 467 32 34 89 105 127 159 37 53 114 146 169 205 56 60 132 154 170 210 39 56 102 138 142 182 100 112 168 204 248 336 38 63 96 157 129 209 33 52 75 129 92 170 17 41 58 125 92 185 94 169 134 252 164 345 15 47 54 147 87 223 32 76 74 200 94 275 33 130 59 223 118 424 13 47 30 133 36 190 6 56 23 155 36 218 40 185 52 258 59 375 3 61 16 184 27 275 21 176 21 169 -13 685 -11 164 -30 313 -53 403 -8 31 -17 102 -21 157 -4 66 -18 140 -40 220 -19 66 -46 181 -61 255 -14 74 -53 223 -86 330 -32 107 -78 256 -100 330 -23 74 -58 169 -78 210 -21 41 -61 140 -90 220 -69 192 -117 294 -184 389 -31 43 -78 132 -106 196 -57 134 -123 239 -234 374 -80 98 -118 162 -131 219 -8 40 -196 248 -303 336 -54 44 -72 64 -72 83 0 14 -7 40 -15 58 -24 50 -224 227 -361 318 -40 27 -64 62 -64 93 0 31 -146 144 -320 249 -90 54 -114 74 -131 106 -24 48 -161 142 -352 240 -98 51 -126 71 -150 106 -37 52 -117 95 -327 176 -166 65 -185 76 -204 122 -14 32 -19 35 -247 110 -203 67 -239 82 -278 116 -48 42 -69 50 -291 103 -111 27 -171 48 -255 90 -104 51 -116 55 -221 65 -85 8 -148 22 -274 61 -122 39 -213 59 -355 81 -104 17 -224 41 -265 54 -142 47 -249 65 -410 71 -115 5 -179 12 -248 30 -118 30 -249 39 -377 25 -98 -10 -101 -10 -154 16 -51 25 -65 27 -260 34 -151 5 -218 11 -250 23 -51 19 -152 21 -253 5 -68 -10 -73 -10 -123 16 -66 33 -145 42 -216 24 -69 -16 -182 -15 -284 4 -51 10 -111 14 -165 10 -59 -3 -126 2 -219 16 -74 12 -180 21 -236 21 -72 0 -122 6 -166 19 -107 32 -119 33 -265 32 -114 -1 -153 2 -205 18 -102 31 -134 34 -232 21 l-92 -12 -60 32 -60 31 -155 -7 -155 -7 -53 28 c-52 27 -55 28 -176 21 -123 -7 -124 -7 -177 21 -51 26 -61 28 -184 28 -122 1 -133 2 -179 28 -36 20 -63 27 -101 27 -111 0 -262 41 -315 85 -24 20 -76 34 -168 45 -94 12 -108 18 -168 67 -40 32 -90 53 -216 87 -38 11 -78 33 -120 66 -48 39 -82 57 -148 77 -109 33 -135 47 -188 95 -47 43 -140 90 -216 109 -46 11 -86 47 -86 76 0 16 -68 48 -175 83 -58 19 -79 33 -125 80 -44 46 -69 62 -130 85 -88 33 -108 48 -112 83 -2 22 -16 33 -73 62 -38 19 -116 65 -172 103 -85 56 -122 90 -219 200 -65 72 -157 173 -205 222 -90 92 -109 123 -109 177 0 23 -11 41 -42 72 -24 23 -53 49 -65 57 -12 8 -41 48 -66 89 -24 41 -68 113 -97 160 -83 133 -102 181 -111 284 -4 55 -17 119 -32 161 -14 39 -33 122 -41 185 -8 63 -23 162 -32 220 -17 114 -14 210 11 279 8 23 24 92 35 154 21 109 47 185 74 217 7 8 21 51 31 95 18 85 112 344 149 410 80 143 175 299 214 349 168 219 460 441 797 607 159 79 201 95 336 129 255 63 346 73 624 66 353 -8 457 -24 732 -107 250 -76 402 -133 578 -218 190 -92 227 -115 450 -279 263 -194 304 -230 550 -477 189 -189 259 -268 395 -443 176 -227 281 -375 362 -512 28 -47 99 -155 158 -240 59 -85 129 -193 155 -240 49 -87 92 -153 196 -300 33 -47 108 -159 166 -250 104 -163 340 -501 497 -715 85 -114 423 -473 573 -607 48 -43 118 -99 155 -125 38 -27 121 -89 185 -140 266 -210 816 -502 1188 -629 155 -54 636 -177 790 -204 191 -32 412 -43 769 -37 378 6 411 10 756 91 276 65 315 76 537 160 180 68 260 106 471 223 352 194 775 533 964 772 34 42 69 82 78 88 33 23 118 138 177 239 33 54 97 155 142 223 141 210 350 716 351 849 0 13 16 74 35 135 84 271 132 681 122 1037 -7 233 -22 362 -83 700 -40 225 -53 275 -106 420 -126 347 -191 487 -323 695 -45 72 -104 168 -131 214 -29 49 -88 125 -143 185 -52 55 -106 120 -121 144 -30 46 -294 302 -425 412 -176 147 -534 400 -700 494 -56 32 -126 79 -158 106 -42 36 -77 55 -139 76 -95 31 -189 78 -268 133 -30 21 -107 58 -170 81 -136 51 -177 70 -217 104 -17 14 -82 45 -145 69 -70 26 -148 65 -199 99 -100 66 -126 80 -199 103 -94 30 -153 57 -217 101 -35 23 -87 50 -115 60 -85 27 -176 71 -228 109 -27 20 -74 44 -105 55 -64 22 -169 80 -400 223 -189 117 -232 148 -385 282 -186 164 -275 265 -408 464 -143 212 -196 314 -256 489 -51 148 -72 248 -81 382 -4 52 -13 131 -21 175 -18 104 -18 273 1 372 40 207 184 508 334 696 124 157 455 386 654 453 311 106 472 125 816 100 429 -31 559 -65 1087 -285 132 -54 329 -140 439 -191 452 -208 754 -314 1099 -385 194 -40 330 -49 711 -49 190 1 459 31 665 76 261 56 559 160 750 261 47 25 148 70 225 100 77 30 232 94 345 143 l205 89 90 0 c83 0 97 -3 185 -41 245 -106 353 -115 645 -55 357 74 559 139 730 232 182 100 477 329 616 478 38 40 123 144 189 231 73 96 146 182 187 217 135 116 161 149 230 293 36 74 114 226 175 338 157 288 197 403 198 558 0 53 7 90 31 155 37 101 49 246 29 344 -11 55 -19 66 -89 136 -114 113 -203 149 -371 149 -43 0 -114 7 -157 16 -83 17 -316 33 -578 39 -144 4 -164 2 -205 -16z"/>
</g>
</svg>