<?xml version="1.0" encoding="UTF-8"?>
<svg id="_图层_1" data-name="图层 1" xmlns="http://www.w3.org/2000/svg" viewBox="0 0 423 360">
  <defs>
    <style>
      .cls-1 {
        fill: #fff;
      }
    </style>
  </defs>
  <path class="cls-1" d="m0,0C141,0,282,0,423,0c0,120,0,240,0,360-141,0-282,0-423,0C0,240,0,120,0,0Zm367.28,100.53c-2.84,2.9-5.58,5.69-8.32,8.47-4.65,4.71-9.28,9.45-14.01,14.09-.88.86-2.12,1.61-3.3,1.85-5.28,1.06-9.96,3.44-14.52,6.15-8.52,5.09-16.16,11.32-23.5,17.95-3.08,2.78-6.57,4.71-10.63,5.45-8.37,1.52-16.79,1.22-25.1-.16-9.76-1.61-19.45-3.71-29.14-5.73-11.89-2.47-23.75-5.09-35.77-6.88-13.02-1.94-26.06-3.57-39.19-4.56-12.86-.97-25.72-1.34-38.58-.37-3.92.3-7.81,1.09-11.7,1.76-3.51.61-6.97,1.65-10.51,2.01-9.31.95-17.48-1.96-23.89-8.71-7.75-8.16-14.09-17.34-18.53-27.8-6.87-16.17-8.94-32.71-4.62-49.9,1.63-6.48,4.06-12.48,9.08-17.17,6.04-5.65,12.84-7.36,20.69-4.36,3.31,1.26,6.28,3.05,8.96,5.34,1.69,1.45,3.67,2.29,5.83,2.69,2.6.48,4.57-.7,4.86-3.19.23-2,.27-4.1-.09-6.07-.91-5.02-4-8.83-7.62-12.17-4.83-4.45-10.76-6.99-16.82-9.3-9.96-3.79-19.2-2.17-27.95,3.47-8,5.16-13.59,12.42-17.96,20.72-6.03,11.47-8.58,23.83-8.91,36.67-.21,8.26.58,16.5,2.67,24.52,3.64,13.96,8.55,27.47,15.49,40.17,3.82,6.99,8.35,13.43,14.48,18.64.53.45.97,1.04,1.31,1.65,2.75,4.95,3.16,10.29,2.36,15.76-.85,5.82-3.08,11.19-5.72,16.42-1.14,2.25-2.16,4.6-2.87,7.02-1.75,6.05-2.07,12.27-1.98,18.55.15,9.63-2.35,18.5-8.73,25.9-3.07,3.55-6.51,6.8-9.94,10.02-6.37,5.96-11.34,12.89-14.36,21.07-3.32,9.01-6.42,18.1-9.51,27.19-2.28,6.69-4.46,13.43-5.37,20.48-.44,3.43-.65,7.01,1.75,9.8,1.87,2.17,4.18,4.07,6.58,5.65,2.52,1.65,4.92.95,6.54-1.64.97-1.56,1.8-3.33,2.19-5.12,1.15-5.24,2-10.54,3.07-15.8,1.48-7.24,3.5-14.3,7.1-20.82,3.83-6.95,9.23-12.14,16.67-15.12,4.92-1.97,10-3.39,15.19-4.4,3.71-.73,7.44-1.4,11.17-2.07,4.5-.81,8.65-2.63,12.86-4.31,2.32-.92,3.62.12,3.54,2.61-.13,4.2-1.77,7.96-3.64,11.57-4.63,8.95-5.01,18.18-2,27.62,2.6,8.16,7.21,15.21,13.07,21.34,4.62,4.84,9.58,9.39,14.68,13.73,4.32,3.67,9.18,6.64,14.76,8.13,6.12,1.64,11.95,1.04,17.43-2.29,1.2-.73,2.02-1.69,2.42-3.04.83-2.86-.54-5.53-3.67-7.07-2.88-1.42-5.96-2.2-9.14-2.29-2.72-.07-4.91-1.04-6.88-2.77-.41-.36-.87-.65-1.28-1-4.77-4.03-9.08-8.41-11.87-14.14-1.98-4.07-1.65-7.94.2-11.88,1.71-3.64,4.31-6.63,7.1-9.43,5.95-5.98,11.08-12.55,14.79-20.15,1.38-2.84,2.51-5.79,3.72-8.72,1.56-3.8,4.19-6.44,8.3-7.19,1.9-.35,3.93-.46,5.83-.18,4.36.63,8.67.97,13.04.15,7.73-1.44,15.46-2.88,23.2-4.21,4.44-.76,8.95-1.44,13.41-.58,3.66.71,7.26,1.8,10.82,2.92,4.4,1.39,8.73,2.99,13.09,4.49.62.21,1.16.44,1.04,1.29-.14.95-.17,1.91-.3,2.85-.96,6.84-1.84,13.69-2.95,20.51-1.19,7.31-2.66,14.57-5.69,21.4-.35.79-.61,1.65-.77,2.5-.77,3.96-1.63,7.9-2.19,11.89-.69,4.98-.66,9.97.91,14.84,1.71,5.31,5.44,8.04,10.89,7.58,3.84-.32,7.67-.96,11.46-1.7,1.59-.31,3.14-1.12,4.55-1.97,1.39-.84,2.53-2.16,2.02-3.94-1.53-5.34-4.45-8.28-10.05-7.92-2.24.14-2.49-.18-2.3-2.47.02-.29.04-.59.13-.86.91-2.8,1.65-5.68,2.79-8.39,5.75-13.68,12.82-26.7,20.32-39.48,5.22-8.89,13.47-13.37,23.59-14.34,6.34-.6,12.42.78,18.29,3.13,3.13,1.25,6.34,2.39,8.85,4.75,4.84,4.54,9.4,9.32,13.13,14.86,1.03,1.53,2.3,3,3.73,4.16,11.85,9.65,23.76,19.24,35.68,28.8,6.79,5.45,13.71,10.73,20.44,16.25,3.19,2.61,6.7,4.48,10.57,5.72,6.69,2.15,13.58,2.45,20.51,1.97,2.37-.16,4.66-.92,6.68-2.25,1.73-1.15,2.26-2.64,1.81-4.63-.72-3.2-3.05-4.72-5.86-5.75-3.05-1.12-6.26-1.46-9.47-1.38-3.84.1-7.03-1.4-10.04-3.54-4.67-3.31-8.41-7.56-11.99-11.96-8.36-10.28-15.22-21.55-21.68-33.06-2.36-4.2-4.56-8.52-6.45-12.95-2.34-5.49-2.79-11.45-3.39-17.33-1.28-12.64-1.35-25.28.55-37.88.97-6.44,2.47-12.75,5.47-18.59,1.86-3.62,4.09-6.98,7.7-9.15,3.62-2.17,7.39-4,11.5-5.05,3.15-.81,6.32-1.46,9.61-.66,1.03.25,2.16.26,3.22.17,3.94-.32,6.81-2.42,9.01-5.59,2.38-3.42,3.4-7.38,4.48-11.31.31-1.12.5-2.28.67-3.43.42-2.89-.28-5.39-2.76-7.16-3.22-2.3-5.57-5.36-7.61-8.68-1.65-2.7-3.1-5.52-4.86-8.14-1.19-1.77-2.6-3.48-4.21-4.86-3.73-3.17-8.14-5.16-12.8-6.56-1.22-.37-1.64-.98-1.72-2.18-.26-3.95.33-7.81,1.17-11.64.37-1.68.77-3.36,1.2-5.25-1.33.41-2.42.73-3.51,1.08-.67.22-1,.04-1.12-.69-.26-1.47-.59-2.92-.91-4.46Z"/>
  <path d="m367.28,100.53c.32,1.54.65,2.99.91,4.46.13.72.46.9,1.12.69,1.09-.35,2.19-.68,3.51-1.08-.43,1.89-.83,3.56-1.2,5.25-.84,3.83-1.42,7.69-1.17,11.64.08,1.2.5,1.82,1.72,2.18,4.66,1.41,9.07,3.39,12.8,6.56,1.62,1.38,3.02,3.09,4.21,4.86,1.76,2.62,3.21,5.45,4.86,8.14,2.03,3.32,4.39,6.38,7.61,8.68,2.48,1.77,3.18,4.27,2.76,7.16-.17,1.15-.37,2.31-.67,3.43-1.07,3.93-2.09,7.89-4.48,11.31-2.2,3.17-5.08,5.27-9.01,5.59-1.07.09-2.19.08-3.22-.17-3.29-.8-6.46-.15-9.61.66-4.1,1.05-7.88,2.88-11.5,5.05-3.61,2.17-5.84,5.53-7.7,9.15-3,5.84-4.5,12.15-5.47,18.59-1.9,12.6-1.83,25.24-.55,37.88.59,5.88,1.04,11.83,3.39,17.33,1.89,4.43,4.09,8.75,6.45,12.95,6.47,11.51,13.32,22.78,21.68,33.06,3.58,4.41,7.32,8.65,11.99,11.96,3.02,2.14,6.2,3.64,10.04,3.54,3.21-.08,6.41.26,9.47,1.38,2.81,1.03,5.14,2.56,5.86,5.75.45,1.99-.08,3.49-1.81,4.63-2.02,1.34-4.31,2.09-6.68,2.25-6.93.48-13.82.18-20.51-1.97-3.87-1.24-7.38-3.11-10.57-5.72-6.73-5.51-13.65-10.8-20.44-16.25-11.92-9.56-23.82-19.15-35.68-28.8-1.43-1.16-2.7-2.63-3.73-4.16-3.73-5.53-8.29-10.32-13.13-14.86-2.52-2.36-5.73-3.5-8.85-4.75-5.87-2.34-11.96-3.73-18.29-3.13-10.13.96-18.38,5.44-23.59,14.34-7.5,12.78-14.57,25.8-20.32,39.48-1.14,2.71-1.88,5.59-2.79,8.39-.09.27-.11.57-.13.86-.19,2.28.06,2.61,2.3,2.47,5.6-.36,8.53,2.59,10.05,7.92.51,1.78-.63,3.1-2.02,3.94-1.41.85-2.96,1.66-4.55,1.97-3.79.74-7.62,1.38-11.46,1.7-5.45.46-9.18-2.27-10.89-7.58-1.57-4.87-1.6-9.86-.91-14.84.55-3.99,1.42-7.94,2.19-11.89.17-.85.42-1.71.77-2.5,3.03-6.83,4.5-14.09,5.69-21.4,1.11-6.82,1.98-13.67,2.95-20.51.13-.95.16-1.91.3-2.85.13-.85-.42-1.08-1.04-1.29-4.36-1.5-8.69-3.1-13.09-4.49-3.56-1.12-7.16-2.21-10.82-2.92-4.47-.86-8.98-.18-13.41.58-7.75,1.33-15.48,2.77-23.2,4.21-4.37.81-8.68.47-13.04-.15-1.9-.27-3.93-.16-5.83.18-4.11.75-6.73,3.39-8.3,7.19-1.2,2.92-2.34,5.88-3.72,8.72-3.71,7.6-8.84,14.17-14.79,20.15-2.79,2.8-5.39,5.79-7.1,9.43-1.84,3.94-2.17,7.8-.2,11.88,2.79,5.74,7.1,10.11,11.87,14.14.41.35.87.64,1.28,1,1.97,1.73,4.16,2.7,6.88,2.77,3.17.08,6.26.87,9.14,2.29,3.13,1.54,4.51,4.21,3.67,7.07-.39,1.35-1.22,2.32-2.42,3.04-5.48,3.32-11.31,3.92-17.43,2.29-5.58-1.49-10.44-4.46-14.76-8.13-5.1-4.34-10.06-8.89-14.68-13.73-5.86-6.13-10.47-13.18-13.07-21.34-3.01-9.43-2.63-18.66,2-27.62,1.87-3.62,3.51-7.37,3.64-11.57.08-2.5-1.22-3.53-3.54-2.61-4.21,1.67-8.36,3.5-12.86,4.31-3.73.67-7.45,1.34-11.17,2.07-5.19,1.02-10.27,2.43-15.19,4.4-7.44,2.98-12.84,8.17-16.67,15.12-3.6,6.52-5.63,13.58-7.1,20.82-1.07,5.26-1.92,10.56-3.07,15.8-.39,1.79-1.22,3.56-2.19,5.12-1.61,2.59-4.02,3.29-6.54,1.64-2.41-1.58-4.71-3.48-6.58-5.65-2.39-2.78-2.19-6.37-1.75-9.8.91-7.05,3.09-13.79,5.37-20.48,3.09-9.09,6.19-18.18,9.51-27.19,3.02-8.18,7.98-15.11,14.36-21.07,3.43-3.21,6.88-6.46,9.94-10.02,6.38-7.4,8.88-16.27,8.73-25.9-.1-6.28.22-12.5,1.98-18.55.7-2.42,1.73-4.77,2.87-7.02,2.65-5.23,4.87-10.59,5.72-16.42.8-5.46.38-10.8-2.36-15.76-.34-.61-.78-1.2-1.31-1.65-6.13-5.2-10.66-11.65-14.48-18.64-6.94-12.7-11.85-26.21-15.49-40.17-2.09-8.01-2.88-16.25-2.67-24.52.32-12.84,2.88-25.2,8.91-36.67,4.36-8.3,9.96-15.57,17.96-20.72,8.75-5.64,17.99-7.26,27.95-3.47,6.06,2.31,11.99,4.85,16.82,9.3,3.63,3.34,6.71,7.15,7.62,12.17.36,1.97.32,4.07.09,6.07-.28,2.5-2.26,3.67-4.86,3.19-2.16-.4-4.14-1.24-5.83-2.69-2.68-2.3-5.65-4.08-8.96-5.34-7.85-3-14.65-1.28-20.69,4.36-5.02,4.69-7.45,10.69-9.08,17.17-4.32,17.19-2.24,33.72,4.62,49.9,4.44,10.46,10.78,19.64,18.53,27.8,6.41,6.75,14.58,9.66,23.89,8.71,3.53-.36,6.99-1.4,10.51-2.01,3.89-.67,7.78-1.47,11.7-1.76,12.86-.97,25.72-.6,38.58.37,13.13.99,26.17,2.62,39.19,4.56,12.02,1.79,23.88,4.4,35.77,6.88,9.69,2.02,19.38,4.11,29.14,5.73,8.31,1.37,16.73,1.67,25.1.16,4.06-.74,7.56-2.67,10.63-5.45,7.33-6.63,14.98-12.86,23.5-17.95,4.55-2.72,9.24-5.1,14.52-6.15,1.19-.24,2.43-.99,3.3-1.85,4.73-4.64,9.35-9.38,14.01-14.09,2.75-2.78,5.48-5.57,8.32-8.47Z"/>
</svg>