<svg xmlns="http://www.w3.org/2000/svg" width="1000" height="1000" viewBox="0 0 1000 1000" version="1.1">
	<path d="M 486.500 70.497 C 485.950 70.684, 483.863 71.109, 481.861 71.443 C 479.373 71.857, 474.471 74.921, 466.361 81.129 C 459.838 86.123, 451.800 91.448, 448.500 92.962 C 439.861 96.926, 432.915 102.851, 427.737 110.671 C 421.507 120.080, 417.369 129.655, 414.886 140.401 C 412.846 149.232, 410.700 154.038, 396.259 182.107 C 390.950 192.426, 390.346 194.780, 386.534 220 C 385.163 229.075, 383.009 240.325, 381.749 245 L 379.457 253.500 375.777 253.213 C 373.753 253.055, 369.529 252.042, 366.392 250.963 C 363.254 249.883, 358.463 249, 355.745 249 C 351.487 249, 350.393 248.562, 347.850 245.840 C 342.585 240.203, 345.379 231.724, 351.433 234.964 C 354.534 236.624, 355.551 235.899, 354.052 233.097 C 351.800 228.889, 343.940 229.463, 342.519 233.939 C 341.583 236.888, 339.301 236.482, 337.526 233.050 C 334.605 227.402, 336.030 224.355, 342.181 223.097 C 346.394 222.235, 346.852 220.346, 343.050 219.511 C 339.998 218.841, 335.136 221.007, 331.473 224.669 C 329.580 226.563, 329.577 232.058, 331.468 234.559 C 333.556 237.319, 333.354 239.240, 330.402 244.697 C 327.994 249.150, 327.847 250.137, 328.391 258.250 C 328.714 263.063, 328.590 267, 328.115 267 C 327.640 267, 325.298 266.311, 322.909 265.468 C 317.931 263.712, 313.980 264.259, 311.449 267.057 C 310.481 268.126, 308.490 269, 307.024 269 C 305.558 269, 301.915 270.237, 298.929 271.750 C 292.838 274.835, 290.087 279.053, 289.235 286.611 C 288.839 290.122, 289.050 291, 290.290 291 C 291.197 291, 292.112 289.765, 292.494 288.027 C 293.378 284.003, 297.998 280.347, 304.641 278.416 C 310.246 276.787, 312.315 277.085, 310.183 279.217 C 309.533 279.868, 308.986 281.322, 308.968 282.450 C 308.951 283.577, 308.276 285.374, 307.468 286.441 C 304.904 289.832, 306.060 303.273, 308.690 300.643 C 309.129 300.204, 309.716 297.338, 309.994 294.275 C 310.524 288.444, 310.695 288.242, 317 286.049 C 322.312 284.202, 323.062 284.293, 325.149 287.042 C 326.475 288.788, 327.361 292.305, 327.976 298.264 C 329.074 308.910, 332.619 316.877, 340.871 327.247 C 346.729 334.608, 348.395 336.205, 360.425 346 C 364.141 349.025, 367.600 352.277, 368.113 353.226 C 368.748 354.402, 367.949 360.617, 365.607 372.726 C 363.716 382.502, 361.610 396.437, 360.928 403.693 L 359.686 416.886 347.996 416.298 C 337.343 415.762, 335.715 415.922, 329.649 418.097 C 324.517 419.938, 322.592 420.233, 321.246 419.385 C 318.758 417.818, 318.622 415.688, 320.835 412.955 L 322.754 410.585 326.887 412.449 C 332.177 414.835, 333.065 413.911, 329.199 410.045 C 325.247 406.094, 320.936 405.922, 318.513 409.620 C 316.838 412.177, 316.752 412.195, 314.961 410.370 C 311.939 407.290, 311.510 403.490, 313.913 401.087 C 315.061 399.939, 316.830 399, 317.845 399 C 318.860 399, 320.547 398.033, 321.595 396.850 L 323.500 394.701 318.662 395.343 C 315.914 395.708, 312.026 397.192, 309.662 398.777 C 305.740 401.408, 305.448 401.942, 304.603 408.035 C 304.110 411.591, 303.660 418.006, 303.603 422.291 L 303.500 430.083 299.259 432.934 C 292.754 437.308, 280.157 449.456, 279.017 452.454 C 277.423 456.647, 277.804 460.499, 280.388 466.343 C 282.595 471.334, 284.550 473.783, 285.537 472.796 C 285.760 472.574, 285.215 470.119, 284.326 467.340 C 282.210 460.723, 283.088 457.673, 288.171 453.991 C 293.383 450.215, 295.450 450.069, 294.580 453.537 C 293.630 457.322, 295.639 463.402, 299.044 467.047 C 300.702 468.822, 302.280 470.053, 302.551 469.783 C 302.821 469.512, 301.957 466.948, 300.631 464.085 C 298.230 458.903, 298.146 455, 300.435 455 C 301.096 455, 303.910 455.675, 306.688 456.500 C 311.191 457.837, 311.797 458.352, 312.277 461.250 C 313.235 467.028, 316.878 475.401, 320.172 479.394 C 324.092 484.147, 338.842 494.017, 348.961 498.657 C 353.065 500.539, 358.857 503.917, 361.832 506.163 L 367.242 510.248 366.569 521.874 C 365.953 532.526, 367.489 554.537, 369.550 564.578 C 370.128 567.397, 369.634 568.156, 363.695 573.578 C 360.128 576.835, 354.574 581.047, 351.354 582.938 C 338.579 590.442, 332.509 597.323, 329.308 607.930 C 328.384 610.993, 327.256 613.933, 326.802 614.462 C 326.003 615.393, 319.154 615.370, 315.902 614.426 C 315.023 614.170, 313.802 612.861, 313.189 611.516 C 311.788 608.441, 313.010 607.500, 318.405 607.500 C 323.825 607.500, 324.107 605.375, 318.874 603.966 C 312.950 602.371, 308.601 603.700, 308.188 607.232 C 308.017 608.700, 308.345 610.777, 308.918 611.847 C 309.803 613.501, 309.572 613.891, 307.374 614.442 C 304.112 615.261, 300.255 612.863, 299.408 609.490 C 298.557 606.097, 299.535 604, 301.969 604 C 304.831 604, 304.500 602.164, 301.502 601.411 C 297.534 600.415, 296.270 601.514, 295.098 606.980 C 293.191 615.870, 293.619 617.480, 298.886 621.228 C 299.870 621.927, 301.310 623.833, 302.087 625.463 C 302.864 627.092, 305.075 629.467, 307 630.740 C 308.925 632.012, 312.442 634.403, 314.816 636.053 L 319.131 639.051 317.197 642.276 C 314.488 646.790, 313.860 651.248, 315.110 657.077 C 315.983 661.148, 315.890 662.818, 314.611 666.014 C 312.428 671.471, 313.380 674.751, 319.215 681.877 C 323.515 687.126, 324.701 688, 327.533 688 C 329.350 688, 331.548 687.727, 332.418 687.393 C 335.319 686.280, 334.048 685, 330.042 685 C 326.414 685, 325.867 684.628, 323.472 680.542 C 320.152 674.877, 320.444 671.019, 324.334 669.162 C 326.872 667.951, 327.395 668.019, 329.334 669.810 C 332.747 672.962, 344.418 679.001, 347.083 678.994 C 349.265 678.988, 349.045 678.597, 344.821 674.976 C 342.247 672.771, 339.176 669.403, 337.996 667.493 L 335.849 664.020 337.951 661.069 C 341.017 656.763, 342.951 656.589, 350.111 659.976 C 357.471 663.458, 366.519 664.064, 372.686 661.487 C 374.677 660.655, 376.575 660.241, 376.904 660.567 C 377.232 660.894, 377.779 667.537, 378.120 675.330 C 378.674 688.006, 379.132 690.712, 382.460 701 C 385.815 711.368, 386.259 714.025, 386.966 728 C 387.669 741.869, 388.068 744.289, 390.758 751 C 392.413 755.125, 394.531 762.100, 395.465 766.500 C 398.010 778.477, 398.705 780.497, 404.609 793.062 L 410.041 804.624 407.184 811.562 C 399.909 829.221, 393.707 853.248, 392.630 867.938 C 392.330 872.028, 392.580 878.558, 393.185 882.449 C 394.195 888.945, 394.109 889.866, 392.139 893.728 C 389.785 898.342, 387.078 900.294, 383.698 899.813 C 380.989 899.427, 380.857 895.971, 383.259 888.250 C 384.572 884.031, 384.631 883, 383.561 883 C 381.513 883, 379.287 887.094, 377.319 894.481 L 375.529 901.198 378.121 903.349 C 379.546 904.532, 381.513 905.966, 382.491 906.537 C 384.844 907.907, 383.867 910.915, 379.767 914.923 C 375.960 918.646, 375.371 918.692, 372.412 915.500 C 370.170 913.081, 367 912.114, 367 913.850 C 367 914.317, 368.353 916.567, 370.006 918.850 C 372.894 922.836, 373.227 923, 378.428 923 C 383.558 923, 384.036 922.776, 387.461 918.775 L 391.078 914.549 397.410 914.834 C 403.566 915.110, 403.876 915.002, 408.551 910.956 L 413.360 906.794 415.573 911.147 C 418.493 916.890, 420.953 918.978, 426.178 920.148 C 428.555 920.681, 431.687 922.251, 433.138 923.638 C 439.563 929.779, 450.555 926.862, 456.601 917.410 C 459.957 912.163, 460.885 909, 459.066 909 C 458.553 909, 456.011 911.700, 453.419 915 C 447.962 921.945, 444.721 922.812, 440.392 918.483 C 437.514 915.605, 437.808 913.063, 441.490 909 C 444.892 905.246, 446 902.559, 446 898.066 C 446 893.456, 444.556 892.647, 443.542 896.689 C 442.771 899.760, 439.284 905, 438.011 905 C 437.543 905, 436.863 903.653, 436.501 902.006 C 436.140 900.359, 435.095 898.593, 434.180 898.081 C 432.144 896.941, 432.194 896.894, 439 893.490 C 447.354 889.313, 455.845 882.234, 474.500 863.895 C 493.388 845.327, 494.208 844.863, 504.410 846.981 C 508.633 847.858, 511.943 849.571, 517.763 853.893 C 527.565 861.173, 530.818 864.923, 536.045 874.970 C 542.636 887.639, 556.325 898.906, 567.250 900.655 C 570.566 901.186, 571 901.585, 571 904.107 C 571 906.423, 570.255 907.339, 567.040 908.980 C 564.862 910.091, 562.779 911, 562.411 911 C 562.043 911, 562.050 908.637, 562.425 905.750 L 563.108 900.500 561.031 902.551 C 559.717 903.849, 558.731 906.475, 558.350 909.695 C 557.780 914.507, 557.905 914.887, 560.623 916.591 C 562.205 917.583, 563.685 918.528, 563.911 918.691 C 564.779 919.318, 560.675 922.918, 558.047 923.834 C 554.673 925.010, 553.459 924.338, 551.992 920.480 C 550.972 917.795, 550.758 917.681, 549.839 919.322 C 545.804 926.533, 560.255 933.836, 566.399 927.692 C 568.174 925.917, 569.836 925.381, 573.603 925.368 C 580.257 925.346, 584.089 923.080, 588.363 916.640 C 592.778 909.988, 596.957 908.006, 600.792 910.744 C 606.761 915.007, 608.645 915.990, 610.856 915.995 C 612.151 915.998, 614.548 917.125, 616.182 918.500 C 619.608 921.383, 624.583 921.784, 628.943 919.530 C 634.616 916.596, 641.916 903.500, 638.500 902.383 C 637.950 902.203, 636.012 904.249, 634.193 906.930 C 630.364 912.574, 626.326 914.780, 623.043 913.023 C 620.403 911.610, 620.940 909.166, 625.132 903.500 C 629.658 897.384, 631.954 891.933, 631.978 887.250 C 631.994 884.129, 631.601 883, 630.500 883 C 629.475 883, 628.999 884.029, 628.996 886.250 C 628.991 890.473, 625.716 895.782, 622.639 896.555 C 618.411 897.616, 611.117 892.425, 609.543 887.234 C 609.127 885.866, 609.676 882.597, 610.928 878.980 C 613.537 871.440, 613.535 866.404, 610.918 852 C 608.332 837.773, 605.577 828.072, 602.267 821.539 C 599.290 815.665, 599.037 810.577, 601.488 805.877 C 602.457 804.019, 603.845 801.375, 604.573 800 C 606.976 795.460, 608.917 786.013, 609.982 773.672 C 610.560 766.977, 612.135 757, 613.483 751.500 C 614.831 746, 616.366 735.875, 616.894 729 C 617.663 718.986, 618.485 714.810, 621.025 708 C 625.195 696.823, 626.922 686.883, 626.965 673.813 L 627 663.126 630.299 663.661 C 634.072 664.273, 648.121 661.841, 657.286 658.988 C 663.378 657.092, 663.536 657.091, 665.388 658.944 C 666.545 660.101, 667.465 662.784, 667.761 665.867 C 668.217 670.610, 668.097 670.938, 665.679 671.544 C 662.412 672.364, 661.438 671.725, 659.394 667.418 C 657.358 663.128, 655.395 663.499, 655.797 668.099 C 656.002 670.438, 657.168 672.515, 659.532 674.750 C 662.382 677.443, 663.755 678, 667.551 678 C 670.070 678, 673.002 677.534, 674.066 676.965 C 675.722 676.078, 676 676.266, 676 678.274 C 676 681.363, 674.375 683.254, 669.386 685.973 C 666.006 687.815, 664.886 688.010, 663.115 687.062 C 660.014 685.402, 658.465 686.752, 660.672 689.190 C 662.263 690.948, 663.241 691.101, 668.987 690.492 C 672.569 690.112, 676.887 689.226, 678.582 688.522 C 682.288 686.983, 685.999 682.531, 686.004 679.615 C 686.006 678.452, 687.308 674.888, 688.899 671.695 C 692.768 663.924, 693.515 658.437, 691.459 652.884 C 688.335 644.445, 688.289 644.624, 694.629 640.385 C 702.486 635.132, 706.363 629.693, 709.439 619.608 C 712.524 609.492, 712.579 607.597, 709.996 600.249 C 707.421 592.922, 705.322 590.903, 699.612 590.260 C 693.906 589.617, 693.529 591.194, 698.878 593.335 C 703.714 595.269, 704.470 598.539, 702.328 608.250 C 700.910 614.682, 700.704 615, 697.951 615 C 695.891 615, 695.216 614.600, 695.598 613.605 C 696.501 611.252, 693.999 603.909, 691.414 601.323 C 688.211 598.121, 682.664 598.345, 682.187 601.697 C 681.927 603.526, 682.321 603.861, 684.544 603.697 C 686.434 603.557, 687.833 604.316, 689.336 606.296 C 691.290 608.869, 691.340 609.303, 689.965 611.754 C 688.915 613.624, 687.284 614.651, 684.485 615.204 C 682.293 615.637, 679.554 616.210, 678.398 616.478 C 676.593 616.895, 675.650 615.655, 671.732 607.709 C 667.668 599.469, 666.309 597.734, 659.334 591.877 C 655.025 588.260, 648.700 583.185, 645.278 580.600 C 641.856 578.015, 638.819 575.517, 638.530 575.049 C 638.241 574.581, 638.722 570.441, 639.600 565.849 C 641.709 554.814, 641.062 527.218, 638.502 519 C 635.606 509.706, 635.558 507.753, 638.170 505.401 C 639.451 504.246, 646.350 499.812, 653.500 495.548 C 660.650 491.283, 668.408 486.239, 670.739 484.339 C 674.680 481.127, 681.650 471.485, 685.592 463.792 C 687.724 459.631, 688.662 459.034, 693.095 459.015 C 697.910 458.995, 700.165 461.658, 700.783 468.096 C 701.361 474.105, 700.835 474.627, 693.259 475.573 C 690 475.981, 688 476.716, 688 477.508 C 688 478.434, 689.790 478.734, 694.493 478.596 C 700.402 478.423, 701.301 478.100, 704.493 475.007 C 707.109 472.471, 708 470.768, 708 468.304 C 708 463.947, 710.851 463.846, 714.411 468.077 C 717.373 471.597, 717.620 474.637, 715.511 481.591 C 713.733 487.453, 713.779 487, 714.961 487 C 716.801 487, 719.804 482.814, 720.400 479.419 C 720.730 477.538, 721.274 474.426, 721.609 472.503 C 722.483 467.483, 721.407 464.340, 717.463 460.397 C 714.858 457.791, 714 456.083, 714 453.501 C 714 449.384, 710.064 444.477, 703.417 440.309 C 697.910 436.856, 697.157 434.373, 699.898 428.710 C 703.311 421.660, 702.555 416.980, 696.977 410.626 C 694.177 407.437, 693.896 406.578, 694.494 403.036 C 695.417 397.570, 693.537 392.511, 689.412 389.365 C 685.505 386.385, 678.903 385.284, 674.690 386.911 C 671.047 388.318, 672.248 390.337, 676.368 389.732 C 680.483 389.127, 683.268 390.490, 685.444 394.174 C 686.927 396.685, 687.101 398.427, 686.505 404.793 C 685.805 412.259, 685.765 412.347, 684.471 409.269 C 683.170 406.176, 678.626 403, 675.500 403 C 673.344 403, 668 405.825, 668 406.965 C 668 407.468, 669.688 408.019, 671.750 408.190 C 675.362 408.489, 675.569 408.713, 677.380 414.287 C 678.413 417.470, 678.978 420.355, 678.635 420.698 C 678.292 421.042, 674.753 420.012, 670.770 418.411 C 660.943 414.460, 651.889 414.385, 644 418.190 L 638.500 420.843 637.957 401.671 C 637.368 380.891, 636.466 374.695, 631.844 359.675 C 628.379 348.414, 628.603 345.821, 633.210 343.913 C 639.727 341.213, 662.516 319.844, 665.820 313.333 C 666.890 311.225, 669.433 305.450, 671.470 300.500 C 676.937 287.222, 677.706 286.658, 686.340 289.600 C 691.764 291.448, 693.476 293.921, 693.099 299.362 C 692.758 304.274, 695.113 303.940, 696.172 298.925 C 697.454 292.853, 695.588 288.588, 690.468 285.888 C 684.726 282.860, 684.647 280.003, 690.269 278.680 C 696.263 277.268, 698.667 278.410, 701.509 284.017 C 703.301 287.553, 704.629 289, 706.084 289 C 708.457 289, 708.246 287.719, 704.498 279.335 C 701.694 273.065, 698.645 270.905, 691.954 270.450 C 687.978 270.179, 686.445 269.564, 684.923 267.629 C 683.852 266.267, 681.519 264.840, 679.738 264.456 C 677.957 264.073, 675.263 263.127, 673.750 262.354 C 671.325 261.115, 671 260.379, 671 256.131 C 671 253.481, 670.100 248.697, 669 245.500 C 667.900 242.303, 667 237.092, 667 233.921 C 667 228.195, 666.963 228.123, 661.704 223.630 C 658.791 221.142, 655.162 218.632, 653.639 218.053 C 650.118 216.714, 642.313 216.685, 641.496 218.007 C 640.795 219.141, 641.787 219.558, 647.429 220.501 C 652.510 221.350, 658.006 226.634, 657.986 230.650 C 657.953 237.544, 655.658 240.081, 651.698 237.601 C 648.569 235.642, 637.223 234.570, 635.423 236.064 C 634.640 236.714, 634.024 238.652, 634.052 240.372 L 634.105 243.500 635.674 241.250 C 637.506 238.624, 640.858 238.358, 645.020 240.510 C 648.831 242.481, 650 244.835, 650 250.541 C 650 254.612, 649.775 255.117, 648.250 254.460 C 642.746 252.090, 630.526 253.099, 622.392 256.596 C 621.736 256.878, 620.568 254.509, 619.528 250.786 C 618.562 247.329, 615.398 238.200, 612.496 230.500 C 608.950 221.088, 606.701 213.180, 605.636 206.369 C 603.516 192.822, 599.019 180.844, 587.592 158.306 C 579.957 143.249, 577.627 137.606, 575.901 130 C 574.716 124.775, 572.523 117.800, 571.028 114.500 C 565.806 102.974, 556.089 93.178, 547.613 90.896 C 541.290 89.193, 534.550 85.429, 529.005 80.505 C 521.474 73.816, 519.539 72.798, 511.678 71.391 C 505.188 70.228, 488.987 69.653, 486.500 70.497" stroke="none" fill="black" fill-rule="evenodd"/>
</svg>