<?xml version="1.0" encoding="UTF-8" standalone="no"?>
<!DOCTYPE svg PUBLIC "-//W3C//DTD SVG 20010904//EN" "http://www.w3.org/TR/2001/REC-SVG-20010904/DTD/svg10.dtd">
<svg version="1.0" xmlns="http://www.w3.org/2000/svg" width="1024.000000pt" height="856.000000pt" viewBox="0 0 1024.000000 856.000000" preserveAspectRatio="xMidYMid meet">
<metadata>
Created by potrace 1.16, written by Peter Selinger 2001-2019
</metadata>
<g transform="translate(0.000000,856.000000) scale(0.100000,-0.100000)" fill="#000000" stroke="none">
<path d="M8136 8535 c-59 -13 -126 -45 -201 -95 -22 -15 -80 -48 -129 -73 l-88 -47 -20 25 c-24 31 -80 34 -154 7 -68 -24 -93 -41 -188 -132 -45 -42 -108 -94 -141 -115 -33 -21 -73 -49 -89 -62 l-29 -24 -13 30 c-27 63 -65 62 -220 -10 -136 -64 -210 -117 -314 -224 -111 -115 -228 -229 -240 -233 -5 -2 -14 16 -20 40 -20 73 -28 87 -56 94 -39 10 -160 -56 -240 -129 -66 -61 -247 -319 -269 -385 -7 -20 -28 -49 -47 -65 l-33 -28 -8 68 c-10 78 -19 93 -56 93 -84 0 -300 -229 -336 -358 -19 -66 -81 -162 -136 -210 l-38 -33 -11 43 c-18 66 -36 88 -72 88 -26 0 -46 -16 -137 -111 -119 -124 -189 -221 -220 -304 -12 -31 -33 -67 -49 -80 l-27 -23 -7 51 c-11 86 -53 104 -143 61 -34 -16 -177 -170 -227 -245 -34 -51 -48 -98 -48 -165 0 -36 -6 -59 -20 -77 l-21 -26 -21 21 c-23 23 -72 21 -113 -6 -23 -15 -157 -175 -212 -254 -18 -25 -53 -67 -78 -92 -44 -44 -47 -53 -78 -176 -27 -110 -35 -129 -51 -129 -15 0 -23 11 -32 48 -7 27 -24 66 -38 88 -14 21 -26 47 -26 56 0 10 -9 32 -21 48 -11 17 -33 55 -49 86 -16 32 -51 76 -79 100 -41 37 -53 56 -71 113 -22 68 -48 106 -72 106 -7 0 -28 26 -47 59 -31 53 -120 144 -182 184 -14 9 -36 36 -49 59 -41 75 -73 111 -134 150 -47 30 -69 38 -106 38 -35 0 -57 7 -95 33 -92 61 -88 60 -189 48 -50 -5 -115 -15 -144 -21 -32 -7 -65 -8 -85 -2 -46 12 -233 4 -297 -13 -78 -22 -334 -73 -400 -80 -30 -4 -75 -13 -100 -21 -25 -8 -89 -20 -142 -28 -53 -8 -114 -23 -135 -34 -21 -10 -78 -31 -128 -46 -49 -15 -112 -34 -140 -43 -27 -8 -122 -48 -210 -89 -159 -74 -160 -74 -263 -176 -151 -149 -221 -260 -222 -345 0 -32 5 -45 20 -53 16 -8 23 -7 36 9 9 11 23 17 30 14 8 -3 22 9 33 27 11 18 35 42 55 54 69 41 181 119 207 143 15 14 44 29 66 33 50 12 186 93 214 128 19 25 27 27 123 33 85 4 111 10 149 31 31 18 81 32 154 43 59 9 119 23 133 30 20 10 66 10 215 3 230 -11 446 -9 461 3 6 5 13 6 17 3 13 -14 203 -18 452 -11 85 2 127 -1 145 -10 14 -7 33 -13 44 -13 26 0 86 -39 86 -55 0 -7 25 -35 56 -61 38 -33 64 -65 80 -101 16 -37 34 -59 58 -74 20 -12 36 -25 36 -30 0 -6 21 -32 46 -59 42 -44 47 -55 54 -116 6 -51 15 -75 39 -104 40 -50 76 -133 84 -194 4 -27 13 -59 20 -70 36 -56 60 -177 37 -191 -5 -3 -47 4 -92 16 -178 46 -161 45 -298 8 -55 -14 -108 -52 -121 -85 -11 -30 10 -88 38 -102 48 -25 191 -44 306 -40 l117 3 0 -35 c0 -100 55 -170 220 -285 115 -79 130 -96 130 -142 0 -27 76 -299 106 -375 28 -74 124 -214 191 -279 71 -69 161 -127 276 -179 37 -17 70 -37 73 -44 8 -20 -33 -145 -59 -183 -12 -18 -47 -65 -78 -105 -183 -240 -230 -309 -283 -423 -31 -66 -74 -149 -96 -185 -69 -114 -142 -316 -155 -425 -4 -33 -19 -116 -35 -185 -15 -69 -31 -147 -35 -175 -7 -48 -48 -143 -88 -198 -17 -26 -24 -28 -61 -24 -145 18 -260 26 -321 24 -67 -2 -70 -3 -73 -27 -5 -42 82 -156 151 -198 133 -82 247 -43 450 151 71 69 94 98 121 158 50 108 76 191 97 309 23 129 29 151 75 259 55 128 103 210 226 381 153 216 250 417 303 630 17 69 38 110 56 110 6 0 41 -29 77 -63 37 -35 78 -71 92 -80 50 -34 96 -15 132 57 l15 28 21 -27 c19 -24 22 -39 21 -149 0 -66 4 -137 10 -156 18 -58 14 -68 -43 -105 -30 -19 -64 -48 -76 -65 -12 -17 -41 -45 -64 -63 -55 -42 -153 -152 -176 -198 -29 -55 -89 -298 -103 -412 -14 -115 -16 -399 -3 -497 8 -63 7 -67 -29 -135 -21 -40 -66 -100 -105 -141 -91 -94 -98 -123 -45 -200 43 -61 77 -84 129 -84 42 0 79 39 100 108 21 70 54 143 82 179 43 57 113 199 130 264 14 53 16 96 11 259 -9 287 1 317 207 621 60 88 120 168 133 177 13 9 37 27 53 40 l29 23 64 -68 c35 -37 114 -124 176 -193 118 -132 267 -266 391 -353 72 -49 216 -116 252 -117 10 0 48 -29 86 -65 57 -53 89 -73 193 -120 141 -64 228 -119 234 -149 2 -12 6 -39 9 -61 9 -65 120 -320 166 -381 50 -66 139 -127 218 -149 105 -28 145 -58 226 -165 27 -36 97 -114 156 -175 58 -60 124 -138 145 -171 61 -97 166 -147 195 -94 6 11 9 24 6 29 -3 5 1 14 8 21 24 19 29 67 11 119 -26 79 -246 332 -390 448 -44 36 -89 79 -100 96 -22 35 -26 37 100 -49 50 -34 114 -73 143 -88 55 -28 132 -82 212 -148 25 -21 95 -63 155 -94 123 -63 203 -110 287 -169 31 -22 85 -57 120 -78 291 -176 395 -235 473 -267 50 -21 118 -52 152 -69 34 -18 87 -36 117 -41 30 -5 101 -22 159 -39 57 -17 133 -35 168 -40 35 -6 114 -20 174 -32 104 -21 112 -22 145 -6 19 9 67 28 105 43 39 14 86 32 105 40 19 7 44 13 55 14 11 0 29 6 40 14 11 7 47 23 80 35 110 41 197 109 238 186 37 71 18 259 -42 424 -17 47 -29 86 -27 88 2 2 30 4 62 4 80 1 92 6 111 42 19 36 21 215 3 262 -5 14 -10 41 -10 58 0 18 -12 57 -26 87 -14 30 -45 102 -69 160 -62 152 -133 267 -294 476 -47 62 -126 164 -176 229 -49 64 -141 170 -205 234 -115 116 -345 321 -443 395 -161 123 -237 176 -274 195 -44 22 -174 104 -273 171 -30 21 -111 63 -180 94 -183 83 -246 115 -309 158 -31 21 -97 54 -147 73 -50 19 -117 52 -150 71 -32 20 -88 54 -124 76 -85 51 -540 274 -584 286 -18 5 -62 32 -97 60 -35 27 -83 59 -107 71 -23 12 -75 43 -116 69 -252 160 -386 237 -442 253 -34 9 -106 40 -161 68 -55 28 -107 51 -116 51 -27 0 -170 37 -212 55 -23 10 -52 15 -72 12 -31 -5 -34 -3 -65 49 -27 45 -60 76 -178 165 -80 60 -166 126 -191 147 -36 30 -63 42 -123 55 -42 9 -98 28 -125 41 -103 53 -260 65 -504 40 -35 -4 -70 -1 -90 6 -17 7 -63 15 -102 19 -62 5 -70 8 -73 28 -2 12 -17 34 -35 49 -31 26 -33 26 -153 22 l-122 -4 29 33 c16 19 29 40 29 47 0 23 76 131 101 142 163 76 223 111 242 139 11 17 32 39 46 47 118 72 185 119 276 195 195 162 220 181 249 188 17 4 66 42 115 89 47 45 121 113 164 150 43 38 107 104 143 146 58 69 77 84 172 134 170 91 203 114 327 239 65 64 127 117 137 117 10 0 23 9 30 21 7 11 54 40 103 65 50 24 113 63 140 87 28 24 70 57 95 72 25 15 68 47 95 70 60 52 128 90 175 100 53 12 120 51 330 192 41 28 95 62 121 76 25 14 72 46 105 71 49 36 80 50 160 71 146 39 232 68 269 90 57 35 149 96 175 116 49 38 159 108 207 132 63 32 205 83 268 97 28 6 79 26 115 44 36 18 97 43 135 56 84 27 173 71 235 114 25 17 57 37 72 45 30 16 42 39 32 65 -22 57 -241 78 -388 37 -34 -9 -38 -8 -46 13 -14 38 -30 41 -124 21z"/>
</g>
</svg>