<?xml version="1.0" encoding="UTF-8" standalone="no"?>
<!DOCTYPE svg PUBLIC "-//W3C//DTD SVG 20010904//EN" "http://www.w3.org/TR/2001/REC-SVG-20010904/DTD/svg10.dtd">
<svg version="1.0" xmlns="http://www.w3.org/2000/svg" width="1536.000000pt" height="898.000000pt" viewBox="0 0 1536.000000 898.000000" preserveAspectRatio="xMidYMid meet">
<metadata>
Created by potrace 1.16, written by Peter Selinger 2001-2019
</metadata>
<g transform="translate(0.000000,898.000000) scale(0.100000,-0.100000)" fill="#000000" stroke="none">
<path d="M10860 8965 c-98 -31 -188 -142 -239 -298 -49 -151 -76 -315 -101 -627 l-11 -135 -57 -53 c-166 -155 -435 -283 -722 -341 -226 -46 -405 -59 -970 -71 -394 -8 -468 -12 -550 -29 -218 -47 -454 -150 -700 -306 -164 -104 -809 -590 -926 -697 -423 -388 -711 -879 -1018 -1736 -35 -97 -101 -285 -146 -417 -45 -132 -122 -351 -171 -487 -49 -136 -114 -340 -144 -455 -84 -313 -132 -477 -172 -588 -93 -264 -230 -477 -387 -603 l-61 -49 -215 -27 c-548 -67 -957 -102 -2125 -181 -586 -40 -1009 -72 -1073 -80 -24 -4 -132 -10 -240 -15 -174 -7 -207 -11 -282 -35 -333 -107 -566 -359 -547 -591 8 -111 90 -249 164 -280 51 -22 150 -17 229 10 38 13 123 49 189 81 186 88 283 118 385 118 47 0 98 -5 113 -12 68 -27 568 -9 1757 66 257 16 1085 24 1450 14 80 -2 195 0 257 4 98 7 119 5 181 -14 84 -25 174 -83 239 -155 26 -29 108 -131 180 -228 189 -251 284 -332 429 -362 286 -60 524 -76 1289 -86 369 -5 695 -12 725 -15 260 -27 822 -72 1555 -125 978 -71 1436 -115 1515 -145 136 -51 334 64 365 212 13 64 -10 108 -104 198 -202 195 -364 288 -609 350 -200 50 -313 59 -740 57 l-394 -2 -42 29 c-55 38 -124 114 -142 156 -18 44 -18 116 0 160 34 81 177 196 352 283 214 107 625 259 826 307 318 74 540 160 1125 434 176 83 385 178 464 211 126 54 157 73 274 163 254 198 419 303 579 370 143 60 204 72 366 71 131 0 153 -3 230 -28 47 -16 115 -43 152 -62 163 -82 395 -43 512 87 151 168 68 406 -184 527 -74 35 -80 40 -113 102 -147 272 -58 475 279 636 112 54 225 94 574 204 291 92 433 172 600 340 102 102 171 196 230 315 168 336 121 655 -132 907 -122 121 -211 246 -423 593 -283 464 -438 649 -670 800 -44 29 -102 63 -129 76 -96 47 -204 178 -288 349 -20 41 -77 158 -127 260 -121 250 -176 310 -282 310 -65 0 -125 -35 -229 -136 -99 -96 -140 -122 -252 -160 -296 -100 -597 -19 -943 254 -38 30 -165 150 -281 266 -196 197 -217 214 -296 253 -143 70 -250 88 -348 58z"/>
</g>
</svg>