<?xml version="1.0" encoding="UTF-8" standalone="no"?>
<!DOCTYPE svg PUBLIC "-//W3C//DTD SVG 20010904//EN" "http://www.w3.org/TR/2001/REC-SVG-20010904/DTD/svg10.dtd">
<svg version="1.0" xmlns="http://www.w3.org/2000/svg" width="1884.000000pt" height="1370.000000pt" viewBox="0 0 1884.000000 1370.000000" preserveAspectRatio="xMidYMid meet">
<metadata>
Created by potrace 1.16, written by Peter Selinger 2001-2019
</metadata>
<g transform="translate(0.000000,1370.000000) scale(0.100000,-0.100000)" fill="#000000" stroke="none">
<path d="M4257 13664 c-42 -8 -105 -23 -139 -35 -85 -28 -344 -146 -518 -236 l-145 -74 -145 -9 c-298 -18 -547 -101 -676 -224 -54 -52 -136 -191 -159 -270 l-12 -39 -84 -17 c-270 -56 -573 -201 -633 -302 -48 -82 -45 -184 10 -327 14 -35 22 -66 20 -69 -3 -3 -87 1 -186 8 -281 20 -413 4 -610 -76 -94 -38 -206 -109 -246 -157 -14 -17 -48 -75 -75 -129 -51 -101 -169 -396 -169 -421 0 -37 -23 -75 -48 -82 -76 -18 -196 -119 -281 -235 -135 -183 -175 -367 -112 -524 63 -156 171 -285 310 -365 221 -129 366 -156 547 -100 83 26 283 136 428 236 198 137 316 240 671 584 88 85 183 170 209 189 38 26 194 100 211 100 1 0 6 -17 10 -37 11 -58 61 -149 97 -175 38 -26 92 -29 173 -10 110 27 99 30 114 -30 12 -45 20 -128 21 -214 0 -26 42 -70 74 -78 13 -3 49 -22 82 -41 32 -20 83 -43 112 -51 76 -23 137 -1 215 77 l58 58 10 -27 c6 -15 30 -116 55 -226 44 -200 59 -239 111 -288 54 -52 161 -75 216 -47 40 21 126 100 159 145 17 24 34 44 38 44 10 0 86 -238 106 -328 20 -92 80 -187 140 -219 109 -60 205 -32 292 85 28 38 56 81 63 95 7 15 15 27 19 27 3 0 17 -33 29 -72 48 -149 147 -300 222 -339 57 -29 222 -61 315 -62 114 0 160 30 173 113 6 32 10 35 56 46 28 6 78 14 111 17 l62 6 13 -30 c23 -57 132 -213 191 -275 l58 -61 -98 -63 c-65 -43 -131 -99 -201 -169 -289 -296 -271 -272 -291 -376 -32 -170 -95 -312 -239 -542 -115 -183 -145 -249 -143 -313 1 -30 5 -68 10 -84 8 -28 2 -36 -98 -135 -58 -58 -129 -142 -159 -186 -30 -44 -57 -84 -61 -88 -4 -5 -34 -1 -66 7 -33 8 -106 20 -164 26 -58 6 -139 18 -180 26 -41 8 -113 19 -159 25 -47 5 -177 32 -290 60 -113 27 -291 68 -396 90 -104 22 -218 46 -252 54 -117 28 -208 14 -226 -35 -10 -27 -14 -29 -52 -24 -38 5 -42 3 -88 -50 -77 -89 -97 -161 -57 -204 19 -20 31 -22 119 -22 148 0 188 -7 196 -37 3 -13 16 -28 28 -33 12 -5 93 -14 180 -20 204 -14 358 -35 932 -130 66 -11 161 -25 210 -31 95 -11 220 -36 338 -69 40 -11 83 -20 98 -20 47 0 382 345 514 528 21 30 48 58 61 62 42 16 50 47 68 250 26 290 58 424 133 559 59 108 208 322 260 375 56 57 214 172 297 215 l57 31 35 -28 c19 -15 34 -31 34 -35 0 -16 -39 -83 -63 -109 -14 -15 -72 -57 -128 -94 -56 -36 -129 -91 -162 -123 -108 -102 -202 -271 -227 -411 -26 -140 10 -346 96 -552 25 -62 84 -204 130 -315 46 -111 90 -216 99 -232 24 -48 18 -95 -31 -219 -25 -64 -55 -144 -66 -177 -11 -33 -44 -107 -74 -164 -30 -57 -54 -110 -54 -118 0 -8 7 -30 16 -49 l16 -34 -89 -97 c-48 -54 -120 -134 -158 -178 -120 -139 -637 -649 -708 -699 -81 -57 -93 -76 -78 -118 6 -17 10 -33 8 -34 -1 -2 -93 -33 -202 -70 -289 -96 -300 -100 -415 -157 -114 -57 -150 -90 -131 -125 33 -62 406 -97 618 -58 120 21 207 48 316 97 82 37 90 38 110 24 36 -25 69 -18 139 33 37 26 93 65 125 87 106 74 190 171 306 358 124 199 329 453 461 570 49 45 88 90 110 130 67 120 171 518 212 812 11 82 22 126 34 140 35 40 60 104 60 154 0 127 -40 221 -171 401 -173 239 -259 377 -259 417 0 11 24 46 54 79 52 57 55 59 104 59 48 0 53 3 114 61 79 76 235 178 348 228 l86 37 57 -33 c32 -18 106 -68 165 -111 111 -81 245 -168 320 -206 l43 -22 -133 -87 c-73 -48 -154 -100 -180 -115 -54 -31 -71 -56 -66 -98 2 -24 -9 -41 -73 -106 -117 -121 -163 -180 -230 -299 -120 -214 -173 -378 -205 -639 -15 -116 -15 -147 -5 -198 13 -62 77 -214 117 -278 12 -19 43 -78 69 -130 26 -52 60 -112 75 -134 15 -22 55 -94 89 -160 34 -66 89 -153 121 -194 47 -58 61 -85 70 -130 12 -56 57 -250 106 -450 50 -201 152 -428 208 -462 42 -24 37 -18 127 -157 99 -152 265 -324 391 -405 46 -30 119 -80 163 -112 139 -100 192 -116 232 -73 30 34 35 60 18 101 -19 45 -19 57 -1 57 7 0 25 9 40 21 62 49 21 129 -173 336 -163 173 -206 226 -287 348 -33 50 -79 115 -102 145 -23 30 -42 58 -42 63 0 4 -29 69 -64 145 -59 126 -103 248 -93 258 2 2 25 -28 52 -68 88 -133 342 -375 469 -448 32 -18 77 -38 100 -45 36 -10 45 -19 75 -76 99 -190 161 -269 295 -378 113 -92 390 -269 536 -341 64 -32 98 -57 138 -101 138 -152 414 -304 627 -345 59 -12 76 -20 115 -57 39 -38 152 -119 179 -129 6 -2 6 -22 0 -53 -13 -67 -79 -526 -124 -854 -40 -295 -190 -1064 -261 -1341 -25 -96 -70 -263 -100 -370 -79 -279 -104 -396 -104 -488 0 -88 13 -116 61 -127 33 -8 85 34 124 100 59 101 185 502 280 890 37 149 77 308 91 355 30 107 88 356 110 475 19 105 73 377 109 552 22 105 105 615 105 643 0 19 19 9 83 -42 126 -103 292 -217 412 -282 39 -21 115 -64 170 -94 194 -107 719 -353 835 -391 36 -12 120 -44 185 -72 135 -58 635 -259 765 -308 619 -234 689 -256 924 -287 66 -8 122 -17 125 -19 9 -5 358 -62 491 -79 183 -25 383 -34 540 -25 249 13 334 30 597 120 408 138 686 326 936 634 125 154 313 496 377 685 16 48 38 107 49 132 15 36 71 258 71 284 0 3 15 -5 33 -19 69 -52 126 -85 254 -145 73 -35 170 -85 215 -112 45 -28 87 -50 93 -50 7 0 41 -9 76 -21 112 -36 239 -13 301 55 170 184 277 674 278 1271 1 269 -13 371 -85 637 -108 399 -184 575 -418 968 -182 304 -286 451 -525 740 -252 304 -490 526 -1132 1060 -135 112 -249 207 -255 213 -6 6 129 7 365 4 380 -6 596 -20 970 -66 91 -11 230 -27 310 -36 177 -20 332 -39 465 -59 55 -8 206 -27 335 -41 129 -14 273 -29 320 -35 203 -22 258 -24 285 -6 19 12 25 25 25 51 0 43 -25 70 -77 84 -58 17 -288 48 -478 66 -239 22 -402 39 -860 90 -220 25 -438 50 -485 55 -279 31 -977 70 -1248 70 l-136 0 -85 88 c-47 48 -133 137 -191 198 -100 105 -300 282 -439 389 -102 78 -307 193 -357 201 -35 5 -47 13 -68 44 -34 52 -134 134 -209 171 -34 17 -63 32 -65 34 -1 1 18 22 43 47 69 69 57 131 -26 144 -30 5 -179 -3 -407 -23 l-74 -6 26 26 c30 30 32 44 9 76 -15 23 -20 24 -107 18 -50 -3 -110 -13 -134 -21 l-43 -16 -96 81 c-53 45 -128 102 -167 127 -39 25 -86 58 -105 74 -53 46 -195 135 -299 187 -129 65 -412 175 -489 191 l-62 13 52 57 c51 57 88 115 172 275 24 44 50 94 59 110 21 39 21 145 0 238 -21 89 -53 127 -111 127 -34 0 -43 -6 -93 -62 -30 -34 -100 -108 -155 -163 -55 -55 -117 -122 -138 -148 -49 -60 -58 -64 -189 -94 l-109 -24 -37 22 c-20 12 -101 62 -178 111 -158 98 -294 154 -409 167 -39 5 -90 17 -115 28 -94 43 -127 39 -207 -22 -26 -20 -106 -66 -177 -101 -71 -35 -135 -69 -142 -75 -19 -16 -17 1 4 32 9 14 45 67 79 117 33 50 69 115 79 144 9 29 37 78 60 109 45 57 45 58 74 233 19 119 46 153 199 256 36 24 89 67 118 95 45 44 53 56 53 89 0 49 -39 90 -78 83 -302 -57 -349 -80 -430 -208 -87 -139 -125 -229 -163 -384 -40 -161 -155 -366 -296 -524 l-39 -44 -125 41 c-68 23 -187 55 -264 72 -77 17 -168 43 -201 56 -58 24 -67 25 -165 16 -89 -8 -112 -7 -168 9 -93 27 -208 85 -333 167 -252 167 -570 355 -717 424 -266 125 -680 276 -781 285 -48 4 -76 13 -105 33 -108 73 -175 93 -423 121 -54 6 -141 28 -245 63 -89 30 -189 57 -222 61 -33 3 -154 21 -270 40 -115 19 -268 41 -339 50 -113 15 -143 23 -240 65 -122 53 -243 90 -381 115 -106 20 -169 43 -324 118 -62 30 -185 79 -272 109 -87 29 -158 57 -156 63 11 32 117 97 253 155 259 110 480 252 563 363 118 158 148 321 85 455 -53 110 -209 178 -524 227 -177 28 -340 31 -463 9z m6365 -3728 c29 -14 73 -32 99 -40 25 -9 80 -38 122 -65 86 -54 198 -95 307 -112 92 -14 130 -7 210 40 76 45 171 94 173 89 27 -55 35 -64 72 -71 131 -28 172 -40 250 -73 52 -23 81 -40 73 -45 -7 -3 -51 -10 -98 -13 -139 -11 -288 -35 -415 -67 -160 -41 -359 -101 -420 -128 l-49 -22 -98 67 c-78 52 -113 85 -172 157 -74 93 -117 130 -213 183 -29 16 -53 31 -53 34 1 6 141 89 152 89 4 1 31 -10 60 -23z m2043 -2007 c80 -15 179 -66 272 -142 144 -117 174 -137 204 -137 45 0 62 35 62 130 0 44 4 80 8 80 5 0 114 -9 242 -20 240 -22 392 -40 487 -61 l55 -12 -25 -16 c-76 -50 -110 -101 -110 -163 0 -67 39 -80 135 -45 22 8 52 17 68 21 26 6 27 5 27 -34 0 -24 17 -87 40 -147 22 -59 40 -112 40 -118 0 -7 -9 -20 -21 -31 -29 -26 -38 -45 -60 -125 -23 -84 -24 -107 -2 -131 25 -28 70 -22 129 17 29 19 56 35 61 35 4 0 73 -129 152 -286 l144 -285 3 -90 c8 -189 47 -278 119 -266 27 4 33 0 63 -49 18 -30 49 -66 69 -81 32 -24 44 -28 114 -28 73 0 79 -1 89 -25 45 -100 202 -341 351 -540 96 -129 240 -327 319 -440 79 -113 206 -285 283 -384 125 -160 223 -304 213 -313 -2 -2 -68 26 -147 63 -144 67 -244 109 -544 229 -250 99 -285 112 -535 196 -286 96 -631 168 -815 169 -33 0 -64 4 -70 8 -5 4 -11 32 -13 62 -2 60 -26 103 -58 108 -12 2 -53 -25 -106 -67 -98 -78 -208 -155 -213 -149 -33 32 -124 177 -129 203 -7 38 -44 65 -88 65 -21 0 -24 4 -20 34 3 27 -2 40 -22 60 -30 31 -70 33 -159 10 -33 -8 -104 -16 -156 -16 -88 -1 -110 3 -266 51 -93 29 -184 61 -202 72 -40 25 -42 49 -13 135 24 70 17 102 -26 130 -66 44 -177 7 -299 -98 -66 -56 -146 -98 -174 -91 -10 2 -26 18 -36 35 -18 31 -18 67 1 169 5 30 2 41 -16 59 -20 20 -29 22 -79 16 -68 -8 -119 -34 -184 -92 -28 -25 -51 -43 -53 -41 -2 1 6 33 17 70 15 50 17 72 9 86 -19 37 -48 35 -135 -8 -93 -46 -162 -106 -197 -172 l-23 -44 -6 74 c-4 61 -10 77 -28 92 -27 22 -37 23 -96 8 -58 -15 -157 -118 -199 -207 -30 -64 -46 -78 -46 -42 0 32 -25 74 -53 89 -35 19 -75 7 -83 -24 -6 -26 -18 -32 -29 -15 -3 6 -17 10 -30 10 -17 0 -36 -18 -77 -75 -29 -42 -63 -90 -76 -108 l-23 -32 5 35 c4 19 13 89 21 155 8 66 21 152 29 191 21 100 55 369 63 496 l6 107 37 6 c31 5 47 0 98 -30 70 -42 127 -53 172 -35 29 12 34 11 73 -19 98 -75 163 -87 236 -46 24 14 45 24 46 23 1 -2 19 -74 39 -160 29 -120 44 -162 62 -179 28 -26 57 -21 97 17 33 31 33 30 -6 224 -36 177 -79 341 -136 518 -48 149 -49 154 -35 199 19 63 17 143 -5 238 -11 44 -18 81 -17 83 2 1 31 -60 66 -135 99 -217 155 -334 255 -538 51 -104 100 -215 109 -245 32 -110 83 -158 132 -125 66 43 33 158 -168 600 -63 138 -71 157 -133 320 -59 154 -259 535 -313 598 -14 16 -14 19 1 34 14 15 22 13 90 -20 83 -42 93 -43 125 -21 26 18 30 69 6 102 -14 21 -11 67 5 60 4 -2 51 -25 105 -52 119 -58 165 -67 195 -37 26 26 26 53 1 110 -11 24 -19 46 -16 48 2 2 53 -17 112 -43 229 -98 292 -107 315 -48 13 37 -5 65 -74 109 l-62 40 39 3 c22 2 81 -4 131 -12 51 -9 107 -16 125 -16 63 0 90 54 50 98 l-21 22 24 0 c13 0 50 -5 82 -11z m-4825 -318 c0 -18 -195 -192 -273 -244 -102 -69 -114 -106 -55 -180 l30 -39 -35 -76 c-67 -145 -116 -270 -142 -358 -33 -112 -95 -424 -95 -476 0 -39 -29 -280 -34 -286 -4 -3 -61 92 -111 183 -21 39 -81 129 -132 202 -89 125 -94 134 -88 170 20 113 90 292 167 428 81 144 243 378 292 423 47 44 66 49 112 32 54 -21 91 10 109 91 8 34 60 96 99 120 33 20 156 28 156 10z m2227 -218 c56 -71 62 -74 114 -69 l46 5 17 -55 c12 -38 25 -58 41 -66 33 -15 51 -5 84 47 l29 46 5 -28 c3 -15 8 -45 12 -66 7 -44 42 -72 77 -62 13 4 35 21 50 38 38 45 48 28 55 -88 l6 -98 -134 7 c-172 10 -183 15 -189 86 -5 51 -8 56 -40 72 -19 10 -45 18 -57 18 -37 0 -97 63 -131 137 -58 128 -52 159 15 76z m-473 -308 c51 -77 103 -149 115 -159 12 -11 21 -31 21 -47 0 -52 276 -352 365 -396 83 -42 192 -54 249 -27 34 17 35 16 88 -16 29 -18 55 -34 57 -36 14 -13 19 -124 11 -219 -15 -160 -104 -793 -114 -802 -2 -2 -25 24 -52 59 -26 35 -87 105 -136 156 -135 142 -130 122 -58 244 72 120 138 193 197 219 30 13 44 26 49 44 10 42 -23 67 -98 76 -90 10 -167 42 -217 91 -51 50 -71 92 -71 148 0 46 -21 94 -45 104 -28 10 -69 6 -89 -9 -31 -24 -110 -19 -140 8 -42 37 -93 146 -125 267 -17 63 -60 203 -95 310 -64 190 -64 194 -35 160 17 -19 72 -98 123 -175z m-1386 -297 c41 -129 71 -236 95 -338 14 -58 49 -177 77 -264 76 -236 109 -470 110 -771 1 -191 12 -290 37 -323 11 -14 55 -44 99 -66 l79 -41 8 -110 c11 -159 14 -155 -73 -88 -130 101 -183 157 -232 245 -26 46 -62 105 -81 131 -61 86 -198 227 -331 342 -72 62 -141 127 -154 144 -22 30 -22 33 -11 143 26 259 91 671 133 840 l43 173 32 6 c46 10 57 23 75 93 8 35 21 77 27 92 11 27 12 24 29 -58 10 -48 27 -116 38 -150z m2827 111 c44 -132 97 -171 166 -120 31 23 31 22 42 -26 4 -16 0 -23 -9 -23 -8 0 -37 -11 -64 -25 -68 -34 -115 -34 -132 3 -9 19 -26 31 -59 41 -40 12 -48 19 -59 51 -17 51 1 105 48 147 21 18 38 33 39 33 1 0 14 -37 28 -81z m306 -302 c26 5 28 3 48 -63 l21 -69 -43 -37 c-23 -20 -51 -37 -63 -38 -18 0 -23 9 -33 69 -12 77 -14 144 -5 154 4 3 16 0 27 -8 12 -8 31 -12 48 -8z m3765 -2836 c60 -17 93 -33 130 -63 27 -22 67 -49 89 -60 40 -21 41 -21 153 -3 201 31 244 27 469 -46 163 -53 202 -70 237 -101 l41 -36 -25 -27 c-37 -40 -93 -65 -144 -65 -42 0 -50 4 -104 58 -67 68 -119 90 -232 98 -129 10 -282 -27 -407 -97 -29 -16 -59 -29 -68 -29 -29 0 -80 57 -92 103 -7 24 -27 64 -45 88 -27 35 -45 48 -93 63 -52 17 -66 18 -128 7 -110 -18 -151 -42 -249 -141 -48 -50 -94 -90 -101 -90 -7 0 -33 21 -57 46 -25 25 -64 57 -87 71 -37 22 -47 23 -76 14 -35 -12 -70 -45 -101 -95 -23 -36 -26 -30 -51 79 -10 44 -23 102 -31 129 l-12 48 36 -5 c242 -38 352 -32 554 33 68 21 132 41 143 44 41 10 172 -2 251 -23z"/>
</g>
</svg>