<?xml version="1.0" encoding="UTF-8" standalone="no"?>
<!DOCTYPE svg PUBLIC "-//W3C//DTD SVG 20010904//EN" "http://www.w3.org/TR/2001/REC-SVG-20010904/DTD/svg10.dtd">
<svg version="1.0" xmlns="http://www.w3.org/2000/svg" width="1282.000000pt" height="1536.000000pt" viewBox="0 0 1282.000000 1536.000000" preserveAspectRatio="xMidYMid meet">
<metadata>
Created by potrace 1.16, written by Peter Selinger 2001-2019
</metadata>
<g transform="translate(0.000000,1536.000000) scale(0.100000,-0.100000)" fill="#000000" stroke="none">
<path d="M7154 15335 c-62 -31 -141 -105 -160 -150 -23 -56 -18 -137 15 -218 15 -40 43 -144 62 -232 47 -226 46 -335 -5 -630 -21 -121 -40 -221 -41 -223 -2 -2 -29 35 -60 83 -89 134 -97 160 -104 375 l-7 185 -36 70 c-35 68 -90 251 -104 348 -12 90 -96 170 -175 169 -46 -1 -130 -37 -177 -77 -71 -60 -95 -158 -68 -284 13 -60 24 -85 65 -138 77 -100 171 -357 171 -469 0 -29 11 -94 25 -145 39 -151 181 -538 206 -565 l23 -24 -22 -153 c-55 -390 -112 -636 -182 -783 -94 -199 -226 -665 -265 -936 -19 -133 -19 -380 0 -716 18 -303 27 -385 56 -495 19 -69 26 -82 72 -123 61 -54 152 -111 360 -224 86 -47 157 -87 157 -90 0 -3 -93 -55 -207 -115 -369 -193 -534 -286 -708 -395 -194 -123 -262 -158 -459 -241 -270 -114 -582 -299 -702 -417 -34 -33 -101 -106 -150 -163 -49 -57 -183 -201 -298 -318 -114 -118 -231 -247 -258 -285 -46 -66 -49 -69 -44 -36 47 273 148 975 181 1253 35 300 41 452 21 545 -25 120 -47 149 -151 204 -141 75 -318 127 -572 168 -50 8 -77 8 -91 1 -48 -26 -196 -208 -475 -589 -99 -133 -182 -242 -186 -242 -12 0 -149 213 -177 275 -56 123 -43 179 105 448 46 85 81 160 81 176 0 42 -56 146 -109 200 -36 37 -66 55 -129 79 -98 38 -103 39 -138 8 -27 -22 -28 -28 -34 -147 -4 -96 -10 -131 -24 -156 -19 -30 -20 -31 -45 -15 -77 47 -112 103 -168 267 -47 141 -72 280 -84 481 -16 256 -6 301 122 556 63 126 68 150 45 233 -29 111 -84 179 -154 190 -20 3 -46 8 -57 10 -34 7 -168 -16 -218 -37 -52 -23 -69 -48 -102 -147 -26 -79 -25 -149 3 -188 26 -37 28 -85 8 -164 -26 -98 -57 -168 -96 -218 -50 -63 -105 -79 -207 -61 -117 20 -155 42 -211 123 -133 194 -319 539 -370 687 -22 63 -53 144 -67 180 -24 56 -26 73 -21 130 15 151 -80 274 -222 287 -96 9 -143 -29 -217 -177 -36 -72 -37 -76 -31 -149 7 -68 16 -93 102 -269 59 -119 134 -251 196 -345 117 -175 160 -260 188 -371 38 -151 19 -239 -70 -320 -56 -51 -97 -66 -174 -66 -98 0 -134 19 -184 94 -23 35 -65 85 -93 110 -62 55 -98 59 -177 20 -87 -43 -100 -69 -122 -250 -22 -172 9 -242 127 -289 37 -14 106 -48 153 -75 47 -27 122 -60 166 -75 108 -34 141 -57 323 -227 84 -79 182 -164 217 -191 35 -26 64 -51 65 -55 0 -4 2 -47 3 -97 2 -84 7 -105 85 -330 309 -891 333 -991 333 -1375 -1 -221 -5 -278 -57 -710 -44 -365 -52 -471 -65 -770 -5 -135 -15 -290 -21 -345 -16 -141 -6 -286 29 -425 68 -265 98 -302 307 -384 50 -19 125 -53 169 -76 74 -38 83 -40 165 -40 123 0 184 20 244 80 39 39 49 45 54 32 59 -168 193 -490 220 -532 85 -130 277 -301 498 -445 83 -54 215 -147 295 -208 181 -139 1007 -787 1046 -821 l29 -26 -30 5 c-59 9 -343 35 -525 47 -102 6 -338 12 -525 12 l-340 1 -175 -32 c-159 -30 -194 -33 -370 -33 -270 -1 -377 -12 -457 -50 -168 -78 -264 -262 -265 -510 -1 -95 25 -234 55 -295 22 -46 167 -191 265 -265 204 -153 644 -301 1417 -475 375 -85 493 -113 1060 -260 286 -74 734 -182 995 -240 261 -58 483 -108 493 -111 10 -3 17 -15 17 -29 0 -22 62 -210 82 -250 6 -11 63 -103 128 -205 140 -220 179 -295 215 -415 50 -166 84 -210 175 -235 113 -30 237 35 299 158 38 76 36 155 -9 275 -18 48 -30 63 -71 90 -54 36 -79 76 -141 225 -55 136 -62 156 -54 185 11 46 324 288 397 307 45 12 133 -4 282 -51 86 -27 106 -39 157 -85 54 -51 61 -54 108 -54 28 0 63 5 77 12 58 26 92 133 102 325 6 116 5 124 -17 155 -28 42 -86 84 -141 103 -58 21 -80 19 -120 -11 -30 -23 -40 -25 -94 -20 -72 6 -238 57 -317 97 -101 51 -134 131 -125 301 l7 108 66 80 c41 49 95 101 144 135 93 65 142 120 158 174 26 84 9 199 -44 303 -61 120 -155 117 -222 -9 -18 -34 -32 -65 -32 -71 0 -17 -141 -152 -166 -158 -36 -9 -57 -1 -73 28 -13 23 -14 37 -1 115 8 48 15 133 15 189 0 96 -1 102 -30 140 -49 64 -216 227 -475 465 -428 391 -1643 1510 -1688 1553 -61 60 -53 72 61 80 51 4 337 26 637 51 300 24 606 47 680 50 74 4 172 13 216 21 167 28 476 116 1095 312 173 55 339 107 369 116 47 13 62 24 105 76 95 115 211 329 255 468 l26 83 12 -49 c10 -35 25 -61 57 -92 53 -52 62 -87 41 -149 -25 -68 -20 -138 15 -237 46 -130 119 -293 141 -313 18 -17 18 -20 -7 -122 -14 -57 -25 -125 -25 -150 0 -128 171 -316 368 -407 72 -32 149 -34 248 -4 91 28 110 28 117 -1 3 -12 24 -75 46 -140 50 -142 58 -211 37 -287 -41 -143 -48 -186 -36 -228 14 -54 64 -117 124 -159 59 -41 76 -41 119 -3 45 39 55 79 68 266 19 268 5 341 -102 556 l-49 97 39 143 c33 124 55 241 64 353 2 27 14 36 112 93 134 78 240 123 371 157 94 25 107 26 266 19 160 -6 168 -6 202 15 38 24 89 89 127 161 33 62 31 167 -4 268 -35 101 -47 112 -117 112 -77 0 -118 -28 -143 -95 -10 -28 -30 -62 -44 -77 -76 -79 -407 -159 -673 -162 -120 -1 -141 4 -198 54 l-24 20 37 207 c62 343 82 391 230 543 119 123 131 138 205 281 l56 109 200 4 c179 3 207 6 279 29 101 32 135 39 430 83 306 45 446 75 591 125 358 123 711 331 1128 663 88 71 228 232 325 375 145 213 170 390 102 711 -32 147 -113 462 -133 513 -20 51 -70 83 -160 103 -125 27 -506 225 -634 329 -41 34 -73 87 -120 205 -62 154 -59 136 -45 261 13 109 12 117 -9 179 -55 163 -144 241 -325 287 -55 13 -115 17 -274 18 l-203 0 -27 -32 c-58 -70 -219 -104 -741 -158 -135 -14 -337 -37 -450 -51 -279 -35 -415 -31 -665 22 -172 36 -188 38 -370 37 -203 0 -290 -14 -393 -65 -55 -26 -162 -112 -266 -212 l-79 -76 -96 0 c-104 0 -209 19 -263 45 -46 24 -106 83 -129 127 -11 21 -33 96 -49 167 -27 115 -30 147 -30 293 0 89 5 180 11 201 l10 38 35 -31 c26 -23 41 -29 57 -24 32 10 69 38 110 84 l37 40 0 113 c0 132 -7 147 -95 223 -90 77 -88 70 -84 358 2 138 -1 298 -5 356 -8 92 -6 114 12 182 47 170 147 391 225 499 87 119 100 151 105 256 3 63 -1 115 -12 165 -29 130 -102 258 -148 258 -24 0 -86 -56 -108 -99 -37 -74 -42 -115 -25 -203 19 -89 16 -147 -16 -335 -19 -115 -40 -183 -57 -183 -6 0 -18 17 -27 37 -24 49 -16 123 31 283 48 166 48 242 0 475 -29 135 -36 193 -36 281 0 135 31 383 65 516 30 118 31 146 4 249 -18 70 -19 90 -10 163 8 70 7 98 -8 173 -23 108 -42 148 -84 173 -43 27 -93 25 -153 -5z m1515 -8557 c-8 -211 -26 -344 -59 -432 -20 -53 -68 -116 -88 -116 -16 0 -40 72 -57 171 -19 115 -41 196 -62 228 -15 23 -14 25 16 48 17 14 61 64 98 111 80 104 155 194 157 190 2 -2 -1 -92 -5 -200z"/>
</g>
</svg>