<?xml version="1.0" standalone="no"?>
<!DOCTYPE svg PUBLIC "-//W3C//DTD SVG 20010904//EN"
 "http://www.w3.org/TR/2001/REC-SVG-20010904/DTD/svg10.dtd">
<svg version="1.0" xmlns="http://www.w3.org/2000/svg"
 width="817.000000pt" height="1536.000000pt" viewBox="0 0 817.000000 1536.000000"
 preserveAspectRatio="xMidYMid meet">
<metadata>
Created by potrace 1.16, written by Peter Selinger 2001-2019
</metadata>
<g transform="translate(0.000000,1536.000000) scale(0.100000,-0.100000)"
fill="#000000" stroke="none">
<path d="M3704 15350 c-11 -4 -81 -18 -154 -29 -154 -25 -200 -43 -333 -132
-143 -97 -452 -335 -485 -374 -44 -55 -115 -182 -138 -253 -17 -50 -23 -99
-28 -230 -9 -221 -20 -293 -67 -440 -31 -94 -40 -139 -41 -194 0 -63 -25 -176
-27 -124 -1 19 -1 19 -22 0 -12 -10 -35 -36 -52 -58 -28 -36 -29 -40 -14 -51
16 -12 16 -15 -10 -45 -15 -18 -46 -41 -69 -51 -34 -16 -42 -25 -47 -53 -3
-19 -14 -47 -23 -62 -10 -15 -17 -40 -15 -56 2 -25 -8 -41 -69 -101 -39 -39
-78 -85 -87 -101 -13 -27 -9 -25 26 14 22 25 40 39 41 31 0 -8 -12 -75 -26
-150 -20 -109 -30 -139 -47 -153 -20 -15 -20 -17 -4 -24 15 -5 4 -20 -60 -88
-43 -45 -98 -105 -122 -134 l-44 -53 37 22 c20 11 36 17 36 13 0 -5 -26 -35
-57 -68 -57 -57 -57 -63 0 -24 15 11 27 17 27 14 0 -21 -62 -240 -75 -265 -15
-30 -15 -31 4 -31 29 0 33 -15 10 -36 -12 -10 -26 -28 -31 -39 -11 -20 -11
-20 11 -1 35 32 24 2 -14 -34 -34 -33 -45 -60 -25 -60 6 0 10 -10 10 -23 0
-32 8 -38 31 -24 25 16 53 -1 57 -34 6 -51 13 -69 27 -69 19 0 19 -14 0 -30
-8 -7 -15 -16 -15 -21 0 -18 23 -8 43 17 l20 26 14 -29 c7 -15 24 -43 38 -61
13 -18 29 -59 35 -90 6 -31 36 -151 67 -267 143 -534 135 -498 130 -625 -3
-90 -12 -145 -41 -254 -20 -77 -43 -185 -51 -240 -8 -56 -33 -198 -56 -316
-60 -307 -59 -370 22 -1025 21 -176 39 -342 39 -369 0 -41 -11 -71 -55 -160
-47 -95 -60 -133 -87 -261 -29 -137 -32 -167 -32 -340 -1 -173 1 -197 22 -265
38 -119 89 -214 154 -285 74 -81 75 -75 -17 -283 -50 -112 -75 -158 -97 -175
-16 -12 -64 -56 -106 -98 -43 -41 -91 -81 -109 -88 -36 -15 -56 -54 -51 -102
2 -27 13 -41 57 -74 l53 -40 -5 -55 c-2 -31 -45 -179 -95 -330 -140 -427 -200
-724 -222 -1099 -13 -219 -24 -281 -62 -353 -30 -56 -52 -84 -229 -285 -310
-352 -406 -514 -504 -849 -24 -82 -28 -119 -45 -479 -23 -466 -27 -536 -46
-683 -33 -263 -305 -1054 -417 -1214 -171 -245 -181 -268 -181 -418 0 -86 4
-116 23 -163 26 -67 97 -144 161 -177 132 -67 497 -116 1390 -184 517 -40 562
-42 660 -20 68 14 92 25 122 52 38 34 38 35 131 33 82 -2 97 1 126 21 50 34
73 70 82 128 10 62 -3 101 -47 142 -41 38 -97 55 -274 84 -339 54 -362 62
-530 198 -58 47 -141 106 -185 132 -172 100 -385 278 -385 321 0 25 63 212 70
208 3 -2 44 84 91 191 46 107 87 194 91 194 5 0 8 -19 8 -42 0 -23 2 -39 5
-37 2 3 29 88 59 190 30 101 62 202 70 224 l16 40 -6 -35 c-8 -46 9 -29 26 25
7 22 46 125 87 230 41 104 96 264 121 355 39 136 48 158 50 127 3 -32 6 -36
18 -26 10 8 14 34 14 94 0 92 9 153 20 135 4 -6 10 11 13 39 3 28 18 99 32
158 l26 108 147 95 c83 54 173 122 209 157 54 54 65 71 84 135 27 90 54 145
115 234 26 38 60 97 74 131 15 35 29 61 32 58 2 -3 63 85 133 195 71 109 131
198 133 196 1 -2 -7 -27 -18 -56 -37 -95 -12 -65 45 54 30 64 60 128 66 144
10 24 12 25 18 8 6 -14 10 -9 20 25 16 52 57 137 77 157 8 7 14 17 14 22 0 5
40 96 89 202 48 106 101 228 117 270 16 43 31 78 34 77 3 0 106 -140 230 -310
124 -171 251 -346 282 -390 49 -66 73 -89 156 -144 202 -133 272 -248 288
-474 4 -62 0 -125 -15 -226 -46 -315 -49 -513 -11 -740 45 -268 156 -501 406
-851 133 -186 180 -266 294 -499 114 -232 198 -423 320 -727 l87 -218 -18 -92
c-31 -157 -51 -307 -52 -392 -2 -104 20 -169 79 -235 72 -80 89 -83 370 -76
131 3 482 9 779 13 l540 7 53 28 c30 16 120 50 201 76 207 68 250 98 399 279
56 68 98 110 126 124 94 48 176 140 176 199 0 39 -41 83 -92 98 -23 7 -86 16
-139 18 -85 5 -109 2 -205 -23 -98 -26 -124 -29 -254 -28 -132 1 -157 4 -280
37 -172 45 -463 148 -560 198 -204 106 -361 311 -455 592 -39 118 -53 183 -37
173 6 -4 5 10 -3 37 -7 23 -15 60 -19 82 l-7 40 24 -30 c24 -28 23 -26 -8 70
-18 55 -36 116 -39 135 l-6 35 25 -30 25 -30 -21 50 c-20 47 -59 186 -59 209
0 5 7 1 15 -10 18 -24 19 -17 0 36 -27 77 -45 144 -36 135 5 -6 23 -32 41 -60
l31 -50 -6 39 c-4 21 -17 55 -29 75 -13 20 -33 56 -45 81 -22 44 -22 45 -1 20
l21 -25 -21 43 c-23 46 -90 211 -90 220 0 3 13 -7 30 -23 17 -16 30 -25 30
-21 0 4 -30 61 -66 127 -65 118 -184 362 -184 376 0 5 11 -5 25 -22 18 -21 7
7 -33 90 -69 141 -107 233 -99 241 3 3 -1 24 -9 46 -16 46 -18 72 -5 64 5 -3
0 17 -10 45 -32 84 -35 184 -9 354 44 291 28 426 -101 825 -64 197 -103 339
-96 347 3 2 10 -13 17 -34 7 -21 16 -42 21 -47 28 -30 -14 148 -56 241 -18 39
-36 82 -41 95 -6 20 -5 21 9 10 13 -11 15 -10 10 10 -3 13 -23 60 -44 106 -21
45 -35 82 -33 82 3 0 21 -12 40 -26 19 -15 34 -24 34 -20 0 3 -20 31 -45 62
-42 52 -86 124 -85 141 1 4 28 -21 61 -57 l60 -65 -75 116 c-42 64 -141 241
-222 395 -195 371 -497 915 -781 1404 -62 107 -62 108 -8 197 28 48 44 68 41
51 -4 -16 -8 -40 -11 -55 l-4 -28 13 28 c6 15 15 24 19 20 5 -4 10 3 14 15 3
12 9 19 14 16 5 -3 9 3 9 13 0 11 7 28 15 39 13 17 14 17 15 2 0 -32 18 -19
54 39 20 32 36 53 36 48 0 -6 9 1 20 15 16 20 22 22 29 11 10 -15 13 -7 26 56
8 40 25 53 26 21 1 -18 3 -16 10 10 5 18 14 30 19 27 5 -3 30 61 55 142 65
207 55 189 88 163 15 -12 34 -35 43 -51 12 -23 19 -28 38 -23 19 4 30 -2 56
-35 18 -22 37 -38 41 -35 5 3 47 -23 94 -57 69 -50 85 -66 85 -88 1 -22 2 -23
11 -9 9 15 22 9 113 -58 l103 -74 -4 -43 c-12 -106 35 -172 197 -280 115 -75
240 -173 240 -186 0 -5 -7 -14 -16 -22 -32 -27 -45 -69 -45 -154 0 -101 23
-161 92 -239 68 -77 120 -96 260 -96 197 0 185 -4 379 141 93 71 184 136 200
144 l30 16 0 183 c0 268 -14 302 -215 531 -54 61 -118 139 -143 175 -25 36
-67 89 -92 119 -33 39 -40 52 -25 48 11 -3 36 -8 55 -12 l35 -6 -24 21 c-16
13 -37 20 -66 20 -53 0 -90 13 -98 35 -6 13 1 15 46 11 l52 -6 -40 14 c-34 12
-36 15 -15 16 17 1 2 9 -43 24 -70 22 -78 36 -22 36 17 0 35 3 38 7 10 9 -23
29 -63 38 -99 21 -197 109 -311 278 -155 230 -223 321 -293 395 -84 88 -430
413 -601 564 -199 175 -238 224 -291 373 -26 75 -74 269 -74 303 0 5 26 19 58
30 133 49 204 119 263 261 48 116 49 146 5 225 -77 140 -188 398 -227 532 -25
88 -57 170 -86 222 -31 59 -52 114 -68 185 -30 131 -65 230 -124 342 -56 110
-129 185 -270 280 -97 66 -100 69 -94 99 11 54 59 190 94 263 l34 70 50 7 c28
3 61 9 74 13 18 5 22 3 16 -7 -10 -16 -17 -19 145 64 123 63 142 77 215 154
80 84 118 112 152 112 10 0 35 14 56 31 32 26 37 36 37 72 0 23 8 56 18 72 29
47 31 72 12 122 -10 27 -21 73 -25 104 -7 56 -7 56 24 69 36 15 69 56 77 97 8
41 -29 132 -91 223 -69 101 -71 109 -39 151 34 45 87 149 76 149 -5 0 -12 20
-15 45 -4 25 -14 60 -24 78 -16 30 -17 31 -22 10 l-6 -23 -52 30 c-85 49 -112
96 -133 239 -15 101 -40 134 -178 225 -174 117 -283 164 -439 191 -92 16 -265
19 -299 5z m-984 -648 c0 -4 -16 -32 -36 -62 -19 -30 -32 -44 -28 -31 5 20 54
99 62 101 1 0 2 -4 2 -8z m-163 -764 c-3 -7 -5 -2 -5 12 0 14 2 19 5 13 2 -7
2 -19 0 -25z m-80 -330 c-2 -13 -4 -5 -4 17 -1 22 1 32 4 23 2 -10 2 -28 0
-40z m-209 -269 c-2 -6 -8 -10 -13 -10 -5 0 -11 4 -13 10 -2 6 4 11 13 11 9 0
15 -5 13 -11z m-198 -624 c0 -8 -4 -15 -10 -15 -5 0 -10 7 -10 15 0 8 5 15 10
15 6 0 10 -7 10 -15z m-255 -755 c-3 -6 -19 -17 -36 -25 -25 -13 -29 -13 -29
-1 0 8 12 19 28 24 36 14 44 14 37 2z m135 -192 l-1 -33 -14 25 c-18 32 -18
40 0 40 10 0 15 -10 15 -32z"/>
<path d="M2410 13706 c0 -2 7 -7 16 -10 8 -3 12 -2 9 4 -6 10 -25 14 -25 6z"/>
<path d="M1639 11864 c-13 -15 -18 -25 -10 -22 13 4 49 48 39 48 -2 0 -15 -12
-29 -26z"/>
</g>
</svg>
