<?xml version="1.0" encoding="UTF-8" standalone="no"?>
<!DOCTYPE svg PUBLIC "-//W3C//DTD SVG 20010904//EN" "http://www.w3.org/TR/2001/REC-SVG-20010904/DTD/svg10.dtd">
<svg version="1.0" xmlns="http://www.w3.org/2000/svg" width="730.000000pt" height="1035.000000pt" viewBox="0 0 730.000000 1035.000000" preserveAspectRatio="xMidYMid meet">
<metadata>
Created by potrace 1.16, written by Peter Selinger 2001-2019
</metadata>
<g transform="translate(0.000000,1035.000000) scale(0.100000,-0.100000)" fill="#000000" stroke="none">
<path d="M3445 10325 c-49 -8 -110 -21 -135 -29 -25 -8 -74 -23 -110 -32 -78 -20 -379 -131 -500 -183 -186 -81 -592 -307 -735 -409 -223 -160 -695 -551 -737 -611 -8 -11 -75 -84 -150 -163 -75 -79 -207 -228 -293 -333 -86 -104 -206 -246 -266 -315 -173 -198 -249 -304 -375 -525 -115 -202 -161 -512 -108 -732 49 -201 198 -429 404 -614 45 -41 135 -121 199 -179 64 -58 156 -134 205 -170 49 -35 121 -92 160 -127 79 -72 139 -107 167 -100 11 3 22 1 25 -4 3 -5 20 -9 37 -7 18 1 43 -4 55 -11 29 -15 68 -7 83 17 10 16 17 17 52 8 23 -6 52 -21 66 -34 32 -29 62 -36 119 -27 26 4 71 7 100 6 46 -1 57 2 81 26 20 20 39 28 65 29 21 1 50 11 66 22 27 20 28 20 44 3 30 -33 56 -118 56 -184 0 -223 -204 -696 -434 -1006 -35 -47 -92 -133 -126 -191 -99 -165 -271 -419 -303 -446 -28 -24 -68 -30 -115 -18 -26 7 -52 51 -52 88 0 41 -10 55 -46 62 -61 11 -80 -1 -113 -69 -26 -55 -30 -74 -31 -162 -4 -246 -6 -229 50 -312 31 -46 54 -93 60 -121 11 -55 57 -147 109 -217 20 -27 63 -84 94 -126 65 -87 74 -118 86 -284 7 -100 11 -116 44 -178 21 -38 37 -80 37 -93 0 -14 12 -48 26 -77 24 -46 27 -61 24 -137 -6 -145 -4 -174 18 -216 11 -22 28 -74 37 -115 22 -99 40 -137 70 -151 34 -15 55 -88 60 -203 12 -272 24 -383 50 -457 15 -40 31 -88 37 -107 23 -79 54 -106 139 -125 29 -6 74 -81 103 -172 11 -33 39 -77 79 -125 82 -96 107 -139 107 -180 0 -19 7 -45 16 -58 14 -19 22 -22 50 -16 33 6 34 5 34 -28 0 -19 10 -47 24 -66 14 -18 27 -50 31 -71 6 -33 12 -41 47 -55 31 -12 38 -19 29 -28 -6 -6 -11 -24 -11 -40 0 -23 13 -41 56 -80 l56 -52 72 -1 c68 -1 79 2 167 46 51 26 96 53 100 61 35 73 49 115 49 142 0 39 40 83 110 119 40 21 45 27 45 58 0 21 9 47 23 64 12 16 22 33 22 38 0 23 -33 69 -60 83 l-30 15 26 39 c39 60 52 117 59 263 4 75 15 164 25 203 10 39 24 106 30 150 7 44 21 105 31 135 11 30 31 96 45 147 24 90 24 98 18 335 -5 193 -10 257 -25 314 -11 40 -19 103 -19 148 0 57 -5 87 -21 119 -20 42 -20 42 0 17 11 -14 37 -56 58 -95 35 -67 37 -75 45 -210 5 -77 11 -162 12 -190 2 -27 16 -115 31 -195 25 -135 26 -152 16 -250 -35 -347 -35 -364 16 -485 23 -55 46 -129 53 -163 15 -86 25 -109 65 -153 19 -21 46 -61 60 -88 32 -63 61 -91 97 -91 32 0 68 31 68 59 0 10 14 36 31 57 29 37 30 42 27 119 -2 62 2 91 17 127 11 27 22 48 25 48 3 0 14 -21 25 -48 15 -36 19 -65 17 -127 -3 -77 -2 -82 27 -119 17 -21 31 -47 31 -57 0 -28 36 -59 68 -59 34 0 70 36 102 100 13 25 40 64 60 86 29 31 41 56 50 100 13 65 43 162 84 269 26 67 27 72 17 175 -26 259 -32 359 -26 396 4 21 15 83 26 137 11 54 21 126 24 160 22 344 20 328 54 397 18 36 44 79 57 95 l26 30 -22 -44 c-17 -35 -22 -61 -21 -121 1 -46 -5 -96 -15 -126 -15 -46 -37 -389 -34 -528 1 -57 27 -169 63 -272 14 -39 28 -95 32 -125 3 -30 17 -99 30 -154 14 -61 26 -150 29 -226 7 -138 21 -201 60 -260 l26 -39 -30 -15 c-17 -9 -38 -31 -47 -50 -16 -34 -16 -36 7 -67 14 -20 24 -47 25 -68 0 -31 5 -37 45 -58 70 -37 110 -80 110 -120 0 -28 22 -93 48 -141 5 -8 50 -36 101 -61 86 -44 97 -47 165 -46 l74 1 56 51 c43 40 56 58 56 81 0 16 -5 34 -11 40 -9 9 -2 16 28 28 35 14 41 21 47 53 3 21 17 53 31 72 15 20 25 47 25 67 0 33 1 34 34 28 28 -6 36 -3 50 16 9 13 16 39 16 58 0 41 25 84 106 179 34 40 65 85 69 100 4 15 24 64 45 108 38 82 42 86 108 99 48 10 78 55 123 185 36 103 41 131 51 265 5 83 9 177 9 210 -2 101 28 210 60 220 29 10 46 42 68 135 12 47 32 113 46 147 24 59 25 68 17 153 -10 98 -4 149 26 202 10 18 21 51 24 73 3 22 20 63 38 92 29 47 33 62 40 165 13 171 22 201 87 287 117 156 131 178 167 247 20 39 36 83 36 99 0 18 20 59 55 111 62 91 58 68 55 318 -3 180 -64 264 -164 226 -21 -8 -26 -16 -26 -45 0 -47 -23 -91 -52 -99 -48 -12 -87 -6 -117 20 -33 28 -175 237 -300 443 -44 72 -106 166 -139 208 -55 73 -172 263 -222 363 -60 119 -143 334 -171 447 -44 178 -36 292 28 365 14 15 17 15 51 -8 23 -16 47 -24 66 -22 22 2 37 -4 57 -25 24 -23 36 -27 81 -26 29 0 80 -2 113 -6 57 -7 63 -5 95 21 19 16 52 34 75 39 38 10 43 9 59 -12 19 -26 53 -30 81 -9 12 8 32 12 51 9 17 -3 34 -1 38 5 3 6 14 8 25 5 28 -7 88 29 176 107 44 40 115 97 159 127 43 30 133 104 200 165 66 61 161 146 209 191 97 88 212 225 274 327 43 71 106 220 124 297 18 70 14 312 -6 406 -51 248 -212 519 -502 848 -51 57 -165 192 -254 299 -88 107 -220 257 -293 334 -72 76 -134 144 -138 150 -8 15 -242 227 -323 293 -233 190 -421 328 -600 440 -105 65 -459 253 -555 294 -243 103 -534 202 -695 235 -104 21 -351 26 -460 9z m-149 -6360 c13 -21 17 -52 17 -163 0 -115 3 -143 18 -172 26 -48 24 -99 -7 -173 -28 -67 -36 -165 -20 -244 l9 -43 -37 0 c-27 0 -44 -7 -61 -26 -14 -15 -25 -31 -25 -35 0 -5 -4 -9 -8 -9 -17 0 -42 73 -42 125 0 29 -5 66 -10 80 -8 20 -6 44 6 91 8 35 15 78 14 96 -3 50 -2 52 30 71 17 10 40 36 51 59 18 36 20 57 20 204 -1 140 1 164 13 164 9 0 23 -11 32 -25z m753 -137 c-2 -150 0 -166 20 -205 12 -24 34 -51 49 -60 37 -24 41 -31 32 -62 -4 -15 -1 -46 7 -75 26 -87 -3 -326 -39 -326 -4 0 -8 4 -8 9 0 4 -11 20 -25 35 -17 19 -34 26 -61 26 l-37 0 9 43 c15 80 7 181 -21 246 -30 72 -32 132 -6 175 16 26 19 51 19 168 -1 111 2 142 16 163 9 14 23 25 32 25 13 0 15 -22 13 -162z"/>
</g>
</svg>