<svg xmlns="http://www.w3.org/2000/svg" width="1000" height="1000" viewBox="0 0 1000 1000" version="1.1">
	<path d="M 484.995 79.597 C 474.273 84.875, 460.775 92.004, 455 95.440 C 449.225 98.876, 439.550 104.296, 433.500 107.485 C 421.566 113.776, 407.664 122.600, 402.382 127.237 C 395.689 133.114, 396.873 143.343, 405.752 156.349 C 415.359 170.422, 416.176 172.947, 417.091 191.410 C 417.530 200.260, 418.356 211.775, 418.927 217 C 419.498 222.225, 419.975 234.600, 419.986 244.500 C 419.997 254.400, 420.460 267.450, 421.015 273.500 C 421.569 279.550, 422.202 305.875, 422.422 332 C 422.715 366.858, 423.251 383.304, 424.435 393.794 C 427.781 423.431, 432.267 443.943, 439.241 461.500 C 441.425 467, 444.765 475.940, 446.662 481.367 C 448.558 486.794, 454.631 500.955, 460.156 512.836 C 473.662 541.877, 476.231 549.942, 480.477 576.618 C 488.738 628.524, 490.182 651.615, 488.099 698.500 C 485.821 749.793, 480.763 782.386, 470.486 812 C 464.220 830.057, 452.935 851.558, 444.895 860.757 C 443.329 862.549, 436.975 868.799, 430.774 874.646 C 404.007 899.889, 397.348 912.278, 404.926 922.739 C 409.222 928.670, 414.523 930.413, 426.251 929.749 C 447.457 928.550, 477.898 911.956, 501.007 889 C 520.735 869.402, 531.697 852.758, 553.366 809.500 C 587.012 742.331, 596.858 710.978, 601.098 657.500 C 603.076 632.557, 601.151 599.342, 596.595 579.780 C 594.382 570.281, 589.083 555.417, 580.986 536 C 571.829 514.040, 567.750 502.109, 563.553 485 C 555.458 451.999, 551.194 414.945, 549.057 359 C 548.479 343.875, 547.550 319.740, 546.993 305.367 C 546.435 290.993, 545.263 271.193, 544.388 261.367 C 542.583 241.097, 543.100 222.051, 545.711 212.613 C 547.879 204.779, 552.438 200.108, 562.553 195.354 C 573.750 190.092, 577.780 187.408, 580.033 183.715 C 582.379 179.866, 582.575 173.620, 580.504 168.664 C 578.660 164.251, 569.238 148.583, 563.568 140.500 C 561.253 137.200, 557.144 130.900, 554.437 126.500 C 551.730 122.100, 546.710 115.014, 543.282 110.754 C 539.853 106.494, 534.935 99.744, 532.352 95.754 C 529.769 91.764, 525.668 85.455, 523.240 81.734 C 520.812 78.013, 517.360 73.851, 515.568 72.484 C 509.891 68.154, 506.761 68.882, 484.995 79.597" stroke="none" fill="black" fill-rule="evenodd"/>
</svg>