<?xml version="1.0" encoding="UTF-8"?>
<!-- Generator: Adobe Illustrator 26.0.3, SVG Export Plug-In . SVG Version: 6.00 Build 0)  -->
<svg version="1.1" id="Calque_1" xmlns:svg="http://www.w3.org/2000/svg" xmlns="http://www.w3.org/2000/svg" xmlns:xlink="http://www.w3.org/1999/xlink" x="0px" y="0px" viewBox="0 0 560.85 287.32" style="enable-background:new 0 0 560.85 287.32;" xml:space="preserve">
<style type="text/css">
	.st0{fill:none;}
	.st1{fill-rule:evenodd;clip-rule:evenodd;}
</style>
<g id="g3">
	<path id="path5" class="st0" d="M321.72,183.1c0.58-1-0.21-1.68-0.7-2.28c-2.56-3.11-4.13-6.68-5.39-10.47   c-1.49-4.47-2.47-9.08-4.46-13.41c-1.31-2.83-2.78-5.83-2.79-9.05c-0.01-5.78-0.36-11.57,0.37-17.35c0.26-2.08,0.67-4.34-0.27-6.3   c-2.04-4.24-0.98-6.8,3.8-9.8c6.44-4.05,12.96-7.97,19.34-12.15c4.02-2.63,7.89-5.51,12.18-7.76c7.51-3.92,14.86-8.15,22.3-12.19   c4.27-2.32,8.46-5,13.75-3.51c1.06,0.3,2.27,0.27,1.04-1.49c-0.42-0.6,0.24-1.62,0.81-2.02c2.18-1.53,4.31-3.46,6.77-4.23   c3.8-1.18,7.77-2.7,11.86-0.34c1.62,0.94,2.43,0.04,2.31-1.88c-0.13-2.01,1.23-3.25,2.96-3.75c6.26-1.8,12.15-4.62,18.25-6.83   c8.14-2.95,16.31-5.83,24.46-8.77c2.62-0.95,5.28-1.82,7.96-2.58c8.35-2.37,16.61-4.99,24.67-8.21c9.17-3.66,18.55-6.46,28.33-7.79   c2.05-0.28,3.77-0.85,4.97-2.5c1.31-1.8,3.14-2.34,5.19-2.75c4.11-0.81,8.2-1.76,12.27-2.74c1.14-0.27,2.61-1.05,2.45-2.15   c-0.45-3.15,1.66-2.47,3.39-2.79c2.14-0.4,3.96,0.61,5.93,0.92c1.71,0.27,3.75,0.97,4.98-0.41c2.01-2.26,4.34-4.31,6.09-6.65   c1.7-2.29,2.97-4.81,5.38-6.57c1.66-1.21,0.99-2.29-0.69-2.87c-1.92-0.66-3.88-1.1-5.94-1.13c-4.53-0.07-9.06-0.31-13.57-0.39   c-4.07-0.07-8.07-1.42-12.11-0.71c-3.27,0.58-6.58,0.82-9.8,0.4c-7.24-0.96-14.21,0.77-21.22,1.79c-8.42,1.22-16.8,1.99-25.33,1.77   c-5.42-0.14-10.86,0.37-16.3,0.02c-2.66-0.17-4.07,3.1-7.31,2.34c-3.36-0.78-6.89,0.64-10.25,1.3c-6.98,1.37-14.25,1.78-20.7,5.29   c-0.3,0.17-0.81,0.29-1.07,0.16c-3.06-1.62-6.03-0.24-8.92,0.41c-7.7,1.74-14.34,6.62-22.31,7.64c-0.44,0.06-0.99,0.35-1.22,0.71   c-0.94,1.45-2.42,1.52-3.84,1.51c-1.78-0.01-3.4,0.52-5.07,1.01c-3.98,1.18-7.83,2.7-11.69,4.19   c-11.04,4.27-22.11,8.38-32.24,14.67c-12.62,7.82-25.52,15.19-38.54,22.33c-3.78,2.07-7.27,4.75-11.68,5.62   c-2.35,0.46-4.09-0.25-5.21-2.09c-1.76-2.88-3.12-5.93-3.71-9.35c-0.84-4.93-0.85-10.01-2.52-14.8c-0.43-1.24-0.01-2.48,0.26-3.7   c0.53-2.45,1.25-4.87,1.18-7.41c-0.03-1.14,0.24-2.61-1.09-3.02c-1.5-0.46-1.77,1.13-2.3,2.08c-0.52,0.92-0.89,1.93-1.35,2.88   c-0.34,0.71-0.73,1.45-1.66,1.36c-0.93-0.09-1.19-0.93-1.4-1.65c-0.19-0.64-0.23-1.33-0.28-2c-0.3-3.93-2-7.41-3.53-10.94   c-0.23-0.52-0.66-1.65-1.37-0.85c-1.12,1.27-3.12,2.1-2.6,4.45c0.46,2.06,0.26,4.21,0.79,6.3c0.52,2.01,0.68,4.09-0.09,6.19   c-1.01-0.3-1.33-1.07-1.88-1.57c-2.3-2.08-2.61-5.36-4.65-7.59c-0.45-0.49-0.78-1.25-1.55-1.14c-0.83,0.12-0.81,0.99-0.98,1.61   c-0.74,2.71-0.1,5.17,1.48,7.4c1.37,1.92,1.92,4.1,2.55,6.76c-2.6-1.03-4.78-1.9-7.04-2.8c-0.37,2.75,0.45,4.69,2.46,6.24   c0.98,0.76,1.79,1.76,2.65,2.67c0.56,0.59,1.03,1.31,0.25,2c-2.36,2.1-0.55,3.08,1.07,4.06c0.82,0.49,1.71,0.75,1.97,1.9   c1.34,5.8,4.65,10.73,7.18,15.99c1.74,3.62,1.73,4.4-2.15,5.82c-3.62,1.33-7.18,2.75-10.68,4.39   c-17.19,8.05-34.63,15.59-51.28,24.79c-9.07,5.02-18.42,9.53-27.54,14.46c-2.59,1.4-4.9,3.32-7.47,4.85   c-8.1,4.82-15.78,10.31-23.83,15.24c-5.4,3.31-11.28,4.78-17.15,6.51c-1.89,0.56-2.77,0.08-3.08-2.35   c-0.39-2.97-0.36-5.99-1.36-8.99c-1.62-4.83-3.16-9.48-7.76-12.35c-0.22-0.14-0.39-0.45-0.47-0.72c-0.65-2.2-2.42-2.62-4.38-3.17   c-5.26-1.5-10.22-3.62-13.21-8.08c-2.52-0.05-3.48,3.83-6.57,1.87c-2.04-1.3-5.24-1.07-5.87-4.48c-0.63,2.17-1.26,4.34-1.93,6.64   c-1.58-1.18-2-2.3-1.21-4.02c0.39-0.85,1.49-2.46,0.01-2.97c-1.68-0.59-1.7,1.37-2.17,2.43c-0.35,0.78-0.6,1.6-0.94,2.52   c-0.79-0.56-0.75-1.99-2.1-1.58c-0.57,0.18-1.16,0.2-1.13,1.01c0.03,0.71,0.52,1.7-0.74,1.76c-0.85,0.04-1.33-0.73-1.72-1.39   c-0.44-0.75-0.95-1.51-1.15-2.33c-0.69-2.86-1.93-3.2-3.66-0.88c-0.8-0.49-0.41-2.3-1.2-1.61c-1.61,1.41-1.41,0.25-1.58-0.73   c-1.44,0.31-2.31-1.93-3.47-1.16c-1.14,0.75-0.2,2.11,0.32,3.12c1.99,3.9,4.65,7.31,7.55,10.56c4.38,4.89,8.61,9.89,11.44,15.91   c1.4,2.99,1.13,3.74-2.17,4.26c-3.51,0.55-5.76,2.43-7.12,5.62c-0.3,0.71-0.34,1.79-1.66,1.7c-1.33-4.25-0.88-8.65-1.05-13.01   c-1.41,2.48-0.54,5.29-1.22,8.38c-0.58-2.52-0.86-4.51-0.86-6.55c0-0.74,0.17-1.68-0.8-1.96c-0.78-0.22-1.47,0.21-2.14,0.65   c-2.33,1.52-2.42,3.93-2.53,6.37c-0.97-2.47-2.88-4.7-1.3-7.58c0.29-0.53,0-0.92-0.59-1.36c-2.04-1.51-2.18,0.67-2.9,1.65   c-1.01-1.1-0.72-2.19-0.65-3.21c0.07-1.07,0.38-2.43-0.97-2.64c-1.33-0.21-1.23,1.28-1.33,2.12c-0.24,2.06-2.41,0.29-2.94,1.6   c-2.08-3.82-3.38,0.18-5.04,0.54c-0.48,0.1-1.15,4.22-0.76,4.45c1.92,1.14,3.13,3.12,4.78,4.38c4.76,3.65,8.25,8.7,13.4,11.87   c0.74,0.45,1.54,1.17,0.92,2.13c-1.73,2.65,0.32,2.48,1.84,2.42c2.79-0.1,3.5,2.08,4.4,3.9c0.98,1.98-1.04,2.44-2.11,3.16   c-11.61,7.8-21.88,17.17-30.73,27.91c-5.48,6.66-10.47,13.75-15.8,20.56c-6.03,7.7-10.98,16.04-12.32,26.11   c-0.63,4.75-1.11,9.32,0.77,13.91c5.66,13.84,15.5,22.97,29.74,27.8c14.03,4.76,27.48,3.05,39.96-3.83   c10.07-5.55,20.75-9.7,30.87-15.11c8.08-4.32,16.26-7.99,21.25-16.17c0.79-1.3,2.12-1.98,3.47-1.21c3.21,1.83,6.25,3.92,6.83,8.03   c0.43,3.06-0.81,4.09-3.74,2.88c-1.49-0.62-2.82-1.66-4.21-2.51c-0.69-0.42-1.42-0.68-2.17-0.2c-0.8,0.5-0.69,1.29-0.56,2.07   c0.22,1.37,0.88,2.55,1.59,3.7c1.3,2.13,0.51,3.23-1.75,3.59c-1.52,0.24-3.05,0.46-4.58,0.67c-0.69,0.09-1.41,0.18-1.66,0.93   c-0.29,0.85,0.13,1.58,0.81,2c1.4,0.85,2.88,1.55,4.3,2.37c1.91,1.11,4.15,1.94,5.27,3.92c2.33,4.09,2.19,4.01,6.72,2.64   c1.4-0.42,3.36-2.2,4.47-0.4c1.88,3.05,4.47,4.01,7.76,4.69c2.01,0.42,3.68,2.31,4.45-1.22c0.16-0.75,1.2-0.87,1.98-0.99   c0.77-0.12,1.83-0.21,1.91-1.03c0.4-4.34,4.87-7.36,3.85-12.14c-0.12-0.58,0.15-1.25,0.69-1.49c1.98-0.9,2.96-2.69,4.13-4.33   c0.54-0.75,1.26-1.05,2.22-1.11c3.98-0.24,7.89-0.68,10.11-4.76c0.4-0.73,1.34-0.68,2.11-0.69c1.25-0.02,2.51,0.01,3.76-0.02   c0.77-0.02,1.65-0.03,1.97-0.9c0.37-0.97-0.26-1.64-0.96-2.22c-0.67-0.55-1.37-1.07-2.02-1.64c-1.36-1.2-1.49-2.52-0.04-3.66   c2.21-1.76,1.83-5.52,5.09-6.47c0.42-0.12,0.44-0.94,0.16-1.31c-1.77-2.41-0.35-3.76,1.49-5.19c2.02-1.58,1.69-2.98-0.77-3.92   c-0.79-0.3-2.11-0.2-2.12-1.18c-0.02-4.05-2.63-2.86-4.84-2.55c-3.11,0.44-5.72-0.2-7.42-3.17c-0.66-1.15-1.24-2.22-0.55-3.5   c0.72-1.33,1.81-1.93,3.37-1.56c0.76,0.18,1.62,0.26,2.03-0.61c0.41-0.88-0.3-1.47-0.85-1.97c-1.74-1.59-1.54-3.23-0.57-5.21   c1.22-2.47,3.13-3.87,5.7-4.46c3.13-0.72,5.99-2.05,8.82-3.55c6.12-3.25,12.21-6.6,18.49-9.53c7.98-3.73,15.54-8.24,22.71-13.21   c8.43-5.85,16.4-12.41,24.39-18.92c9.48-7.72,18.77-15.73,29.06-22.41c1.68-1.09,3.45-2.97,5.42-1.95c1.8,0.93,1.34,3.4,1.49,5.29   c0.82,10.4,1.78,20.78,5.93,30.53c1.41,3.32,1.3,6.65,0.16,9.89c-0.76,2.14-1.23,4.49-2.86,6.25c-0.98,1.05-0.44,2.11,0.31,2.82   c0.85,0.8,1.31-0.19,1.74-0.81c0.52-0.76,1.16-1.42,2.14-1.06c1.07,0.39,0.77,1.4,0.77,2.25c-0.01,2.51-0.6,5.23,0.19,7.46   c0.86,2.45-0.35,4.38-0.37,6.54c-0.01,0.74-1.72,1.73,0.06,2.14c1.24,0.28,3.14,0.5,3.35-1.67c0.39-3.97,1.94-7.66,2.58-11.57   c0.3-1.81,0.84-3.57,1.37-5.78c1.56,2.11,2.3,3.69,2.27,5.8c-0.03,2.28,0.64,4.57,1.02,6.85c0.1,0.57,0.36,1.49,0.82,1.39   c2.36-0.55,2.44,1.44,3.18,3.13c1.01-2.29,1.11-4.2,0.77-6.23c-0.32-1.93-0.23-5.04,1.36-5.14c3.61-0.22,1.3-1.86,1.07-2.93   c0.86-0.42,1.51,1.13,2.14,0.08c0.4-0.68-0.27-1.27-0.73-1.73c-0.98-0.98-1.7-2.07-2.03-3.44c-0.21-0.87-1.23-1.81,0-2.54   c1.03-0.61,2.04-1.56,3.46-1.01C320.33,182.58,320.77,183.46,321.72,183.1L321.72,183.1z"/>
	<path id="path7" class="st1" d="M321.72,183.1c-0.94,0.36-1.39-0.52-2.06-0.78c-1.42-0.55-2.43,0.4-3.46,1.01   c-1.24,0.73-0.21,1.67,0,2.54c0.33,1.36,1.05,2.46,2.03,3.44c0.47,0.46,1.13,1.06,0.73,1.73c-0.62,1.05-1.28-0.49-2.14-0.08   c0.23,1.07,2.54,2.71-1.07,2.93c-1.59,0.1-1.68,3.21-1.36,5.14c0.33,2.03,0.24,3.94-0.77,6.23c-0.74-1.69-0.81-3.68-3.18-3.13   c-0.46,0.11-0.72-0.81-0.82-1.39c-0.38-2.28-1.05-4.57-1.02-6.85c0.03-2.11-0.72-3.69-2.27-5.8c-0.53,2.2-1.07,3.97-1.37,5.78   c-0.64,3.91-2.2,7.6-2.58,11.57c-0.21,2.17-2.11,1.95-3.35,1.67c-1.78-0.41-0.07-1.39-0.06-2.14c0.02-2.16,1.23-4.08,0.37-6.54   c-0.79-2.23-0.19-4.96-0.19-7.46c0-0.85,0.3-1.86-0.77-2.25c-0.98-0.36-1.62,0.3-2.14,1.06c-0.42,0.62-0.89,1.61-1.74,0.81   c-0.75-0.7-1.28-1.76-0.31-2.82c1.64-1.77,2.11-4.11,2.86-6.25c1.14-3.23,1.26-6.57-0.16-9.89c-4.15-9.74-5.1-20.13-5.93-30.53   c-0.15-1.89,0.31-4.36-1.49-5.29c-1.97-1.02-3.74,0.86-5.42,1.95c-10.29,6.69-19.59,14.69-29.06,22.41   c-7.99,6.51-15.95,13.07-24.38,18.92c-7.17,4.97-14.73,9.48-22.71,13.21c-6.28,2.93-12.36,6.28-18.49,9.53   c-2.82,1.5-5.68,2.83-8.82,3.55c-2.57,0.6-4.48,1.99-5.7,4.46c-0.98,1.98-1.17,3.61,0.57,5.21c0.55,0.5,1.26,1.08,0.85,1.97   c-0.41,0.87-1.28,0.79-2.03,0.61c-1.56-0.37-2.65,0.23-3.37,1.56c-0.69,1.27-0.11,2.34,0.55,3.5c1.71,2.97,4.31,3.61,7.42,3.17   c2.21-0.31,4.81-1.5,4.84,2.55c0.01,0.98,1.33,0.88,2.12,1.18c2.47,0.94,2.8,2.34,0.77,3.92c-1.84,1.44-3.26,2.78-1.49,5.19   c0.28,0.38,0.27,1.19-0.16,1.31c-3.26,0.95-2.88,4.71-5.09,6.47c-1.44,1.15-1.32,2.47,0.04,3.66c0.65,0.57,1.35,1.09,2.02,1.64   c0.7,0.58,1.32,1.25,0.96,2.22c-0.33,0.87-1.2,0.88-1.97,0.9c-1.25,0.03-2.51,0-3.76,0.02c-0.77,0.01-1.71-0.04-2.11,0.69   c-2.22,4.07-6.13,4.52-10.11,4.76c-0.96,0.06-1.69,0.36-2.22,1.11c-1.17,1.64-2.15,3.44-4.13,4.33c-0.55,0.25-0.82,0.92-0.69,1.49   c1.02,4.77-3.45,7.8-3.85,12.14c-0.08,0.83-1.14,0.91-1.91,1.03c-0.77,0.12-1.81,0.24-1.98,0.99c-0.77,3.54-2.44,1.64-4.45,1.22   c-3.28-0.68-5.87-1.64-7.76-4.69c-1.12-1.8-3.08-0.03-4.47,0.4c-4.53,1.38-4.39,1.45-6.72-2.64c-1.13-1.98-3.37-2.81-5.27-3.92   c-1.41-0.82-2.9-1.52-4.3-2.37c-0.68-0.42-1.09-1.15-0.81-2c0.25-0.75,0.97-0.84,1.66-0.93c1.53-0.21,3.06-0.42,4.58-0.67   c2.26-0.36,3.05-1.46,1.75-3.59c-0.7-1.15-1.37-2.33-1.59-3.7c-0.12-0.79-0.23-1.57,0.56-2.07c0.75-0.48,1.48-0.23,2.17,0.2   c1.4,0.85,2.72,1.89,4.21,2.51c2.94,1.21,4.18,0.18,3.74-2.88c-0.59-4.11-3.63-6.2-6.83-8.03c-1.35-0.77-2.68-0.09-3.47,1.21   c-5,8.17-13.18,11.84-21.25,16.17c-10.12,5.41-20.8,9.56-30.87,15.11c-12.48,6.88-25.93,8.58-39.96,3.83   c-14.24-4.83-24.08-13.96-29.74-27.8c-1.88-4.59-1.4-9.16-0.77-13.91c1.33-10.07,6.29-18.41,12.32-26.11   c5.33-6.81,10.32-13.91,15.8-20.56c8.85-10.74,19.12-20.11,30.73-27.91c1.06-0.72,3.09-1.18,2.11-3.16c-0.9-1.82-1.62-4.01-4.4-3.9   c-1.52,0.06-3.57,0.22-1.84-2.42c0.63-0.96-0.18-1.68-0.92-2.13c-5.15-3.17-8.63-8.22-13.4-11.87c-1.65-1.26-2.86-3.24-4.78-4.38   c-0.4-0.23,0.28-4.35,0.76-4.45c1.65-0.35,2.96-4.36,5.04-0.54c0.54-1.31,2.71,0.46,2.94-1.6c0.1-0.84,0.01-2.33,1.33-2.12   c1.36,0.21,1.04,1.57,0.97,2.64c-0.07,1.02-0.35,2.11,0.65,3.21c0.72-0.98,0.86-3.16,2.9-1.65c0.59,0.44,0.89,0.83,0.59,1.36   c-1.58,2.87,0.33,5.11,1.3,7.58c0.11-2.45,0.2-4.85,2.53-6.37c0.67-0.44,1.37-0.87,2.14-0.65c0.97,0.27,0.81,1.22,0.8,1.96   c-0.01,2.04,0.27,4.03,0.86,6.55c0.68-3.08-0.19-5.89,1.22-8.38c0.16,4.36-0.29,8.76,1.05,13.01c1.32,0.09,1.36-0.99,1.66-1.7   c1.35-3.19,3.61-5.06,7.12-5.62c3.3-0.52,3.57-1.27,2.17-4.26c-2.82-6.02-7.05-11.02-11.44-15.91c-2.9-3.24-5.57-6.66-7.55-10.56   c-0.52-1.02-1.45-2.37-0.32-3.12c1.17-0.77,2.04,1.47,3.47,1.16c0.17,0.98-0.03,2.13,1.58,0.73c0.79-0.69,0.4,1.11,1.2,1.61   c1.73-2.32,2.97-1.98,3.66,0.88c0.2,0.82,0.71,1.58,1.15,2.33c0.39,0.67,0.87,1.43,1.72,1.39c1.26-0.06,0.77-1.05,0.74-1.76   c-0.03-0.81,0.56-0.83,1.13-1.01c1.35-0.42,1.31,1.02,2.1,1.58c0.33-0.91,0.59-1.73,0.94-2.52c0.47-1.06,0.49-3.02,2.17-2.43   c1.48,0.52,0.38,2.12-0.01,2.97c-0.79,1.72-0.37,2.84,1.21,4.02c0.67-2.3,1.3-4.47,1.93-6.64c0.64,3.41,3.83,3.18,5.87,4.48   c3.09,1.96,4.04-1.91,6.57-1.87c2.99,4.46,7.95,6.59,13.21,8.08c1.96,0.56,3.73,0.97,4.38,3.17c0.08,0.27,0.25,0.58,0.47,0.72   c4.6,2.87,6.14,7.51,7.76,12.35c1,3,0.98,6.02,1.36,8.99c0.32,2.42,1.2,2.9,3.08,2.35c5.87-1.73,11.75-3.2,17.15-6.51   c8.05-4.93,15.73-10.42,23.83-15.24c2.57-1.53,4.88-3.45,7.47-4.85c9.12-4.93,18.47-9.45,27.54-14.46   c16.65-9.21,34.08-16.74,51.28-24.79c3.5-1.64,7.07-3.06,10.68-4.39c3.88-1.43,3.89-2.21,2.15-5.82   c-2.53-5.26-5.85-10.2-7.18-15.99c-0.26-1.15-1.15-1.4-1.97-1.9c-1.62-0.97-3.43-1.96-1.07-4.06c0.78-0.69,0.31-1.41-0.25-2   c-0.86-0.91-1.66-1.91-2.65-2.67c-2.01-1.54-2.83-3.49-2.46-6.24c2.26,0.9,4.44,1.76,7.04,2.8c-0.63-2.66-1.18-4.84-2.55-6.76   c-1.58-2.23-2.22-4.69-1.48-7.4c0.17-0.62,0.16-1.49,0.98-1.61c0.77-0.11,1.1,0.65,1.55,1.14c2.04,2.23,2.35,5.5,4.65,7.59   c0.55,0.5,0.87,1.27,1.88,1.57c0.77-2.1,0.61-4.18,0.09-6.19c-0.54-2.09-0.34-4.23-0.79-6.3c-0.52-2.35,1.48-3.17,2.6-4.45   c0.71-0.8,1.14,0.33,1.37,0.85c1.52,3.53,3.22,7.01,3.53,10.94c0.05,0.67,0.09,1.36,0.28,2c0.21,0.73,0.47,1.56,1.4,1.65   c0.93,0.09,1.33-0.66,1.66-1.36c0.46-0.96,0.83-1.96,1.35-2.88c0.53-0.94,0.8-2.54,2.3-2.08c1.34,0.41,1.06,1.89,1.09,3.02   c0.07,2.54-0.66,4.96-1.18,7.41c-0.26,1.23-0.69,2.46-0.26,3.7c1.67,4.79,1.68,9.87,2.52,14.8c0.58,3.42,1.95,6.47,3.71,9.35   c1.12,1.84,2.86,2.55,5.21,2.09c4.41-0.87,7.9-3.54,11.68-5.62c13.02-7.14,25.92-14.5,38.54-22.33   c10.13-6.28,21.21-10.4,32.24-14.67c3.87-1.5,7.71-3.02,11.69-4.19c1.67-0.49,3.28-1.02,5.07-1.01c1.42,0.01,2.9-0.06,3.84-1.51   c0.23-0.36,0.78-0.65,1.22-0.71c7.97-1.02,14.62-5.89,22.31-7.64c2.9-0.65,5.86-2.04,8.92-0.41c0.26,0.14,0.77,0.01,1.07-0.16   c6.45-3.51,13.72-3.92,20.7-5.29c3.36-0.66,6.89-2.08,10.25-1.3c3.23,0.75,4.64-2.51,7.31-2.34c5.44,0.34,10.88-0.16,16.3-0.02   c8.53,0.21,16.91-0.55,25.33-1.77c7.01-1.02,13.98-2.74,21.22-1.79c3.22,0.43,6.53,0.19,9.8-0.4c4.04-0.72,8.04,0.63,12.11,0.71   c4.51,0.08,9.05,0.32,13.57,0.39c2.06,0.03,4.02,0.47,5.94,1.13c1.68,0.58,2.36,1.66,0.69,2.87c-2.42,1.76-3.68,4.28-5.38,6.57   c-1.75,2.34-4.08,4.39-6.09,6.65c-1.23,1.39-3.27,0.68-4.98,0.41c-1.97-0.31-3.79-1.32-5.93-0.92c-1.73,0.32-3.83-0.36-3.39,2.79   c0.16,1.1-1.32,1.88-2.45,2.15c-4.08,0.98-8.16,1.93-12.27,2.74c-2.05,0.4-3.88,0.95-5.19,2.75c-1.2,1.65-2.92,2.22-4.97,2.5   c-9.78,1.33-19.17,4.12-28.33,7.79c-8.05,3.22-16.32,5.85-24.67,8.21c-2.68,0.76-5.34,1.63-7.96,2.58   c-8.14,2.94-16.32,5.82-24.46,8.77c-6.11,2.21-11.99,5.02-18.25,6.83c-1.73,0.5-3.09,1.74-2.96,3.75c0.12,1.92-0.68,2.81-2.31,1.88   c-4.08-2.36-8.06-0.84-11.86,0.34c-2.46,0.76-4.58,2.69-6.77,4.23c-0.57,0.4-1.23,1.42-0.81,2.02c1.23,1.76,0.02,1.79-1.04,1.49   c-5.29-1.49-9.48,1.19-13.75,3.51c-7.44,4.04-14.79,8.27-22.3,12.19c-4.3,2.25-8.17,5.13-12.18,7.76   c-6.37,4.18-12.89,8.1-19.34,12.15c-4.77,3-5.84,5.56-3.8,9.8c0.94,1.95,0.53,4.21,0.27,6.3c-0.73,5.78-0.38,11.57-0.37,17.35   c0.01,3.22,1.48,6.21,2.79,9.05c2,4.33,2.98,8.95,4.46,13.41c1.26,3.79,2.83,7.36,5.39,10.47   C321.51,181.42,322.29,182.1,321.72,183.1L321.72,183.1z M67.53,154.28c1.78-2.4,2.87-5.42,5.88-6.66c0.48-0.2,0.45-1.25,0.03-1.86   c-0.42-0.61-1.03-0.37-1.56-0.15c-1.68,0.71-3.36,1.42-5.01,2.19c-1.37,0.64-2.6,1.44-2.44,3.4c0.93-0.57,1.5-1.89,2.54-1.27   C68.8,151.03,66.06,152.7,67.53,154.28L67.53,154.28z"/>
	<path id="path9" class="st0" d="M67.53,154.28c-1.47-1.58,1.27-3.25-0.57-4.35c-1.04-0.62-1.61,0.7-2.54,1.27   c-0.15-1.96,1.07-2.76,2.44-3.4c1.65-0.77,3.33-1.48,5.01-2.19c0.53-0.22,1.14-0.46,1.56,0.15c0.42,0.61,0.45,1.66-0.03,1.86   C70.4,148.86,69.31,151.87,67.53,154.28L67.53,154.28z"/>
</g>
</svg>