<svg xmlns="http://www.w3.org/2000/svg" width="2360" height="1640" viewBox="0 0 2360 1640" version="1.1">
	<path d="M 998 584.119 C 939.816 588.357, 892.068 593.928, 861.851 600.006 C 829.459 606.522, 806.383 616.214, 759.734 642.898 C 746.405 650.522, 726.500 661.590, 715.500 667.493 C 693.543 679.276, 682.334 685.793, 671.141 693.284 C 664.452 697.760, 662.084 698.649, 645.141 703.048 C 624.616 708.377, 607.738 713.944, 594.288 719.821 C 553.166 737.789, 517.902 755.161, 497.477 767.516 C 458.299 791.212, 441.733 803.290, 423.461 821.482 C 405.269 839.593, 399.392 849.020, 393.344 869.785 C 388.120 887.722, 384.553 908.148, 383.023 928.880 C 382.006 942.664, 381.819 943.494, 378.516 948.880 C 376.620 951.971, 374.379 957.182, 373.535 960.460 C 371.743 967.417, 371.519 983.033, 373.089 991.526 C 375.083 1002.308, 382.034 1012.584, 390.834 1017.757 L 395.500 1020.500 423 1021.060 C 445.453 1021.517, 451.418 1021.938, 455.500 1023.354 C 462.854 1025.904, 488.657 1031, 494.214 1031 C 496.855 1031, 505.425 1031.863, 513.258 1032.917 C 533.302 1035.616, 560.479 1037.401, 570.774 1036.694 C 575.573 1036.365, 588.950 1034.526, 600.500 1032.608 C 629.107 1027.857, 649.508 1025.269, 668.352 1024.001 C 684.786 1022.894, 701.148 1021.445, 709.092 1020.393 C 713.177 1019.851, 714.061 1020.107, 717.092 1022.705 C 723.120 1027.872, 732.473 1034.739, 743.117 1041.813 C 748.828 1045.607, 757.803 1052.720, 763.063 1057.619 C 784.511 1077.595, 794.811 1084.602, 810.828 1090.113 C 822.360 1094.081, 825.022 1092.509, 839.521 1073.167 C 850.726 1058.217, 866.053 1040.121, 867.569 1040.050 C 868.741 1039.995, 901.477 1055.307, 920.500 1064.808 C 946.337 1077.713, 970.524 1088.869, 993.618 1098.533 C 1020.316 1109.707, 1070.483 1135.495, 1103.500 1155.019 C 1126.628 1168.695, 1135.959 1173.940, 1147.308 1179.643 C 1162.557 1187.307, 1167.581 1189.107, 1173.969 1189.198 C 1182.860 1189.324, 1188.033 1185.702, 1192.103 1176.500 C 1196.732 1166.036, 1195.517 1139.180, 1189.464 1118.155 C 1187.604 1111.692, 1184.946 1100.576, 1183.558 1093.452 C 1180.331 1076.889, 1176.516 1068.897, 1166.943 1058.646 C 1160.774 1052.041, 1158.400 1050.343, 1147.703 1044.888 C 1135.892 1038.866, 1119.893 1031.391, 1096 1020.732 C 1078.342 1012.855, 1058.366 1002.712, 1059.661 1002.280 C 1060.299 1002.067, 1067.724 1002.814, 1076.161 1003.939 C 1123.293 1010.225, 1170.666 1013.918, 1186.500 1012.540 C 1190.350 1012.204, 1227.025 1011.502, 1268 1010.979 C 1318.585 1010.333, 1353.414 1009.399, 1376.500 1008.070 C 1417.357 1005.717, 1428.920 1005.200, 1457 1004.471 C 1501.277 1003.323, 1530.168 1001.966, 1541.655 1000.495 C 1570.992 996.740, 1601.787 988.545, 1631.174 976.671 C 1653.240 967.756, 1668.529 962.725, 1680 960.606 C 1706.685 955.675, 1712.302 954.839, 1725.264 953.866 C 1744.742 952.404, 1776.674 953.245, 1784.480 955.425 C 1797.134 958.958, 1803.023 962.210, 1827 978.905 C 1833.325 983.309, 1843 989.930, 1848.500 993.618 C 1859.634 1001.083, 1872.986 1010.981, 1889.500 1024.010 C 1917.566 1046.154, 1930.199 1052.400, 1940.228 1049.090 C 1945.758 1047.265, 1947.864 1044.215, 1949.501 1035.658 C 1951.692 1024.209, 1953.821 1020.843, 1963.238 1013.945 C 1967.723 1010.660, 1973.218 1007.508, 1975.447 1006.942 C 1977.676 1006.376, 1982.650 1004.591, 1986.500 1002.975 C 1990.350 1001.359, 1997.732 999.112, 2002.905 997.982 C 2008.078 996.851, 2012.691 995.691, 2013.155 995.404 C 2014.572 994.528, 2014.105 991.125, 2012 987 C 2009.319 981.744, 2009.465 977.790, 2012.472 974.216 C 2016.699 969.192, 2017.010 967.140, 2015.279 955.715 C 2013.741 945.564, 2013.753 945.107, 2015.645 941.859 C 2016.974 939.578, 2018.870 938.087, 2021.551 937.215 C 2028.256 935.032, 2029.246 931.459, 2024.406 926.912 C 2020.749 923.476, 2021.714 914.903, 2026.390 909.281 C 2027.662 907.751, 2029.280 905.404, 2029.986 904.064 C 2031.144 901.866, 2031.006 901.402, 2028.579 899.314 C 2027.099 898.041, 2025.091 897, 2024.117 897 C 2022.730 897, 2022.091 895.618, 2021.173 890.635 C 2019.460 881.339, 2019.575 880.833, 2024.500 876 C 2030.428 870.182, 2030.675 866.598, 2025.303 864.353 C 2019.255 861.826, 1990.948 862.017, 1979.902 864.659 L 1971.303 866.715 1974.152 857.858 C 1977.359 847.884, 1977.627 844.437, 1975.579 839.534 C 1973.844 835.381, 1969.547 833, 1963.789 833 C 1957.127 833, 1910.910 841.330, 1883.839 847.409 C 1870.452 850.416, 1849.150 854.518, 1836.500 856.526 C 1799.560 862.388, 1784.663 861.517, 1749.985 851.464 C 1734.903 847.092, 1722.627 842.301, 1693 829.222 C 1654.053 812.030, 1650.497 810.019, 1602.972 778.320 C 1527.616 728.059, 1488.833 704.833, 1455.455 689.978 C 1419.278 673.876, 1365.553 651.666, 1346.500 644.934 C 1301.387 628.996, 1264.444 617.379, 1221.171 605.524 C 1191.823 597.484, 1175.105 593.754, 1156.500 591.093 C 1113.431 584.934, 1034.500 581.461, 998 584.119" stroke="none" fill="black" fill-rule="evenodd"/>
</svg>