<svg xmlns="http://www.w3.org/2000/svg" width="1000" height="1000" viewBox="0 0 1000 1000" version="1.1">
	<path d="M 485.831 70.967 C 469.721 73.878, 455.482 80.954, 443.593 91.958 C 436.994 98.066, 415.753 123.635, 409.302 133.236 C 396.455 152.357, 389.054 173.720, 379.592 219 C 364.254 292.396, 359.147 342.923, 361.906 394 C 364.102 434.662, 367.428 454.432, 375.416 474.329 C 382.792 492.700, 382.802 492.536, 373.489 509 C 361.811 529.648, 355.070 550.689, 351.312 578.219 C 349.856 588.888, 349.502 598.187, 349.509 625.500 C 349.519 666.011, 351.420 690.846, 357.582 731 C 363.710 770.934, 377.036 829.595, 384.501 849.500 C 403.371 899.816, 436.047 927.113, 480.722 929.881 C 521.552 932.411, 561.615 919.610, 587.766 895.679 C 598.103 886.219, 608.947 868.633, 614.897 851.680 C 623.897 826.039, 626.932 804.084, 629.509 746 C 630.326 727.575, 631.439 706.875, 631.983 700 C 633.737 677.833, 634.313 640.325, 633.151 623.943 C 631.973 607.329, 628.029 572.944, 625.414 556.500 C 621.636 532.739, 615.540 515.927, 608.013 508.513 L 603.170 503.742 610.597 494.819 C 617.951 485.983, 622.145 478.905, 626.046 468.748 C 627.155 465.862, 630.072 459.450, 632.528 454.500 C 640.291 438.855, 642.942 424.604, 646.940 377 C 650.223 337.918, 651.246 307.274, 650.712 264 C 650.021 207.978, 648.763 201.774, 630.481 164.234 C 605.875 113.712, 582.830 84.148, 563.281 78.031 C 559.861 76.960, 551.086 74.876, 543.781 73.400 C 532.526 71.125, 527.449 70.671, 510.500 70.420 C 499.500 70.257, 488.399 70.503, 485.831 70.967" stroke="none" fill="black" fill-rule="evenodd"/>
</svg>