<svg xmlns="http://www.w3.org/2000/svg" width="2048" height="2048" viewBox="0 0 2048 2048" version="1.1">
	<path d="M 931.500 859.670 C 929.300 859.869, 920.075 861.141, 911 862.496 C 901.925 863.851, 887.975 865.903, 880 867.055 C 858.231 870.200, 830.673 877.693, 808.500 886.497 C 798.302 890.546, 751.684 910.283, 743.500 914.016 C 739.650 915.773, 732.900 919.336, 728.500 921.935 C 703.322 936.806, 697.926 939.579, 682.869 945.386 C 660.261 954.106, 656.381 955.292, 633.802 960.384 C 627.121 961.891, 627.083 961.887, 618.802 958.876 C 592.631 949.358, 583.265 947.581, 563 948.286 C 547.988 948.809, 540.859 949.658, 526.803 952.599 C 517.999 954.441, 508.689 954.358, 502.500 952.383 C 493.709 949.577, 484.119 950.141, 470 954.294 C 463.125 956.316, 453.225 958.434, 448 959.001 C 415.765 962.498, 374.247 975.038, 348.929 988.926 C 341.917 992.772, 332.158 998.560, 327.241 1001.788 C 319.469 1006.891, 316.814 1008.026, 306.901 1010.477 C 288.316 1015.073, 271.255 1023.385, 260.624 1033.023 C 257.806 1035.578, 252.653 1039.174, 249.174 1041.014 C 241.509 1045.068, 231.776 1055.217, 228.246 1062.836 C 226.025 1067.633, 225.814 1069.172, 226.171 1078.041 L 226.567 1087.910 221.534 1088.456 C 218.765 1088.756, 214.929 1089.113, 213.008 1089.251 C 208.823 1089.549, 207.746 1092.259, 211.099 1094.053 C 212.816 1094.972, 215.345 1094.964, 222.270 1094.017 C 232.546 1092.613, 234.146 1093.278, 233.306 1098.603 L 232.816 1101.706 221.158 1102.369 C 202.434 1103.435, 168.094 1108.862, 165.261 1111.203 C 161.029 1114.700, 169.181 1114.810, 192.218 1111.567 C 201.723 1110.229, 214.622 1108.611, 220.882 1107.972 C 233.338 1106.700, 233.954 1106.896, 233.985 1112.145 C 234.004 1115.550, 237.756 1127.731, 239.027 1128.517 C 239.562 1128.847, 240 1129.536, 240 1130.048 C 240 1131.207, 229.195 1136.661, 205.134 1147.647 C 179.507 1159.348, 172.115 1163.717, 174.965 1165.478 C 177.699 1167.168, 198.751 1158.733, 226.203 1144.948 L 243.906 1136.059 245.992 1138.989 C 247.957 1141.748, 261.291 1153.440, 269 1159.163 C 270.925 1160.593, 276.232 1163.692, 280.793 1166.052 C 287.393 1169.466, 288.823 1170.587, 287.793 1171.540 C 285.088 1174.048, 262.080 1191.965, 252.625 1198.929 C 240.269 1208.028, 225.982 1217.450, 219.684 1220.652 C 213.767 1223.660, 214.029 1225.558, 220.330 1225.340 C 229.564 1225.021, 255.281 1208.795, 278.926 1188.370 C 285.211 1182.942, 291.806 1177.265, 293.582 1175.755 L 296.812 1173.009 304.656 1176.588 C 308.970 1178.556, 315.088 1181.336, 318.250 1182.767 C 321.413 1184.197, 324 1185.568, 324 1185.814 C 324 1187.818, 307.572 1217.384, 302.505 1224.500 C 296.537 1232.881, 279.089 1252.665, 265.750 1266.176 C 262.587 1269.379, 260 1272.225, 260 1272.500 C 260 1272.775, 261.080 1273, 262.401 1273 C 265.985 1273, 275.985 1265.052, 290.053 1251.020 C 304.883 1236.229, 311.842 1226.235, 322.622 1204.250 C 326.735 1195.862, 330.360 1189, 330.678 1189 C 332.609 1189, 343.060 1195.913, 346 1199.135 C 349.147 1202.582, 350.409 1203.159, 358.500 1204.845 C 363.450 1205.877, 369.863 1207.683, 372.750 1208.860 C 385.512 1214.062, 389.222 1215.380, 401.080 1218.929 C 412.180 1222.251, 422.687 1224.460, 451.123 1229.449 C 457.174 1230.511, 461.020 1232.060, 469.785 1236.969 C 475.856 1240.369, 485.926 1244.991, 492.162 1247.241 C 503.442 1251.310, 503.592 1251.334, 521.500 1251.915 L 539.500 1252.500 545.449 1255.938 C 550.471 1258.839, 552.343 1259.370, 557.449 1259.343 C 560.777 1259.326, 566.425 1258.504, 570 1257.517 C 580.872 1254.515, 582.647 1254.490, 586.783 1257.287 C 591.726 1260.629, 594.277 1261.287, 598.216 1260.238 C 603.070 1258.945, 623.850 1260.583, 627.637 1262.557 C 630.490 1264.045, 630.811 1264.704, 631.187 1269.847 C 631.510 1274.252, 632.564 1277.155, 635.967 1283 C 643 1295.083, 655.639 1306.827, 660.633 1305.921 C 663.055 1305.481, 663.689 1306.361, 663.754 1310.250 C 663.842 1315.512, 673.788 1339.496, 680.399 1350.386 C 682.930 1354.555, 685 1358.424, 685 1358.983 C 685 1359.542, 683.720 1360, 682.155 1360 C 678.514 1360, 676 1362.789, 676 1366.829 C 676 1370.555, 675.658 1370.621, 669.784 1368.023 C 662.037 1364.596, 645.116 1361.003, 636.718 1361.001 C 623.790 1360.999, 619 1364.602, 619 1374.329 C 619 1378.308, 618.695 1378.884, 615.995 1380.002 C 609.197 1382.818, 605.002 1390.653, 605.020 1400.500 C 605.032 1407.019, 606.748 1410.221, 611.026 1411.705 C 615.623 1413.299, 619.351 1412.519, 626 1408.571 C 633.497 1404.121, 635.447 1403.467, 634.450 1405.739 C 634.024 1406.707, 633.474 1409.218, 633.227 1411.317 C 632.871 1414.337, 633.270 1415.661, 635.139 1417.659 C 638.873 1421.652, 640.835 1422.288, 652 1423.129 C 666.051 1424.188, 678.127 1425.458, 692 1427.336 C 710.507 1429.842, 720.413 1431, 723.342 1431 C 730.855 1431, 745.005 1418.833, 750.518 1407.632 C 756.495 1395.488, 756.920 1391.377, 757.226 1342.779 L 757.500 1299.197 761.447 1302.099 C 767.002 1306.182, 770.437 1305.935, 774.904 1301.134 C 777.737 1298.088, 778.924 1297.437, 780.500 1298.064 C 781.600 1298.501, 784.015 1298.891, 785.868 1298.930 C 789.564 1299.007, 793.924 1295.199, 799.315 1287.185 C 800.863 1284.883, 802.611 1283, 803.198 1283 C 803.786 1283, 806.516 1285.284, 809.264 1288.076 C 813.501 1292.381, 814.658 1293.053, 816.880 1292.502 C 818.321 1292.144, 820.400 1291.037, 821.500 1290.041 C 822.742 1288.917, 825.589 1288.068, 829.009 1287.803 C 833.208 1287.477, 836.192 1286.381, 841.552 1283.197 L 848.585 1279.019 854.543 1280.084 C 857.819 1280.670, 862.464 1281.515, 864.865 1281.962 C 870.690 1283.047, 874.854 1281.748, 878.732 1277.637 C 881.154 1275.069, 883.110 1274.061, 886.720 1273.519 C 892.321 1272.680, 894.523 1271.666, 898.202 1268.237 C 900.540 1266.057, 901.281 1265.860, 903.702 1266.778 C 908.363 1268.544, 914.750 1269.071, 917.315 1267.902 C 919.348 1266.976, 920.363 1267.207, 923.619 1269.337 C 934.136 1276.217, 945.177 1277.449, 957.451 1273.113 L 963.401 1271.010 965.965 1273.466 C 968.736 1276.121, 975.824 1279, 979.589 1279 C 980.874 1279, 984.286 1278.070, 987.171 1276.933 L 992.416 1274.865 996.101 1276.937 C 1001.385 1279.906, 1010.122 1280.569, 1017.745 1278.578 C 1023.252 1277.141, 1024.257 1277.120, 1026.245 1278.408 C 1028.578 1279.919, 1051.429 1286, 1054.775 1286 C 1055.942 1286, 1058.112 1288.097, 1060.433 1291.467 C 1065.109 1298.257, 1077.334 1309.982, 1082.091 1312.239 C 1084.048 1313.168, 1088.828 1314.421, 1092.714 1315.024 C 1098.511 1315.923, 1100.410 1315.856, 1103.298 1314.649 C 1106.670 1313.240, 1106.917 1313.283, 1109.159 1315.670 C 1110.447 1317.040, 1115.100 1320.258, 1119.500 1322.821 C 1127.203 1327.307, 1127.797 1327.481, 1135.500 1327.490 C 1139.900 1327.496, 1143.994 1327.822, 1144.598 1328.215 C 1145.201 1328.608, 1147.359 1331.774, 1149.392 1335.250 C 1154.980 1344.806, 1163.149 1353.436, 1169.585 1356.585 C 1174.444 1358.963, 1175.493 1360.038, 1178.181 1365.396 C 1186.439 1381.855, 1191.221 1388.854, 1196.403 1392.065 C 1198.641 1393.452, 1200.252 1396.250, 1203.428 1404.262 C 1205.695 1409.981, 1209.114 1417.249, 1211.025 1420.414 C 1214.499 1426.166, 1226.810 1440.490, 1231.347 1444.058 C 1233.567 1445.804, 1233.680 1446.316, 1232.823 1450.725 C 1232.313 1453.351, 1232.138 1457.115, 1232.434 1459.089 C 1232.931 1462.404, 1232.520 1463.144, 1227.027 1468.809 C 1223.758 1472.182, 1219.827 1475.292, 1218.291 1475.721 C 1216.756 1476.149, 1211.450 1476.490, 1206.500 1476.478 C 1198.488 1476.459, 1196.676 1476.090, 1190 1473.118 C 1167.463 1463.088, 1169.115 1463.605, 1159.500 1463.558 C 1149.412 1463.509, 1145.784 1464.872, 1136.571 1472.171 C 1133.860 1474.319, 1131.159 1475.891, 1130.568 1475.665 C 1129.978 1475.438, 1126.345 1474.546, 1122.497 1473.683 C 1092.736 1467.010, 1076.152 1467.089, 1072.230 1473.922 C 1070.885 1476.266, 1069.387 1477.006, 1063.061 1478.457 C 1042.497 1483.171, 1027.329 1496.025, 1025.357 1510.410 C 1024.858 1514.054, 1025.320 1516.035, 1028.052 1521.962 C 1033.210 1533.153, 1036.467 1533.508, 1045.005 1523.809 C 1050.833 1517.188, 1058.132 1513.026, 1063.946 1513.010 C 1067.392 1513, 1067.392 1513.001, 1062.026 1515.674 C 1059.074 1517.145, 1054.956 1520.104, 1052.873 1522.250 C 1048.651 1526.601, 1045 1535.168, 1045 1540.726 C 1045 1547.905, 1052.101 1554.324, 1059.938 1554.230 C 1061.897 1554.207, 1069.350 1552.331, 1076.500 1550.061 C 1088.303 1546.315, 1103.398 1543.287, 1105.945 1544.156 C 1106.500 1544.345, 1104.939 1547.191, 1102.477 1550.480 C 1094.971 1560.507, 1096.297 1562.107, 1114.074 1564.478 C 1124.228 1565.833, 1128.137 1565.948, 1134.387 1565.079 C 1138.644 1564.487, 1142.896 1563.591, 1143.837 1563.087 C 1144.777 1562.584, 1148.461 1561.438, 1152.023 1560.541 C 1155.586 1559.644, 1161.317 1557.805, 1164.761 1556.455 C 1170.704 1554.124, 1172.098 1553.999, 1192.261 1553.982 C 1227.076 1553.953, 1245.745 1549.696, 1263.354 1537.771 C 1271.376 1532.339, 1276.254 1527.693, 1300.385 1502.500 C 1317.589 1484.539, 1320.734 1480.777, 1322.119 1476.500 C 1323.010 1473.750, 1324.759 1468.800, 1326.006 1465.500 C 1327.777 1460.814, 1328.373 1456.762, 1328.728 1447 C 1329.489 1426.092, 1325.343 1406.297, 1315.397 1383.359 C 1312.979 1377.782, 1311 1372.114, 1311 1370.764 C 1311 1367.630, 1318.466 1356, 1320.478 1356 C 1321.315 1356, 1322 1355.615, 1322 1355.145 C 1322 1354.674, 1324.813 1354.017, 1328.250 1353.684 C 1337.519 1352.786, 1353.481 1346.320, 1393.500 1327.252 C 1447.310 1301.613, 1449.238 1300.328, 1485.185 1266.169 C 1498.008 1253.983, 1512.775 1240.872, 1518 1237.033 C 1543.229 1218.497, 1580.619 1201.368, 1603 1198.094 C 1617.350 1195.995, 1654.849 1195.105, 1711 1195.531 C 1791.900 1196.145, 1820.808 1198.654, 1848.767 1207.486 C 1860.614 1211.229, 1872.094 1219.271, 1886.071 1233.621 C 1898.363 1246.241, 1900.041 1248.343, 1905.413 1257.845 C 1911.380 1268.403, 1912.472 1273.573, 1912.414 1291 C 1912.356 1308.589, 1911.408 1313.041, 1904.871 1326.413 C 1899.237 1337.937, 1892.166 1346.947, 1884.005 1352.996 C 1874.373 1360.137, 1872 1363.172, 1872 1368.354 C 1872 1377.991, 1880.585 1382.207, 1895.786 1380.037 C 1915.615 1377.206, 1929.369 1368.801, 1942.497 1351.493 C 1952.692 1338.051, 1958.087 1324.648, 1960.005 1308 C 1961.089 1298.583, 1960.994 1295.902, 1959.083 1282 C 1957.911 1273.475, 1956.472 1264.025, 1955.886 1261 C 1953.126 1246.768, 1942.594 1221.895, 1934.559 1210.636 C 1929.634 1203.733, 1912.886 1187.212, 1904.500 1180.985 C 1892.974 1172.426, 1874.046 1163.961, 1853.500 1158.179 C 1828.182 1151.053, 1804.161 1147.387, 1728 1139.024 C 1669.078 1132.555, 1653.866 1130.801, 1636.500 1128.478 C 1611.296 1125.106, 1561.801 1115.549, 1548.036 1111.397 C 1532.596 1106.739, 1511.882 1100.302, 1504.500 1097.867 C 1501.200 1096.779, 1496.250 1095.383, 1493.500 1094.765 C 1490.750 1094.147, 1486.745 1092.372, 1484.600 1090.821 C 1482.455 1089.269, 1480.158 1088, 1479.495 1088 C 1477.219 1088, 1447.490 1073.277, 1436 1066.459 C 1429.675 1062.706, 1417.895 1055.330, 1409.822 1050.068 C 1401.749 1044.806, 1390.724 1037.874, 1385.322 1034.665 C 1342.674 1009.330, 1302.234 985.982, 1285 976.746 C 1273.725 970.703, 1260.450 963.397, 1255.500 960.510 C 1235.095 948.609, 1183.291 922.299, 1157 910.486 C 1151.225 907.891, 1141.579 903.056, 1135.564 899.742 C 1097.810 878.941, 1054.745 866.442, 1003.500 861.412 C 987.976 859.889, 941.484 858.763, 931.500 859.670" stroke="none" fill="black" fill-rule="evenodd"/>
</svg>