<svg xmlns="http://www.w3.org/2000/svg" width="500" height="500" viewBox="0 0 500 500" version="1.1">
	<path d="M 273.910 30.371 C 264.107 33.875, 257.160 42.648, 252.424 57.500 L 250.193 64.500 229.846 65.118 C 213.535 65.614, 206.991 66.255, 196.850 68.354 C 183.858 71.042, 169.737 75.373, 160.173 79.602 C 157.191 80.921, 154.387 82, 153.943 82 C 153.498 82, 150.840 78.202, 148.036 73.560 C 138.793 58.257, 129.350 51, 118.681 51 C 100.859 51, 94.980 74.285, 110.165 84.731 C 112.842 86.572, 115.489 89.865, 118.065 94.559 L 121.941 101.617 117.220 105.154 C 91.653 124.312, 68.200 157.766, 57.555 190.263 C 50.673 211.272, 49.577 218.754, 49.536 245 C 49.504 265.645, 49.779 269.877, 51.796 279.834 C 54.794 294.628, 59.866 309.949, 66.059 322.913 C 68.802 328.656, 70.698 333.689, 70.273 334.099 C 68.196 336.103, 55.173 338.325, 41.939 338.934 C 29.288 339.515, 26.901 339.898, 23.739 341.852 C 18.162 345.299, 15.512 350.339, 15.512 357.500 C 15.512 364.679, 18.158 369.691, 23.800 373.200 C 27.230 375.332, 28.557 375.496, 42 375.446 C 58.417 375.386, 67.853 373.807, 83.444 368.512 L 93.389 365.135 102.649 373.988 C 111.925 382.856, 124.747 393.148, 131.434 397.094 C 133.555 398.345, 135 399.976, 135 401.119 C 135 403.591, 127.241 419.044, 121.512 427.982 C 119.051 431.820, 115.768 435.586, 114.154 436.421 C 104.425 441.451, 101.479 454.843, 108.067 464.093 C 110.614 467.671, 117.618 471.003, 122.566 470.990 C 127.986 470.977, 136.067 466.985, 141.331 461.722 C 149.064 453.989, 163.303 430.973, 167.908 418.763 C 168.833 416.312, 169.214 416.131, 171.570 417.027 C 175.045 418.348, 195.530 423.666, 200.073 424.426 L 203.646 425.024 203.573 440.262 C 203.502 455.012, 203.585 455.645, 206.152 460.011 C 211.154 468.518, 221.391 471.410, 230.647 466.929 C 238.134 463.304, 239.418 459.951, 240 442.500 L 240.500 427.500 245 427.225 C 290.613 424.441, 332.034 406.190, 365.177 374.272 L 374.854 364.953 379.922 366.878 C 387.129 369.617, 392.645 373.075, 399.233 378.986 C 405.666 384.757, 409.642 386.334, 415.500 385.435 C 424.703 384.023, 431 376.530, 431 366.990 C 431 360.571, 429.518 357.731, 422.716 351.120 C 416.498 345.077, 411.018 341.186, 402.683 336.897 C 399.483 335.250, 397.032 333.588, 397.235 333.202 C 398.685 330.451, 406.808 313.156, 407.311 311.750 C 408.134 309.450, 410.420 309.541, 415.669 312.082 C 419.011 313.700, 421.111 315.920, 425.089 322.043 C 430.760 330.772, 435.461 334, 442.500 334 C 454.248 334, 463.395 321.941, 460.070 310.837 C 455.552 295.748, 436.010 277.689, 421.663 275.344 L 417.825 274.716 418.447 267.608 C 418.788 263.699, 419.329 258.297, 419.648 255.604 L 420.228 250.707 433.605 251.379 C 445.818 251.991, 447.326 251.875, 450.933 250.034 C 458.606 246.120, 463.086 236.749, 460.996 228.987 C 459.640 223.949, 454.883 218.444, 450.700 217.073 C 446.840 215.807, 430.701 214.041, 422.769 214.017 C 417.338 214.001, 417.006 213.856, 416.426 211.250 C 407.861 172.766, 393.254 146.174, 365.359 118.280 L 351.138 104.059 358.207 97.515 C 370.976 85.692, 384.552 78.003, 402.112 72.647 C 412.092 69.603, 415.545 67.213, 418.104 61.579 C 420.453 56.405, 420.455 51.582, 418.110 46.500 C 413.129 35.708, 403.915 33.473, 387.084 38.972 C 364.021 46.509, 342.286 60.225, 326.439 77.244 L 319.573 84.617 310.037 80.448 C 304.791 78.154, 297.417 75.264, 293.648 74.024 C 286.839 71.783, 286.800 71.750, 287.420 68.650 C 287.763 66.935, 289.781 63.724, 291.905 61.516 C 297.055 56.160, 298 54.069, 298 48.026 C 298 39.244, 293.493 33, 285.101 30.153 C 280.832 28.705, 278.440 28.752, 273.910 30.371 M 274.500 37.103 C 266.829 41.540, 261.499 49.777, 257.608 63.206 L 255.205 71.500 241.852 71.162 C 212.454 70.417, 183.086 76.348, 156.770 88.345 C 150.064 91.402, 150.774 91.869, 144.197 80.084 C 141.614 75.455, 137.523 69.467, 135.108 66.778 C 130.625 61.789, 122.728 57, 118.984 57 C 115.611 57, 111.148 59.813, 109.517 62.967 C 106.191 69.398, 108.311 75.557, 115.346 79.905 C 117.608 81.303, 120.284 84.896, 123.780 91.226 C 126.596 96.327, 129.167 101.211, 129.492 102.080 C 129.912 103.202, 127.918 105.317, 122.597 109.393 C 118.479 112.547, 109.932 120.499, 103.603 127.063 C 51.455 181.151, 40.352 260.220, 75.552 326.805 C 78.548 332.473, 81 337.291, 81 337.512 C 81 338.388, 64.344 343.104, 56.290 344.509 C 51.586 345.329, 43.477 346, 38.269 346 C 28.834 346, 28.788 346.012, 25.400 349.400 C 22.498 352.302, 22 353.488, 22 357.500 C 22 361.546, 22.491 362.691, 25.531 365.731 L 29.062 369.262 44.781 368.715 C 62.410 368.102, 71.631 366.249, 86.350 360.360 L 95.262 356.794 106.381 367.789 C 118.037 379.315, 128.055 387.459, 138.045 393.527 C 141.320 395.517, 144 397.225, 143.999 397.322 C 143.996 398.423, 139.075 409.886, 135.848 416.308 C 129.119 429.702, 121.664 440.313, 117.631 442.236 C 106.938 447.335, 110.326 464, 122.056 464 C 124.269 464, 127.800 463.122, 129.902 462.050 C 138.700 457.562, 152.339 438.035, 161.020 417.500 C 162.880 413.100, 164.714 409.120, 165.096 408.655 C 165.478 408.190, 170.611 409.439, 176.502 411.431 C 182.393 413.423, 192.437 416.081, 198.824 417.337 L 210.435 419.620 210.467 437.725 C 210.499 455.430, 210.553 455.886, 212.897 458.386 C 218.082 463.915, 226.596 463.871, 230.984 458.293 C 232.680 456.137, 233.020 454.123, 233.124 445.615 C 233.193 440.052, 233.530 432.350, 233.874 428.500 L 234.500 421.500 248.377 420.250 C 280.676 417.342, 308.897 407.613, 334.500 390.560 C 346.258 382.728, 359.596 371.520, 367.125 363.145 C 369.669 360.315, 372.461 358, 373.329 358 C 375.846 358, 387.331 362.418, 392.140 365.236 C 394.560 366.654, 399.417 370.382, 402.933 373.519 C 409.106 379.028, 409.482 379.206, 413.881 378.710 C 420.966 377.911, 426.206 370.942, 424.583 364.475 C 423.028 358.279, 409.973 347.669, 395.636 340.951 L 387.085 336.944 390.217 331.722 C 391.940 328.850, 395.692 321.325, 398.556 315 L 403.764 303.500 409.452 303.765 C 412.636 303.914, 416.831 304.894, 418.983 305.992 C 422.990 308.036, 428.602 314.237, 431.355 319.662 C 433.853 324.584, 437.600 327, 442.735 327 C 446.511 327, 447.744 326.456, 450.725 323.475 C 453.991 320.209, 454.215 319.594, 453.783 315.098 C 453.435 311.474, 452.144 308.481, 448.679 303.269 C 440.252 290.594, 431.166 284.178, 417.649 281.360 C 413.742 280.545, 410.422 279.756, 410.272 279.605 C 410.122 279.455, 410.672 274.870, 411.494 269.416 C 412.316 263.962, 412.991 256.246, 412.994 252.269 C 413 245.288, 413.091 245.015, 415.643 244.375 C 417.096 244.010, 423.509 244.050, 429.893 244.464 C 444.375 245.402, 445.419 245.352, 448.898 243.552 C 451.959 241.970, 455.002 236.628, 454.996 232.849 C 454.990 228.768, 451.443 224.224, 447.302 222.991 C 445.211 222.368, 436.263 221.605, 427.418 221.294 L 411.336 220.730 409.619 211.772 C 402.707 175.717, 380.346 138.093, 351.714 114.341 C 346.646 110.137, 342.351 106.318, 342.168 105.854 C 341.560 104.306, 351.022 94.223, 358.924 87.998 C 372.618 77.212, 383.943 71.217, 399.712 66.407 C 410.059 63.251, 413.002 60.636, 412.996 54.604 C 412.991 48.850, 410.010 44.383, 405.218 42.947 C 401.953 41.969, 400.168 42.107, 393.917 43.822 C 370.383 50.278, 350.384 62.552, 331.244 82.286 L 320.989 92.859 311.744 88.482 C 306.660 86.074, 297.176 82.393, 290.669 80.302 L 278.837 76.500 279.410 73 C 280.718 65.004, 282.316 61.514, 286.560 57.389 C 293.149 50.986, 293.619 45.963, 288.197 39.894 C 286.082 37.527, 284.388 36.703, 280.968 36.375 C 278.510 36.139, 275.600 36.467, 274.500 37.103 M 276.120 42.710 C 269.728 45.860, 264.647 55.448, 261.301 70.675 C 260.019 76.510, 259.350 77.964, 258.158 77.507 C 257.325 77.187, 250.311 76.659, 242.571 76.333 C 212.998 75.086, 183.850 81.079, 158.614 93.594 C 153.727 96.017, 149.211 98, 148.579 98 C 147.947 98, 145.940 94.962, 144.119 91.250 C 138.211 79.201, 130.320 68.272, 125.484 65.438 C 119.973 62.208, 116.008 62.466, 114.242 66.169 C 112.758 69.278, 114.173 73.603, 116.963 74.488 C 120.328 75.556, 125.012 81.796, 130.929 93.091 C 134.268 99.466, 137 104.941, 137 105.258 C 137 105.575, 133.064 108.908, 128.253 112.664 C 66.595 160.811, 46.842 244.325, 80.514 314.500 C 82.889 319.450, 86.670 326.328, 88.916 329.784 C 91.162 333.240, 93 336.431, 93 336.876 C 93 338.105, 78.403 344.608, 70.500 346.899 C 60.169 349.895, 51.915 351.120, 40.198 351.396 C 31.307 351.606, 29.529 351.924, 28.367 353.513 C 26.352 356.268, 26.693 358.784, 29.455 361.545 C 31.642 363.733, 32.757 363.999, 39.705 363.994 C 56.590 363.981, 75.527 359.669, 91.348 352.234 L 101.197 347.606 109.348 356.224 C 121.085 368.634, 134.776 379.387, 150.468 388.521 C 152.107 389.475, 152.020 390.147, 149.146 398.724 C 142.416 418.812, 128.275 442.738, 120.869 446.568 C 117.255 448.437, 115.950 451.558, 117.237 455.251 C 119.686 462.276, 128.901 458.788, 137.423 447.611 C 147.393 434.534, 155.125 419.802, 160.899 402.879 L 163.500 395.258 172.185 398.615 C 183.258 402.896, 197.929 406.709, 209.271 408.253 L 218.157 409.464 217.563 412.435 C 217.236 414.070, 216.470 422.033, 215.860 430.131 C 214.260 451.372, 215.529 457, 221.916 457 C 227.117 457, 227.696 455.116, 228.370 436 C 228.709 426.375, 229.333 416.700, 229.757 414.500 L 230.527 410.500 237.013 410.273 C 282.949 408.669, 322.537 392.471, 353.845 362.470 C 366.073 350.753, 366.339 350.653, 377.540 353.532 C 386.907 355.939, 396.862 361.158, 404.841 367.847 C 408.878 371.231, 412.395 374, 412.656 374 C 413.672 374, 417.538 371.644, 418.235 370.600 C 420.420 367.327, 418.919 364.103, 412.447 358.172 C 403.103 349.611, 391.235 343.752, 376.825 340.587 L 374.150 340 380.569 329.750 C 384.099 324.112, 388.813 315.225, 391.044 310 C 393.275 304.775, 395.471 299.825, 395.924 299 C 396.574 297.817, 398.413 297.569, 404.624 297.827 C 419.940 298.463, 426.250 301.852, 433.646 313.411 C 439.855 323.115, 443.670 324.485, 447.636 318.433 C 449.346 315.823, 449.318 315.626, 446.480 310.206 C 442.089 301.819, 433.931 293.584, 426.286 289.820 C 420.723 287.082, 418.399 286.544, 410.627 286.196 C 405.607 285.971, 401.213 285.498, 400.862 285.144 C 400.510 284.790, 401.085 280.450, 402.138 275.500 C 403.190 270.550, 404.335 260.725, 404.681 253.666 C 405.300 241.027, 405.349 240.817, 407.905 239.814 C 409.479 239.197, 417.288 238.972, 427.749 239.243 C 447.316 239.750, 449 239.300, 449 233.566 C 449 231.739, 448.370 229.722, 447.600 229.083 C 445.426 227.279, 423.732 225.788, 413.719 226.755 C 405.320 227.566, 404.922 227.513, 404.561 225.551 C 404.354 224.423, 403.468 219.118, 402.592 213.762 C 396.444 176.156, 374.095 138.797, 342.771 113.767 C 334.780 107.382, 334.137 106.610, 335.178 104.646 C 335.803 103.466, 341.081 97.755, 346.907 91.957 C 362.300 76.636, 373.626 69.632, 394.482 62.539 C 404.854 59.011, 406.590 58.106, 407.398 55.809 C 408.102 53.808, 407.916 52.521, 406.643 50.577 C 404.441 47.217, 400.680 47.208, 390.479 50.539 C 366.977 58.210, 343.560 74.202, 328.958 92.553 C 326.136 96.099, 323.320 99, 322.700 99 C 322.079 99, 318.108 97.198, 313.874 94.995 C 304.183 89.953, 290.775 84.754, 280.569 82.081 C 276.231 80.945, 272.531 79.864, 272.346 79.679 C 271.693 79.027, 276.268 62.452, 278.099 58.834 C 279.120 56.818, 281.315 54.200, 282.977 53.016 C 287.447 49.833, 287.134 44.686, 282.316 42.150 C 279.659 40.751, 280.196 40.703, 276.120 42.710 M 258.500 111.676 C 256.850 112.554, 253.382 115.236, 250.793 117.636 C 245.298 122.731, 242.073 123.182, 233.976 119.991 C 225.462 116.635, 220.638 115.980, 209.463 116.664 C 197.692 117.384, 194.411 118.783, 190.348 124.811 C 187.866 128.495, 184 143.683, 184 149.751 C 184 155.851, 185.157 156.312, 198.376 155.487 L 209.805 154.772 211.562 157.454 C 213.283 160.080, 213.265 160.189, 210.727 162.728 C 208.245 165.210, 207.704 165.311, 197.945 165.119 C 192.341 165.009, 187.473 164.884, 187.128 164.841 C 183.780 164.426, 180.557 165.558, 176.704 168.500 C 174.183 170.425, 171.459 172, 170.651 172 C 169.843 172, 166.613 169.326, 163.473 166.057 C 156.505 158.802, 153.477 157.513, 148.856 159.833 C 141.643 163.454, 134 179.222, 134 190.483 C 134 193.493, 133.464 196.191, 132.750 196.770 C 132.063 197.328, 128.680 198.501, 125.234 199.376 C 121.788 200.251, 113.913 203.153, 107.734 205.825 L 96.500 210.683 93.780 218.592 C 90.447 228.279, 90.252 235.445, 93.100 243.535 C 95.177 249.435, 95.181 249.616, 93.443 260.055 C 91.567 271.317, 91.881 274.881, 95.025 278.025 C 97.793 280.793, 100.371 280.491, 104.437 276.921 C 106.366 275.228, 108.732 273.994, 109.695 274.180 C 113.002 274.817, 115.805 281.741, 116.478 290.935 C 117.401 303.572, 118.736 308.600, 123.576 317.682 C 129.459 328.720, 130.627 333.622, 129.051 340.663 C 127.624 347.039, 128.688 350.910, 132.566 353.451 C 137.487 356.676, 140.206 355.057, 143.821 346.750 C 146.433 340.746, 147.497 340.723, 158.840 346.420 C 163.681 348.851, 170.309 351.602, 173.570 352.533 C 179.911 354.344, 183.312 356.812, 185.644 361.294 C 187.565 364.989, 192.658 367.993, 197 367.993 C 202.288 367.993, 206.179 365.017, 209.817 358.193 C 213.748 350.817, 217.058 348, 221.793 348 C 224.792 348, 226.173 348.893, 231.078 354 C 234.248 357.300, 237.586 360, 238.497 360 C 240.670 360, 246 354.632, 246 352.445 C 246 348.868, 250.011 344.158, 254.290 342.711 C 271.653 336.836, 272.926 336.776, 279.571 341.500 C 285.335 345.598, 286.920 345.794, 289.725 342.750 C 292.031 340.248, 301.380 320.279, 303.888 312.500 C 306.265 305.127, 308.694 305.225, 317.548 313.048 C 327.488 321.829, 328.332 322.101, 330.847 317.322 C 332.468 314.241, 331.458 312.458, 326.415 309.503 C 321.229 306.464, 318.667 302.222, 319.623 298.259 C 320.941 292.791, 331.627 273.651, 334.414 271.765 C 335.011 271.361, 336.291 271.024, 337.258 271.015 C 339.675 270.994, 346.849 286.693, 347.885 294.268 C 348.477 298.596, 349.393 300.801, 351.525 303.026 C 356.159 307.863, 356.919 307.491, 371.569 293.207 C 378.215 286.728, 381.031 269.203, 377.395 256.959 C 375.583 250.857, 369.595 244, 366.078 244 C 362.516 244, 356.801 247.527, 351.500 252.998 C 343.319 261.439, 338.682 262.954, 335.073 258.365 C 331.953 254.399, 332.337 248.450, 336.028 243.572 C 339.651 238.784, 339.787 235.315, 336.595 229.147 C 335.272 226.591, 333.742 222.025, 333.195 219 C 332.648 215.975, 330.299 209.353, 327.974 204.284 L 323.746 195.068 318.326 193.492 C 315.344 192.626, 312.667 191.296, 312.376 190.536 C 311.314 187.769, 317.853 179, 320.979 179 C 321.861 179, 324.590 181.078, 327.042 183.618 C 339.695 196.725, 347.221 197.360, 353.486 185.849 C 360.759 172.486, 354.005 156.350, 337.740 148.227 C 333.989 146.353, 332.251 146.071, 327.748 146.600 C 324.025 147.037, 319.925 146.681, 314.817 145.477 C 305.763 143.343, 301.228 143.983, 296.597 148.049 C 292.729 151.446, 292.339 151.515, 288.343 149.521 C 285.703 148.204, 284.748 148.221, 279.642 149.674 C 271.066 152.113, 270.764 150.687, 277.940 141.656 C 281.273 137.462, 284 133.289, 284 132.384 C 284 129.612, 275.676 114.913, 272.673 112.382 C 269.304 109.543, 263.091 109.234, 258.500 111.676 M 310.223 128.557 C 307.700 130.323, 307.328 133.197, 309.398 134.915 C 311.501 136.660, 315.362 131.545, 313.943 128.893 C 312.725 126.618, 312.960 126.639, 310.223 128.557 M 125.219 148.250 C 119.394 156.205, 115.469 162.135, 113.548 165.880 C 111.870 169.152, 111.880 169.324, 113.873 171.317 C 115.700 173.145, 116.211 173.225, 118.433 172.036 C 119.809 171.300, 124.774 166.773, 129.467 161.977 C 136.220 155.077, 138 152.651, 138 150.351 C 138 146.112, 135.449 143, 131.975 143 C 129.617 143, 128.332 143.999, 125.219 148.250 M 105.073 180.635 C 102.385 184.051, 102.312 189.561, 104.934 190.965 C 107.806 192.502, 114.243 192.218, 116.777 190.443 C 119.822 188.311, 119.565 185.713, 115.896 181.535 C 112.012 177.110, 108.101 176.785, 105.073 180.635 M 356.245 198.250 C 351.887 203.697, 355.780 211.474, 361.892 209.534 C 364.763 208.623, 366.468 203.751, 364.934 200.841 C 364.256 199.553, 363.205 198.169, 362.600 197.765 C 360.868 196.609, 357.343 196.878, 356.245 198.250 M 139.615 204.465 C 137.562 207.599, 137.588 208.317, 139.829 210.345 C 142.124 212.422, 144.709 212.437, 149.580 210.402 C 151.763 209.490, 154.774 209.026, 156.595 209.322 C 160.633 209.977, 164.233 207.646, 163.807 204.653 C 163.419 201.933, 159.827 201.307, 156.793 203.432 C 153.976 205.406, 150.059 205.433, 146.364 203.506 C 142.454 201.467, 141.489 201.604, 139.615 204.465 M 340.223 211.557 C 334.977 215.231, 340.295 224, 347.768 224 C 354.760 224, 357.491 217.400, 352.545 212.455 C 349.647 209.556, 343.697 209.123, 340.223 211.557 M 307.367 330.918 C 305.643 331.969, 303.506 333.867, 302.617 335.137 C 300.580 338.045, 300.501 346.135, 302.473 349.947 C 304.144 353.180, 311.192 357, 315.484 357 C 319.973 357, 331.370 354.858, 332.750 353.755 C 335.518 351.542, 333.534 346, 329.974 346 C 327.703 346, 324.602 342.335, 322.207 336.821 C 320.889 333.786, 319.108 331.590, 317.137 330.571 C 313.177 328.523, 311.178 328.594, 307.367 330.918 M 218.200 359.200 C 215.163 362.237, 217.881 369, 222.137 369 C 225.992 369, 228 367.116, 228 363.500 C 228 361.133, 227.401 359.750, 226.066 359.035 C 223.470 357.646, 219.674 357.726, 218.200 359.200 M 264.500 363.792 C 260.573 366.258, 259.117 368.105, 257.984 372.056 C 256.840 376.044, 258.913 381.080, 262.485 382.992 C 267.608 385.734, 279.405 382.188, 283.417 376.701 C 285.463 373.903, 285.463 373.901, 283.482 370.245 C 279.836 363.517, 270.170 360.230, 264.500 363.792 M 240.044 375.453 C 237.864 377.773, 237.858 377.853, 239.751 378.867 C 241.194 379.639, 242.243 379.518, 243.845 378.396 C 246.490 376.544, 246.569 375.375, 244.138 374.074 C 242.677 373.292, 241.795 373.589, 240.044 375.453 M 199.009 375.893 C 193.309 377.479, 194.226 385.891, 200.423 388.870 C 202.886 390.054, 203.726 390.024, 206.610 388.649 C 212.468 385.855, 212.369 378.888, 206.436 376.409 C 202.773 374.878, 202.677 374.872, 199.009 375.893" stroke="none" fill="black" fill-rule="evenodd"/>
</svg>