<?xml version="1.0" encoding="UTF-8" standalone="no"?>
<!DOCTYPE svg PUBLIC "-//W3C//DTD SVG 20010904//EN" "http://www.w3.org/TR/2001/REC-SVG-20010904/DTD/svg10.dtd">
<svg version="1.0" xmlns="http://www.w3.org/2000/svg" width="1536.000000pt" height="450.000000pt" viewBox="0 0 1536.000000 450.000000" preserveAspectRatio="xMidYMid meet">
<metadata>
Created by potrace 1.16, written by Peter Selinger 2001-2019
</metadata>
<g transform="translate(0.000000,450.000000) scale(0.100000,-0.100000)" fill="#000000" stroke="none">
<path d="M7585 4489 c-475 -23 -852 -75 -1415 -195 -736 -156 -1090 -270 -1910 -612 -1112 -464 -1372 -579 -2003 -890 -266 -131 -448 -215 -465 -214 -15 0 -130 35 -257 77 -200 66 -509 155 -541 155 -7 0 -8 -20 -2 -65 8 -59 7 -70 -14 -106 -22 -39 -22 -40 -4 -87 34 -87 34 -90 -17 -102 -101 -26 -223 -171 -422 -506 -210 -351 -297 -460 -431 -531 -32 -18 -68 -39 -79 -47 -19 -14 -17 -15 32 -16 28 0 104 9 170 20 464 79 884 282 1418 684 93 71 180 132 193 137 45 17 144 9 298 -26 86 -20 266 -58 401 -86 373 -75 499 -105 1308 -309 841 -212 1045 -259 1390 -324 757 -141 1592 -244 2355 -290 342 -21 487 -26 950 -36 223 -4 413 -11 422 -15 23 -9 26 -33 38 -285 7 -148 18 -258 35 -355 14 -77 28 -189 31 -250 3 -60 9 -125 15 -142 12 -37 52 -73 81 -73 61 0 282 120 448 244 119 88 328 296 444 441 86 109 121 158 516 730 208 302 254 364 264 354 6 -6 -83 -140 -277 -417 -59 -84 -107 -155 -107 -159 0 -10 276 6 455 27 94 11 249 33 345 50 201 33 487 74 875 125 1288 169 1575 258 2829 874 l388 191 -5 58 c-3 31 -9 69 -12 84 -6 21 -3 27 14 33 31 9 26 31 -28 141 -151 306 -345 470 -801 679 -349 160 -455 199 -1370 510 -360 123 -681 232 -712 244 -74 27 -173 27 -298 0 -329 -71 -333 -71 -415 -65 -103 9 -357 44 -760 107 -757 117 -1060 157 -1430 189 -607 51 -1456 72 -1940 49z m6376 -1104 c161 -15 293 -36 394 -61 103 -26 289 -125 425 -227 195 -147 597 -503 510 -452 -30 17 -99 73 -260 214 -387 336 -563 431 -900 486 -236 38 -763 38 -1090 0 -286 -33 -745 -106 -831 -131 -164 -49 -348 -186 -448 -333 -21 -31 -79 -137 -129 -236 -72 -142 -106 -197 -160 -260 -119 -137 -238 -221 -384 -269 -76 -26 -144 -34 -134 -17 3 5 30 15 58 21 219 51 419 212 551 441 14 26 44 88 67 139 100 231 232 376 436 479 44 22 114 49 155 60 138 38 728 127 994 150 169 14 578 12 746 -4z m-3863 -1425 c-34 -47 -124 -103 -298 -187 -317 -154 -532 -263 -577 -294 -71 -49 -159 -144 -188 -202 -14 -29 -28 -77 -32 -105 -6 -58 -19 -75 -28 -40 -8 33 10 110 41 170 66 131 203 222 657 439 239 114 327 163 393 220 53 46 67 45 32 -1z"/>
</g>
</svg>